<?xml version="1.0" encoding="UTF-8"?>
<svg id="Capa_1" data-name="Capa 1" xmlns="http://www.w3.org/2000/svg" viewBox="0 0 37.34 21.29">
  <path d="m37.27,20.96c-.16.33-.49.33-.89.33-4.74,0-9.49,0-14.23,0-.5,0-.77-.16-.91-.52-.2-.53.2-1.03.85-1.04.91-.01,1.82-.02,2.73,0,.36,0,.46-.11.45-.46-.04-1.02.07-2.04-.14-3.05-.42-1.98-2.21-3.45-4.23-3.45-1.5,0-3.01,0-4.51,0-2.19.01-4.09,1.8-4.27,3.99-.07.87-.02,1.75-.05,2.62-.01.28.12.35.37.34.89,0,1.77,0,2.66,0,.17,0,.34,0,.5.06.33.12.55.4.54.74,0,.34-.21.63-.56.72-.15.04-.31.05-.47.05-4.7,0-9.39,0-14.09,0-.08,0-.17,0-.25,0-.47-.03-.76-.33-.77-.75,0-.45.29-.77.76-.8.34-.02.68-.03,1.02,0,.33.02.41-.11.41-.42,0-.81-.09-1.63.1-2.43.36-1.55,1.24-2.69,2.68-3.38.37-.18.36-.17.08-.48-1.42-1.54-1.88-3.33-1.2-5.32.68-1.99,2.14-3.16,4.21-3.46,1.45-.22,2.79.17,3.95,1.1.31.25.31.24.38-.15C12.86,2.49,15.2.37,17.95.04c3.23-.38,6.42,1.86,6.99,5.25.06.36.18.21.33.09,1.94-1.51,4.47-1.58,6.35-.19,2.57,1.9,2.88,5.52.66,7.83-.29.31-.29.3.09.49,1.79.92,2.71,2.4,2.76,4.41.01.5.01,1,0,1.49,0,.24.09.33.32.32.29-.01.58,0,.87,0,.48,0,.76.12.93.4.12.21.08.67,0,.84Zm-18.61-9.76c2.36.05,4.84-1.81,4.83-4.83,0-2.97-2.41-4.81-4.81-4.82-2.34-.01-4.83,1.77-4.85,4.82-.01,2.96,2.42,4.87,4.83,4.83Zm-13.53-1.83c0,2.02,1.61,3.64,3.61,3.64,2.01,0,3.64-1.62,3.64-3.62,0-2.04-1.6-3.65-3.64-3.66-2-.01-3.62,1.61-3.62,3.63Zm27.07.02c0-2.03-1.58-3.64-3.6-3.65-2-.02-3.65,1.61-3.66,3.61,0,2.02,1.6,3.66,3.59,3.67,2.04,0,3.66-1.59,3.67-3.62Zm-2.05,10.33c1.01,0,2.01-.01,3.02,0,.32,0,.42-.11.41-.42-.02-.56,0-1.12-.01-1.67-.04-1.53-1.43-2.98-2.96-3.03-1.33-.04-2.67,0-4-.01-.28,0-.37.08-.25.37.31.75.44,1.53.42,2.34-.02.68,0,1.36,0,2.04,0,.31.11.39.4.39.99-.01,1.99,0,2.98,0Zm-23,0c1.02,0,2.04,0,3.06,0,.27,0,.36-.09.36-.36-.01-.74,0-1.48,0-2.22-.02-.74.13-1.44.39-2.13.15-.41.15-.42-.3-.42-1.21,0-2.43,0-3.64,0-1.52,0-2.82,1.03-3.17,2.51-.17.74-.05,1.5-.09,2.25-.02.29.1.38.38.38,1.01-.01,2.01,0,3.02,0Zm7.62-8.26c-.32-.33-.66-.56-.94-.94-.17.67-.41,1.19-.69,1.71.5-.32,1.04-.54,1.63-.76Zm9.43.76c-.3-.52-.51-1.07-.71-1.69-.27.39-.62.6-.91.94.58.21,1.12.44,1.62.75Z" fill="#1d1d1b" stroke-width="0"/>
  <path d="m18.68,1.55c2.4.01,4.8,1.86,4.81,4.82,0,3.01-2.47,4.88-4.83,4.83-2.41.04-4.84-1.87-4.83-4.83.01-3.05,2.51-4.83,4.85-4.82Zm-7.74,13.46c-.26.69-.4,1.39-.39,2.13.02.74,0,1.48,0,2.22,0,.27-.09.36-.36.36-1.02-.01-2.04,0-3.06,0-1.01,0-2.01,0-3.02,0-.28,0-.4-.09-.38-.38.04-.75-.09-1.51.09-2.25.35-1.48,1.64-2.5,3.17-2.51,1.21,0,2.43,0,3.64,0,.45,0,.45.02.3.42Zm-2.2-2c-2,0-3.61-1.63-3.61-3.64,0-2.02,1.62-3.64,3.62-3.63,2.04.01,3.64,1.62,3.64,3.66,0,2-1.64,3.62-3.64,3.62Zm16.08,6.71c-.91-.02-1.82-.02-2.73,0,0,0-.02,0-.02,0h-6.75c-.08,0-.15,0-.23,0-.89,0-1.77,0-2.66,0-.25,0-.38-.06-.37-.34.03-.87-.02-1.74.05-2.62.18-2.19,2.08-3.98,4.27-3.99,1.5,0,3.01,0,4.51,0,2.02,0,3.81,1.47,4.23,3.45.21,1.01.1,2.03.14,3.05.01.35-.09.46-.45.46Zm.13-10.38c0-2,1.65-3.62,3.66-3.61,2.02.02,3.6,1.63,3.6,3.65,0,2.03-1.63,3.63-3.67,3.62-1.99,0-3.59-1.65-3.59-3.67Zm8.23,10.38c-1.01-.02-2.01,0-3.02,0s-1.99,0-2.98,0c-.29,0-.41-.08-.4-.39.02-.68,0-1.36,0-2.04.02-.81-.11-1.6-.42-2.34-.12-.29-.03-.37.25-.37,1.33,0,2.67-.03,4,.01,1.52.05,2.92,1.5,2.96,3.03.01.56,0,1.12.01,1.67.01.31-.09.43-.41.42Z" fill="#fff" stroke-width="0"/>
</svg>