<?xml version="1.0" encoding="UTF-8"?>
<svg id="icon" data-name="Capa 1" xmlns="http://www.w3.org/2000/svg" viewBox="0 0 36.87 37.37">
  <path d="m28.99,17.59c-.02-.09-.08-.2-.35-.22-1.43-.09-2.69-.64-3.86-1.67-.34-.3-.7-.58-1.06-.85-.63-.48-1.27-.98-1.81-1.6-.76-.88-1.7-2.26-1.09-4.1.04-.11.02-.13,0-.15-.02-.02-.05-.05-.17.01l-.26.13c-.27.13-.54.26-.81.41-.84.46-1.66.47-2.52.03-.74-.38-1.51-.75-2.25-1.1l-.81-.39c-.13-.06-.21-.1-.27-.1-.04,0-.06.01-.1.04-.06.05-.06.09,0,.26l.02.07c.08.32.17.63.26.95.15.56.31,1.13.45,1.7.23.94,0,1.75-.65,2.33-1.12.98-2.17,2.04-3.14,3.12-.44.5-1,.81-1.66.92-.42.07-.84.14-1.25.22-.21.04-.24.06-.25.12,0,.05.01.07.16.16.09.05.15.09.21.12l.08.04c1.34.74,2.55,1.36,3.71,1.9,1.59.75,3.45,1.59,5.37,2.1.33.09.52.09.61.03.09-.07.14-.27.14-.62v-3.57c0-.25,0-.51,0-.76,0-.69,0-1.4,0-2.1v-.26c.03-.98.06-2,.2-3,0-.04,0-.08.01-.12.01-.19.03-.57.36-.54.34,0,.36.37.38.56,0,.05,0,.09.01.13.2,1.22.25,2.47.29,3.68,0,.26.02.51.03.77.05,1.21.06,2.45.07,3.64,0,.52.01,1.03.02,1.55,0,.29.06.47.16.54.1.07.29.06.56-.02,2.84-.91,5.76-2.22,8.95-4.02.23-.13.26-.22.24-.33Z" fill="#1d1d1b" stroke-width="0"/>
  <path d="m11.34.22C9.9,0,8.42-.01,7.17,0h-.41c-.3,0-.61,0-.91,0-.08,0-.16,0-.25,0-.06,0-.13,0-.19,0-.32,0-.63.02-.89.16C3.35.77,1.98,1.53.77,2.55.24,2.99.07,3.56.24,4.29c.34,1.43,1,2.68,1.99,3.74,2.04,2.2,4.69,3.61,8.59,4.58.28.07.54,0,.76-.18.38-.33.67-.67.89-1.05.21-.36.26-.74.14-1.14l-.04-.15c-.07-.26-.15-.52-.21-.78-.47-1.91-.62-3.53-.46-5.11.07-.66.23-1.29.38-1.91.04-.18.09-.35.13-.53.09-.37.03-.73-.16-1.01-.19-.29-.51-.48-.89-.53Z" fill="#1d1d1b" stroke-width="0"/>
  <path d="m31.9,10.76c1.82-.99,3.21-2.52,4.36-4.8.37-.74.32-1.38-.15-2.04-.82-1.12-1.78-2.12-2.62-2.96-.39-.39-.86-.63-1.4-.7-1.07-.14-2.34-.28-3.58-.25h-.06c-.18,0-.37,0-.55,0-.67,0-1.32.02-1.96.15-.47.1-.7.39-.66.88,0,.12.04.25.08.38.33,1.21.61,2.8-.15,4.38-.04.08-.04.13-.03.15.01.02.07.05.17.06.5.05.94.18,1.35.41.94.54,1.64,1.47,1.86,2.51.2.91,0,1.81-.53,2.54-.04.06-.09.12-.09.14.05.08.13.08.31.07,1.42-.07,2.61-.38,3.65-.94Z" fill="#1d1d1b" stroke-width="0"/>
  <path d="m27.91,13.18c-.09,0-.18,0-.27,0-.07,0-.14,0-.21,0-.16,0-.3.02-.42.09-.6.36-1.23.47-1.84.53-.06,0-.1,0-.12.02.02,0,.06.03.09.05.16.12.31.23.46.34.3.22.6.44.89.67.5.4,1.12.66,1.9.79,1.19.19,2.4.24,3.69.29h.07s.33,0,.33,0c.28,0,.6-.02.91-.05.99-.09,1.73-.25,2.4-.52.37-.15.6-.36.7-.65.55-1.55.51-3.02-.11-4.39-.1-.23-.21-.36-.32-.38-.11-.03-.27.06-.46.23-.56.5-1.11.92-1.69,1.28-1.76,1.09-3.78,1.66-6,1.71Z" fill="#1d1d1b" stroke-width="0"/>
  <path d="m9.15,13.79c-1.28-.28-2.5-.69-3.66-1.22-1.65-.75-2.99-1.66-4.11-2.76-.14-.14-.27-.21-.37-.21-.01,0-.03,0-.04,0-.12.02-.21.17-.26.29C.09,11.35-.12,12.85.07,14.34c.06.47.3.76.77.93,1.15.42,2.42.64,4.02.68,1.02-.04,2.07-.19,3.07-.35.83-.13,1.27-.64,1.69-1.38.04-.08.06-.14.04-.19-.02-.06-.09-.12-.19-.16-.09-.04-.19-.06-.3-.08Z" fill="#1d1d1b" stroke-width="0"/>
  <path d="m21.08,3.03c-.09-.22-.21-.29-.45-.23-1.61.41-3.24.42-4.87,0-.05-.01-.09-.02-.13-.02-.16,0-.22.1-.25.18-.36.87-.91,1.57-1.64,2.35-.11.12-.17.22-.16.29,0,.05.06.13.27.23.82.43,1.64.86,2.47,1.28l1.28.66c.2.11.43.17.71.19h.03c.21-.04.43-.08.61-.18l.74-.42c.98-.56,1.97-1.13,2.95-1.7.12-.07.18-.15.19-.22,0-.07-.05-.14-.14-.22-.71-.54-1.24-1.26-1.61-2.2Z" fill="#1d1d1b" stroke-width="0"/>
  <path d="m24.62,12.57h0c.68,0,1.32-.27,1.81-.76.49-.49.76-1.13.76-1.79,0-.69-.26-1.33-.74-1.81-.49-.49-1.15-.76-1.86-.76s-1.33.27-1.82.76c-.48.49-.75,1.13-.74,1.8,0,1.41,1.17,2.56,2.58,2.56Zm-.95-3.5c.25-.25.6-.39.96-.39h.02c.36,0,.7.16.95.42.24.25.37.58.36.92-.02.72-.63,1.3-1.35,1.3h0c-.72,0-1.33-.61-1.33-1.32,0-.35.14-.68.39-.93Z" fill="#1d1d1b" stroke-width="0"/>
  <g>
    <path d="m13.98,32.5c-.97-.54-1.84-1.31-2.61-2.33-.13-.18-.28-.28-.4-.28-.08,0-.16.04-.23.13-.52.68-1.21,1.21-2.14,1.58-.18.07-.23.17-.17.39.24.86.57,1.6,1,2.24.97,1.44,2.43,2.51,4.52,3.09.25.07.34.01.41-.23.13-.5.35-.96.66-1.36.75-1,1.96-1.4,3.12-1.39.59,0,1.18.11,1.69.31,1.08.44,1.83,1.22,2.2,2.39.09.28.15.36.31.32.11-.03.17-.05.27-.09.21-.07.42-.13.62-.21,2.49-.92,4.05-2.66,4.7-4.96.11-.4.1-.42-.22-.55-.82-.32-1.47-.81-2-1.47-.12-.15-.23-.22-.33-.21-.13.01-.24.16-.32.28-.5.82-1.06,1.43-1.68,1.88-2.79,2-6.26,2.2-9.41.46Z" fill="#1d1d1b" stroke-width="0"/>
    <path d="m10.4,28.87s.05-.11.06-.13c.06.02.09.03.14.04-.06-.02-.09-.03-.14-.05.06-.24.03-.39-.01-.54-.04-.16-.06-.2-.07-.22,0,.01-.03.03-.14.11-.02.02-.03.02-.05.04-.19.14-.39.29-.6.4-.59.32-1.27.39-2.06.21-.17-.04-.2,0-.2,0,0,0-.03.05.02.26.05.25.11.49.17.74.13.51.3.65.75.61.81-.07,1.5-.54,2.15-1.47Z" fill="#1d1d1b" stroke-width="0"/>
    <path d="m28.64,28.78c-.81.18-1.59,0-2.34-.57-.04-.03-.08-.07-.12-.11-.09-.09-.12-.11-.14-.11,0,0,0,0-.01,0-.11.08-.13.26-.13.54,0,.15.05.3.15.44.36.5.77.88,1.23,1.13.4.21.8.29,1.18.23.14-.05.22-.12.27-.2.21-.41.28-.88.35-1.33,0-.02,0-.04,0-.05,0-.01-.03-.02-.07-.02-.12,0-.24.03-.36.05Z" fill="#1d1d1b" stroke-width="0"/>
  </g>
  <path d="m9.43,20.87c-.35-.19-.79.07-.79.47.01,1.2.76,2.77,1.74,4.36,1.08,1.76,2.21,3.12,4.47,4.76s4.79,1.43,6.96.07c2.84-1.78,6.15-6.96,6.44-9.37.05-.39-.38-.69-.71-.47-1.81,1.19-5.69,3.19-8.98,3.21-3.51.02-5.13-.88-9.13-3.02Z" fill="#1d1d1b" stroke-width="0"/>
</svg>
