<?xml version="1.0" encoding="UTF-8"?>
<svg id="icon" data-name="Capa 1" xmlns="http://www.w3.org/2000/svg" viewBox="0 0 23.31 38.02">
  <path d="m23.19,36.71c-.18.46-.54,1.02-1.74,1.26-.14.03-.29.03-.43.05h-.22c-.64-.05-1.18-.27-1.69-.72-5.8-5.03-11.59-10.05-17.39-15.07-.94-.81-1.45-1.58-1.63-2.46-.27-1.42.13-2.61,1.23-3.6,1.98-1.77,4-3.52,6.01-5.24l2.96-2.57c2.97-2.57,5.93-5.15,8.9-7.7.51-.43,1.15-.66,1.79-.66.58,0,1.15.18,1.61.53.42.3.66.69.7,1.09.05.42-.1.83-.42,1.21l-10.98,13.44c-1.42,1.74-1.42,3.76.03,5.51l3.12,3.82c2.56,3.15,5.13,6.28,7.7,9.41.7.83.61,1.31.45,1.69Z" fill="#1d1d1b" stroke-width="0"/>
</svg>
