<?xml version="1.0" encoding="UTF-8"?>
<svg id="icon" data-name="Capa 1" xmlns="http://www.w3.org/2000/svg" viewBox="0 0 38.29 38.11">
  <path d="m34.43,24.3c.54-.67.47-1.61-.17-2.19-.61-.56-1.58-.53-2.18.07-.52.51-1.04,1.03-1.55,1.55-.13.14-.23.16-.38.02-.32-.33-.65-.64-.97-.97-.56-.57-1.09-1.16-1.66-1.72-5.43-5.41-10.87-10.82-16.3-16.23-.58-.58-1.14-1.19-1.72-1.77-.72-.73-1.46-1.45-2.18-2.18-.28-.28-.61-.44-1.01-.47-.42-.04-.84-.07-1.27-.1C3.79.2,2.52.12,1.25.01.49-.06.21.19.25.95c.09,1.61.2,3.22.27,4.83.03.64.24,1.15.69,1.61,7.5,7.48,14.99,14.97,22.48,22.46.11.11.24.19.39.32-.13.13-.19.21-.26.28-.51.52-1.05,1.02-1.54,1.55-.47.51-.54,1.25-.21,1.84.31.56.95.86,1.63.79.45-.05.77-.32,1.07-.62,3.08-3.08,6.16-6.15,9.24-9.23.15-.15.29-.3.42-.46Zm-9.2,4.65c-.06-.05-.14-.12-.21-.2C17.49,21.23,9.97,13.71,2.44,6.19c-.14-.14-.19-.28-.2-.47-.07-1.27-.15-2.54-.23-3.8,0-.03,0-.05.02-.12.21,0,.42.01.63.03,1.1.08,2.19.17,3.29.26.12.01.26.08.35.16.39.37.76.77,1.15,1.14.58.57,1.18,1.13,1.76,1.7.37.37.72.77,1.09,1.15.26.27.53.53.79.8,4.99,4.98,9.97,9.97,14.96,14.95.4.4.83.77,1.22,1.17.39.39.76.81,1.15,1.2.24.24.49.47.71.68-1.32,1.32-2.6,2.61-3.91,3.91Z" stroke-width="0"/>
  <path d="m21.88,12.47c3.39-3.39,6.78-6.78,10.17-10.18.14-.14.29-.21.49-.22.83-.05,1.65-.13,2.48-.19.44-.03.89-.06,1.35-.09,0,.2,0,.36,0,.52-.06,1.05-.14,2.11-.18,3.16-.01.37-.14.64-.4.89-3.36,3.34-6.71,6.7-10.07,10.05-.06.06-.11.12-.22.23.34.33.67.62.97.94.18.19.28.22.49.01,3.38-3.4,6.77-6.79,10.18-10.17.47-.46.7-.97.73-1.62.08-1.61.19-3.22.29-4.83.05-.73-.22-1.01-.94-.96-1.66.12-3.32.26-4.99.37-.53.04-.94.26-1.3.62-3.43,3.43-6.86,6.86-10.29,10.29-.07.07-.13.14-.18.2.41.4.8.78,1.24,1.21.04-.06.1-.16.17-.23Z" stroke-width="0"/>
  <path d="m16.75,25.37c-1.19,1.2-2.38,2.4-3.55,3.58-1.31-1.32-2.6-2.62-3.92-3.95,1.16-1.16,2.36-2.35,3.54-3.52-.39-.4-.77-.79-1.18-1.21-1.19,1.2-2.38,2.4-3.59,3.62-.1-.1-.18-.17-.26-.24-.51-.5-1-1.01-1.52-1.5-.45-.43-.99-.55-1.58-.36-1.15.38-1.47,1.78-.61,2.65,3.15,3.16,6.31,6.31,9.46,9.46.13.13.26.27.41.39.76.6,1.88.39,2.36-.45.34-.59.28-1.32-.19-1.84-.5-.54-1.03-1.06-1.55-1.58-.07-.07-.13-.14-.24-.26,1.22-1.2,2.42-2.39,3.59-3.56-.39-.41-.77-.8-1.18-1.22Z" stroke-width="0"/>
  <path d="m6.22,29.78c-.77.77-1.55,1.54-2.31,2.31h-2c-1.05,0-1.91.85-1.91,1.91v2.2c0,1.05.85,1.91,1.91,1.91h2.2c1.05,0,1.91-.85,1.91-1.91v-1.73s0-.02.02-.02c.82-.81,1.64-1.63,2.45-2.44.07-.07.13-.14.18-.19-.75-.75-1.48-1.48-2.23-2.24-.07.07-.15.14-.22.21Z" stroke-width="0"/>
  <path d="m36.38,32.09h-1.87c-.82-.83-1.66-1.66-2.49-2.49-.07-.07-.14-.13-.2-.18-.75.75-1.48,1.48-2.27,2.27.08.06.16.11.23.18.83.82,1.64,1.66,2.48,2.47v1.86c0,1.05.85,1.91,1.91,1.91h2.2c1.05,0,1.91-.85,1.91-1.91v-2.2c0-1.05-.85-1.91-1.91-1.91Z" stroke-width="0"/>
</svg>
