<?xml version="1.0" encoding="UTF-8"?>
<svg id="Capa_1" data-name="Capa 1" xmlns="http://www.w3.org/2000/svg" viewBox="0 0 35.87 35.98">
  <path d="m0,20.23c.06-2.62.37-5.52.84-8.39.53-3.24,1.25-6.44,2.18-9.59.21-.73.49-.85,1.19-.52,3.66,1.71,7.35,1.68,11.04.14,1.05-.44,2.04-1.05,3.04-1.61.66-.38.75-.38,1.02.35.6,1.6,1.49,3,2.76,4.15,1.63,1.47,3.57,2.29,5.7,2.72,1.35.27,2.71.36,4.08.31.19,0,.38-.02.58-.01.26.01.41.08.35.42-.93,5.02-2.66,9.76-4.96,14.3-.8,1.59-1.74,3.12-2.59,4.68-.55,1.01-1.35,1.75-2.29,2.39-3.01,2.02-6.31,3.35-9.84,4.15-1.32.3-2.66.46-4,.69-.33.06-.61-.04-.86-.25-3.2-2.69-5.74-5.9-7.71-9.58C.17,23.94,0,23.26,0,22.54c0-.67,0-1.34,0-2.31Zm12.57-8.22c-.77.11-1.55.17-2.31.33-2.09.43-3.98,1.35-5.82,2.4-.44.25-.63.55-.51.84.16.42.52.36.86.32.34-.05.54.08.67.39.21.47.42.94.67,1.39,1.86,3.32,5.43,5.1,9.16,4.58,1.67-.23,3.2-.8,4.63-1.67.63-.38.98-.29,1.37.33.14.22.3.44.48.62.25.26.58.28.85.11.28-.18.37-.47.22-.82-.89-2.09-1.97-4.05-3.54-5.71-1.82-1.93-4.02-3.03-6.72-3.1Zm-.46,13.21c0-.6-.33-.99-.79-1.05-.44-.06-.79.21-.91.73-.3,1.28-.62,2.56-.89,3.85-.11.52-.15,1.06-.17,1.6,0,.15.15.38.29.44.11.04.35-.08.45-.2.22-.28.45-.58.57-.91.45-1.26.87-2.53,1.29-3.8.08-.25.12-.51.16-.65ZM4.5,5.82c.21.77.37,1.56.65,2.3.26.69.63,1.34,1,1.97.1.17.38.31.59.33.58.04.97-.6.7-1.18-.6-1.26-1.25-2.5-1.89-3.75-.13-.25-.29-.45-.62-.35-.33.1-.39.35-.43.68Zm23.6,7.61c-1.53.16-3.01.49-4.45,1.05-.24.09-.47.29-.63.5-.24.33-.09.68.31.76.23.05.48.07.71.05,1.54-.18,2.96-.72,4.32-1.45.23-.13.44-.28.34-.59-.09-.3-.33-.34-.61-.32Zm-12.75-4.42c.1.14.18.39.34.44.16.05.41-.06.56-.17.15-.1.25-.29.34-.46.66-1.21,1.02-2.53,1.37-3.84.1-.37-.16-.78-.5-.9-.37-.13-.7,0-.9.37-.1.19-.18.39-.23.6-.18.69-.36,1.39-.53,2.09-.15.59-.29,1.19-.45,1.86Z" fill="#1d1d1b" stroke-width="0"/>
  <path d="m35.87,11.63c-.22,1.01-.41,2.03-.67,3.02-1.21,4.78-3.32,9.17-5.88,13.36-.24.39-.49.77-.7,1.17-.17.31-.38.35-.65.17-.41-.27-.8-.57-1.19-.86-.22-.16-.15-.34-.04-.54.35-.6.69-1.21,1.03-1.81,3.01-5.26,5.21-10.84,6.55-16.76.03-.12.11-.22.17-.33.09.09.21.17.27.29.31.57.61,1.14.9,1.72.09.18.14.38.21.58Z" fill="#1d1d1b" stroke-width="0"/>
  <path d="m11.46,35.68c.26-.04.52-.09.79-.13,4.81-.73,9.24-2.37,13.06-5.46.26-.21.48-.23.72,0,.19.18.4.35.59.52.36.32.35.53-.03.84-1.84,1.48-3.87,2.6-6.09,3.38-2.85,1-5.77,1.35-8.77.98-.09-.01-.17-.04-.26-.05,0-.03,0-.06,0-.09Z" fill="#1d1d1b" stroke-width="0"/>
  <path d="m14.87,15.72c-.11,1.03-.3,2.03-.79,2.94-.19.35-.43.69-.69,1-.36.42-.78.34-.99-.19-.24-.63-.2-1.27-.07-1.91.18-.94.56-1.8,1.1-2.59.09-.13.19-.25.32-.34.39-.28.82-.16.98.29.09.25.1.54.14.8Z" fill="#1d1d1b" stroke-width="0"/>
</svg>