<?xml version="1.0" encoding="UTF-8"?>
<svg id="Capa_1" data-name="Capa 1" xmlns="http://www.w3.org/2000/svg" viewBox="0 0 32.12 22.04">
  <path d="m5.66,17.36c-.74-.6-1.48-1.16-2.18-1.77-1.29-1.13-2.37-2.44-3.29-3.89-.26-.4-.26-.8,0-1.2C3.19,5.88,7.36,3.01,12.79,2.01c3.78-.69,7.43-.19,10.94,1.38.24.11.39.07.59-.08,1.37-1.05,2.75-2.08,4.13-3.12.38-.29.58-.26.87.1.2.25.39.5.59.75.28.37.26.54-.11.82-1.42,1.07-2.84,2.14-4.25,3.21-7.36,5.54-14.72,11.08-22.07,16.62-.1.07-.2.15-.3.22-.25.19-.48.15-.67-.1-.22-.28-.43-.57-.64-.85-.3-.4-.28-.55.12-.85,1.14-.85,2.28-1.7,3.41-2.55.1-.07.19-.15.27-.21Zm4.79-3.61c3.25-2.45,6.46-4.88,9.68-7.32-1.92-1.77-5.25-2.26-7.83-.32-2.64,1.99-3.02,5.35-1.86,7.64Z" stroke-width="0"/>
  <path d="m9.35,19.19c.51-.38.98-.73,1.44-1.09.65-.49,1.29-.97,1.93-1.46.17-.13.29-.14.49-.04,3.66,1.87,8.04-.21,8.92-4.23.18-.84.16-1.68.01-2.52-.02-.11.03-.29.12-.36,1.7-1.3,3.42-2.59,5.19-3.92.61.55,1.25,1.08,1.84,1.66,1.02,1,1.88,2.12,2.65,3.32.24.37.25.72,0,1.09-3.01,4.62-7.2,7.5-12.63,8.49-3.26.6-6.46.32-9.58-.8-.11-.04-.22-.09-.38-.15Z" stroke-width="0"/>
</svg>