<?xml version="1.0" encoding="UTF-8"?>
<svg id="Capa_1" data-name="Capa 1" xmlns="http://www.w3.org/2000/svg" viewBox="0 0 37.05 37.06">
  <path d="m31.14,30.01c-.27-1.52-.1-2.94-.02-4.36.06-1.17.05-2.35-.03-3.53-.1-1.49-.29-2.96-.6-4.43-1.16-5.57-6.03-10.26-11.6-11.24-2.36-.42-4.72-.62-7.1-.55-1.07.03-2.13.16-3.2.16-.41,0-.81-.13-1.25-.07.07.21.24.32.37.45,3.46,3.44,6.91,6.88,10.36,10.32.26.26.41.25.66,0,1.22-1.24,2.45-2.47,3.69-3.69.66-.65,1.61-.47,1.89.36.17.49-.03.88-.37,1.22-1.2,1.2-2.39,2.41-3.61,3.6-.3.29-.31.45,0,.74.74.69,1.45,1.42,2.16,2.14.41.42.45.98.15,1.43-.26.4-.77.56-1.23.42-.23-.07-.4-.23-.57-.4-.72-.71-1.45-1.41-2.17-2.13-.2-.2-.32-.21-.53,0-2.11,2.13-4.24,4.25-6.36,6.37-.18.18-.24.36-.19.62.09.57.06,1.15.03,1.72-.02.35-.17.66-.44.9-.89.81-1.78,1.62-2.68,2.43-.16.15-.35.24-.56.1-.2-.13-.21-.32-.16-.55.12-.55.21-1.1.19-1.67-.03-.79-.5-1.26-1.3-1.29-.57-.03-1.12.07-1.67.19-.22.05-.41.03-.54-.17-.14-.21-.04-.39.11-.56.81-.89,1.62-1.79,2.43-2.68.25-.28.58-.43.94-.44.57-.02,1.15-.06,1.72.04.25.04.41-.03.58-.2,2.12-2.12,4.24-4.25,6.37-6.36.29-.28.1-.41-.08-.58-3.05-3.03-6.11-6.05-9.16-9.08C5.09,6.98,2.82,4.72.55,2.46.26,2.17.02,1.86,0,1.43-.02.86.21.42.72.15c.5-.26,1.06-.19,1.49.2.59.54,1.18,1.06,1.84,1.52,1.83,1.26,3.85,1.68,6.05,1.48,1.59-.15,3.19-.16,4.8-.06,1.82.12,3.62.33,5.39.76,2.64.65,4.99,1.86,7.07,3.61.14.12.24.26.44.06.82-.83,1.64-1.65,2.5-2.5-.43-.24-.87-.21-1.29-.29-.36-.06-.73-.08-1.1-.09-.31-.01-.56-.1-.59-.43-.03-.37.2-.55.54-.6.72-.12,1.42-.3,2.11-.51,1.66-.48,3.27-1.09,4.84-1.81.26-.12.51-.23.76,0,.25.24.13.5.01.75-1.01,2.25-1.86,4.56-2.32,7-.06.32-.25.54-.59.5-.33-.03-.43-.28-.44-.59-.03-.7-.1-1.39-.24-2.08-.02-.09-.02-.22-.11-.25-.11-.05-.16.08-.23.14-.75.74-1.49,1.49-2.24,2.23-.17.17-.19.29-.02.48,2.41,2.83,3.69,6.13,4.14,9.8.23,1.87.36,3.73.3,5.61-.03.92-.12,1.83-.15,2.74-.1,2.38.78,4.41,2.31,6.19.22.26.46.51.69.76.51.57.52,1.38.01,1.89-.52.52-1.36.51-1.92-.04-1.7-1.67-3.4-3.34-5.1-5.01-.98-.96-1.97-1.9-2.94-2.87-.66-.67-.45-1.64.4-1.9.46-.14.83.04,1.15.35.83.81,1.67,1.63,2.5,2.44.1.09.2.19.38.36Z" stroke-width="0"/>
  <path d="m24.63,23.77c.59-.01,1.09.48,1.12,1.08.02.56-.48,1.08-1.05,1.1-.61.02-1.1-.45-1.11-1.06-.01-.62.45-1.11,1.05-1.12Z" stroke-width="0"/>
</svg>