<?xml version="1.0" encoding="UTF-8"?>
<svg id="icon" data-name="Capa 1" xmlns="http://www.w3.org/2000/svg" viewBox="0 0 23.64 38.38">
  <path d="m12.81,26c0-.73,0-1.45,0-2.18,0-.3.09-.47.4-.57,3.35-1.13,6.7-2.27,10.05-3.41.12-.04.27-.17.37-.03.07.1-.06.23-.12.33-3.53,5.83-7.06,11.67-10.59,17.5-.41.68-.91.88-1.5.65-.28-.11-.45-.34-.61-.59-2-3.3-4-6.59-6-9.89-1.54-2.55-3.09-5.09-4.63-7.64-.07-.11-.22-.25-.15-.36.11-.15.28,0,.41.04,3.32,1.13,6.65,2.26,9.97,3.38.36.12.45.31.45.66-.01,1.47-.02,2.94,0,4.41.01.77.76,1.22,1.42.88.35-.18.53-.47.53-.86,0-.77,0-1.54,0-2.31,0,0,0,0,0,0Z" stroke-width="0"/>
  <path d="m12.81,10.56c0-3.38,0-6.75,0-10.13,0-.05,0-.11,0-.16,0-.09-.03-.22.08-.26.12-.05.14.09.2.16.03.03.04.07.06.11,3.37,5.63,6.74,11.25,10.11,16.88.27.45.27.46-.24.64-3.21,1.09-6.41,2.19-9.62,3.28-.58.2-.59.19-.59-.43,0-3.36,0-6.73,0-10.09h0Z" stroke-width="0"/>
  <path d="m10.76.06c.14.12.09.28.09.42,0,6.74,0,13.48,0,20.22,0,.54-.02.56-.53.38-3.25-1.11-6.49-2.22-9.74-3.32-.32-.11-.41-.22-.21-.55C3.74,11.6,7.12,5.98,10.5.35c.07-.11.09-.26.26-.29Z" stroke-width="0"/>
</svg>
