<?xml version="1.0" encoding="UTF-8"?>
<svg id="Capa_1" data-name="Capa 1" xmlns="http://www.w3.org/2000/svg" viewBox="0 0 38.31 38.46">
  <path d="m18.38,1.26c-.16,2.42-.32,4.84-.48,7.25-.07,1.09-.14,2.18-.2,3.27-.04.85-.2,1.07-1.03,1.33-3.22,1-4.98,4.53-3.87,7.74.27.77.18,1.04-.47,1.52-.2.15-.41.3-.61.46-.3.24-.34.55-.15.87.18.31.48.39.81.25.46-.19.9-.41,1.35-.62.32-.15.58-.12.86.11.33.27.69.49,1.04.73.4.26.5.53.26.92-1.99,3.33-3.99,6.66-5.99,9.98-.33.54-.82.64-1.34.3-1.99-1.31-3.69-2.92-5.08-4.84-.4-.55-.29-1.04.32-1.43,1.79-1.14,3.59-2.27,5.39-3.41.13-.08.27-.16.39-.25.27-.2.37-.46.21-.78-.16-.31-.44-.4-.76-.3-.24.07-.47.19-.71.29-1.85.77-3.71,1.54-5.56,2.31-.8.33-1.28.14-1.54-.69-.42-1.33-.81-2.68-1.17-4.03-.2-.73.15-1.18.9-1.28,1.98-.26,3.96-.52,5.94-.78.56-.07.9-.38.95-.87.04-.44-.24-.82-.76-.99-2.01-.64-4.01-1.27-6.02-1.91-.79-.25-.95-.52-.78-1.31.29-1.43.77-2.8,1.39-4.13.32-.69.79-.84,1.45-.47,2.51,1.39,5.02,2.8,7.53,4.2.62.34.76.31,1.15-.26.18-.26.36-.51.55-.76.31-.41.28-.65-.12-.98-2.22-1.79-4.43-3.58-6.65-5.37-.75-.61-.82-1.1-.1-1.74.99-.87,2.01-1.7,3.06-2.5.66-.5,1.07-.39,1.56.3,1.51,2.11,3.02,4.22,4.53,6.32.07.09.12.2.21.26.07.05.19.05.27.02.05-.02.08-.15.07-.22-.02-.12-.08-.24-.13-.36-.97-2.29-1.94-4.58-2.91-6.87-.37-.88-.19-1.28.7-1.58C14.22.49,15.67.2,17.15.02c.71-.09,1.35.18,1.23,1.25Zm-7.3,27.16c-.15-.2-.27-.49-.47-.58-.22-.09-.57-.09-.78.03-.33.18-.6.47-.86.74-.29.3-.27.75,0,1.04.25.26.7.32,1,.09.3-.23.59-.49.85-.77.12-.12.16-.32.27-.56Z" stroke-width="0"/>
  <path d="m18.59,24.87c.89.01,1.74-.19,2.54-.59.43-.22.79-.18,1.16.15,1.67,1.47,3.35,2.93,5.03,4.39.05.05.1.12.16.14.19.04.42.13.56.05.24-.14.18-.38.02-.59-.78-1.01-1.57-2.01-2.35-3.02-.63-.8-1.25-1.61-1.88-2.41-.29-.37-.33-.72-.1-1.13.68-1.21.95-2.5.72-3.89-.08-.48.09-.84.49-1.13,3.23-2.31,6.45-4.63,9.67-6.94.68-.49,1.19-.36,1.58.39,1.15,2.19,1.83,4.53,2.1,6.99.11.98-.2,1.29-1.19,1.36-2.49.18-4.97.38-7.46.57-.25.02-.52-.02-.76.05-.19.05-.33.24-.5.36.14.15.26.38.43.43,1.63.46,3.27.88,4.91,1.31,1.13.3,2.27.6,3.4.91.69.19.91.57.76,1.26-.75,3.27-2.27,6.14-4.51,8.63-.48.54-.97.55-1.5.03-.52-.51-1.03-1.01-1.54-1.53-.23-.23-.48-.34-.75-.11-.29.25-.2.52,0,.78.47.59.93,1.18,1.39,1.78.41.54.36,1.02-.2,1.42-.73.52-1.47,1.01-2.23,1.47-.6.37-1.06.22-1.42-.4-1.15-2.02-2.29-4.04-3.44-6.05-.05-.09-.1-.17-.14-.26-.15-.28-.4-.38-.68-.25-.29.12-.36.37-.26.67.2.62.39,1.24.59,1.86.51,1.62,1.03,3.23,1.54,4.85.27.85.06,1.27-.82,1.45-1.12.23-2.25.43-3.38.57-.94.12-1.29-.3-1.21-1.24.19-2.43.36-4.86.54-7.29.06-.78.13-1.55.17-2.33.05-.79-.22-1.11-1-1.25-.15-.03-.31-.03-.46-.05-.48-.06-.83-.38-.9-.82-.06-.42.11-.61.52-.6.14,0,.28,0,.43,0Zm14.53,1.27c-.04-.08-.11-.3-.25-.43-.28-.25-.6-.48-.92-.68-.34-.21-.75-.12-.99.18-.25.32-.23.75.09,1.03.29.25.59.48.92.68.53.31,1.14-.05,1.14-.78Z" stroke-width="0"/>
  <path d="m21.59.09c1.42.18,2.89.54,4.33,1.09,1.52.57,2.94,1.33,4.26,2.26.66.46.73.93.25,1.58-1.9,2.56-3.8,5.12-5.71,7.67-.36.48-.5.92-.15,1.47.22.35.18.74-.07,1.08-.3.4-.82.44-1.13.05-.65-.81-1.42-1.46-2.35-1.91-.33-.16-.42-.46-.43-.82-.04-3.13-.1-6.26-.14-9.4,0-.72.01-1.45.05-2.17.03-.62.38-.92,1.1-.9Zm3.13,6.97c.03-.49-.22-.82-.62-.9-.37-.08-.76.17-.86.58-.09.37-.16.75-.21,1.12-.05.39.22.74.58.82.4.09.79-.13.89-.53.1-.38.15-.78.22-1.09Z" stroke-width="0"/>
</svg>