<?xml version="1.0" encoding="UTF-8"?>
<svg id="icon" data-name="Capa 1" xmlns="http://www.w3.org/2000/svg" viewBox="0 0 39.74 33.07">
  <path d="m8.72,24.54c.48.99,1.17,1.16,2.08.52,1.94-1.37,4.13-2.05,6.47-2.29,2.01-.21,3.99-.04,5.96.33.21.04.55,0,.66-.15.11-.13.05-.47-.04-.67-.46-.97-.97-1.93-1.45-2.89-2.11-4.16-4.21-8.32-6.31-12.48-.23-.45-.52-.75-1.05-.81-.85-.09-1.7-.21-2.38-.29-.83.06-1.47.08-2.11.17-3.01.44-5.53,1.83-7.67,3.96-.64.64-.7,1-.3,1.83,2.04,4.25,4.09,8.51,6.13,12.76Zm10.19-6.03c-.08.4-.44.63-.9.53-1.54-.32-3.07-.29-4.56.25-.38.14-.74.33-1.1.52-.5.27-.91.22-1.15-.16-.25-.4-.1-.81.42-1.12,1.38-.81,2.88-1.14,4.78-1.19.43.06,1.17.14,1.9.27.48.08.7.45.62.89Zm-10.88-8.24c1.31-.86,2.75-1.31,4.62-1.35.34.06.97.15,1.59.29.48.11.71.51.6.91-.12.42-.48.62-.96.5-1.82-.46-3.49-.11-5.05.89-.43.28-.88.21-1.11-.16-.24-.38-.13-.78.32-1.08Zm-.07,4.83c.64-.47,1.3-.94,2.01-1.3,1.92-.95,3.95-1.11,6.04-.65.34.08.68.21.71.6.01.23-.1.5-.23.7-.08.12-.29.15-.38.19-.5-.08-.91-.16-1.33-.21-2.1-.26-3.97.33-5.65,1.59-.08.06-.16.13-.24.19-.43.34-.82.33-1.12-.02-.29-.35-.25-.77.19-1.1Z" stroke-width="0"/>
  <path d="m36.61,14.79c.8-.16,1.11-.99.68-1.72-2.36-4-4.73-8.01-7.1-12.01-.29-.49-.71-.82-1.27-.93-.35-.07-.73-.05-1.09-.07,0-.02,0-.04-.01-.06-.9.14-1.82.22-2.71.43-3,.69-5.38,2.36-7.33,4.7-.43.52-.48.98-.17,1.59,2.06,4.02,4.09,8.05,6.13,12.08.53,1.04,1.05,2.08,1.58,3.11.24.47.58.5.91.08.04-.05.07-.09.11-.14,2.61-3.54,5.86-6.14,10.27-7.06Zm-14.51-6.02c-.21-.16-.5-.27-.59-.47-.09-.22-.1-.6.04-.76,1.02-1.24,2.26-2.23,3.79-2.78.38-.13.77.07.91.4.15.37,0,.8-.39.95-1.27.49-2.29,1.31-3.18,2.31-.12.14-.34.2-.58.34Zm1.8,3.54c-.24-.2-.48-.32-.61-.52-.2-.28-.1-.59.11-.85.9-1.14,1.95-2.1,3.25-2.74.6-.29,1.24-.5,1.88-.69.42-.13.79.12.89.49.11.41-.1.8-.54.91-1.8.43-3.16,1.51-4.31,2.9-.15.19-.4.3-.66.49Zm2.67,3.63c-.16.35-.43.5-.81.45-.35-.04-.56-.27-.6-.6-.02-.2.05-.43.15-.62,1.12-2.19,2.91-3.46,5.32-3.88.3-.05.61-.08.8-.1.2,0,.29,0,.37,0,.42.02.7.27.73.66.03.41-.24.69-.66.78-.84.17-1.7.27-2.49.57-1.29.5-2.22,1.46-2.81,2.73Z" stroke-width="0"/>
  <path d="m24.78,25.24c-1.69-.46-3.41-.77-5.17-.82-2.93-.08-5.67.48-8.11,2.22-.41.3-.99.47-1.5.5-1.27.06-2.2-.56-2.76-1.7-1.87-3.88-3.74-7.77-5.6-11.66-.14-.29-.29-.55-.65-.56-.4-.02-.61.23-.79.53-.33.55-.2,1.08.06,1.62,2.68,5.55,5.36,11.09,8.04,16.64.61,1.25,1.69,1.41,2.65.4,2.73-2.92,6.14-4.42,10.06-4.79,1.46-.13,2.94-.02,4.37-.02.57.02.83-.18.81-.6-.03-.64-.78-1.59-1.4-1.75Z" stroke-width="0"/>
  <path d="m39.01,18.57c.63-.03.92-.54.58-1.06-.28-.43-.58-.84-.89-1.25-.21-.29-.48-.32-.81-.18-.43.18-.87.33-1.31.47-.77.26-1.57.44-2.31.77-3.1,1.36-5.35,3.67-7.19,6.45-.36.55-.44,1.01-.05,1.54.13.17.2.39.3.58.33.64.76.65,1.27.18.76-.7,1.52-1.43,2.38-1.96,2.2-1.36,4.68-1.79,7.23-1.85.43,0,.82-.08,1.05-.48.24-.42.05-.78-.18-1.14-.41-.63-.8-1.28-1.22-1.94.18-.04.3-.08.43-.09.23-.02.47-.02.7-.03Z" stroke-width="0"/>
</svg>
