<?xml version="1.0" encoding="UTF-8"?>
<svg id="Capa_1" data-name="Capa 1" xmlns="http://www.w3.org/2000/svg" viewBox="0 0 34.97 39.23">
  <path d="m16.55,0c.69,0,.02,4.73,2.78,7.3,2.58,2.41,6.8,1.64,6.82,2.26.02.64-4.48.13-7.1,2.86-2.59,2.69-1.95,7.1-2.58,7.1-.66,0,0-4.77-2.78-7.42-2.58-2.46-6.83-1.84-6.82-2.38,0-.53,4.04.17,6.62-2.1C16.45,5.01,15.84,0,16.55,0Z" stroke-width="0"/>
  <path d="m23.49,15.88c.83,0,.02,5.66,3.32,8.73,3.09,2.88,8.14,1.96,8.16,2.7.03.76-5.36.16-8.49,3.42-3.1,3.22-2.33,8.49-3.08,8.49-.78,0,.01-5.71-3.32-8.87-3.09-2.94-8.17-2.2-8.16-2.85,0-.63,4.83.21,7.92-2.52,3.53-3.11,2.8-9.12,3.65-9.11Z" stroke-width="0"/>
  <path d="m6.9,15.88c.49,0,.01,3.37,1.98,5.2,1.84,1.72,4.85,1.17,4.86,1.61.02.45-3.2.1-5.06,2.04-1.85,1.92-1.39,5.06-1.84,5.06-.47,0,0-3.4-1.98-5.29C3.02,22.76,0,23.2,0,22.81c0-.38,2.88.12,4.72-1.5,2.11-1.85,1.67-5.43,2.18-5.43Z" stroke-width="0"/>
</svg>