<?xml version="1.0" encoding="UTF-8"?>
<svg id="icon" data-name="Capa 1" xmlns="http://www.w3.org/2000/svg" viewBox="0 0 22.94 39.26">
  <path d="m21.89,16.4c-1.66-.91-3.33-1.82-4.99-2.73-.99-.54-1.08-1.08-.36-1.97,2-2.45,3.99-4.9,6-7.35.35-.43.59-.87.24-1.4-.34-.52-.83-.51-1.37-.36-3.6.98-7.2,1.94-10.8,2.9-.91.24-1.25.06-1.55-.81-.43-1.23-.84-2.45-1.27-3.68-.37-1.06-.91-1.27-1.88-.73-.65.36-1.29.73-1.96,1.11L0,3.67v7.9c1.24-1.04,2.36-1.98,3.5-2.9.17-.13.49-.24.66-.16.16.07.29.39.3.6.04.76,0,1.53.02,2.29,0,.67.23.84.89.65,1.01-.29,2.01-.6,3.02-.9.64-.19.9.07.73.72-.26.95-.5,1.91-.81,2.85-.18.54,0,.8.47,1.02,1.01.47,2.01.96,3,1.47.21.11.51.36.5.52-.02.22-.26.49-.48.62-.97.59-1.96,1.14-2.96,1.69-.4.22-.55.47-.4.95.26.82.47,1.67.66,2.51.06.25.06.6-.07.78-.1.13-.49.1-.72.04-.99-.27-1.97-.58-2.96-.87-.62-.18-.84-.02-.85.62,0,.74.02,1.49-.01,2.23-.01.24-.11.58-.28.68-.16.09-.47-.08-.7-.18-.15-.06-.26-.2-.38-.31-.99-.83-1.99-1.65-3.08-2.56v8.57l4.49,3.78c1.05.87,2.1,1.75,3.14,2.63.38.32.79.46,1.25.23.44-.22.54-.62.54-1.09-.01-2.27,0-4.55,0-6.82,0-1.11.42-1.49,1.49-1.31,2.88.5,5.77,1,8.65,1.52.55.1,1.04.11,1.37-.4.34-.53.08-.97-.24-1.41-1.47-2-2.92-4-4.38-6.01-.58-.8-.48-1.29.37-1.83,1.76-1.12,3.52-2.24,5.27-3.36.99-.63.96-1.47-.06-2.03Z" stroke-width="0"/>
  <path d="m11.75,17.22c-.99-.51-1.99-1-3-1.47-.47-.22-.64-.48-.47-1.02.31-.94.55-1.9.81-2.85.18-.65-.08-.91-.73-.72-1.01.29-2.01.6-3.02.9-.66.19-.88.03-.89-.65,0-.76.02-1.53-.02-2.29,0-.21-.14-.53-.3-.6-.16-.07-.49.03-.66.16C2.36,9.59,1.24,10.54,0,11.57v12.37s0,0,0,0c1.1.91,2.09,1.74,3.08,2.56.13.11.24.25.38.31.23.1.54.26.7.18.17-.09.27-.44.28-.68.03-.74,0-1.49.01-2.23,0-.64.22-.8.85-.62.99.29,1.97.6,2.96.87.23.06.62.09.72-.04.14-.18.13-.53.07-.78-.19-.84-.4-1.68-.66-2.51-.15-.48,0-.73.4-.95.99-.55,1.98-1.1,2.96-1.69.22-.13.46-.39.48-.62.02-.16-.28-.41-.5-.52Z" fill="#fff" stroke-width="0"/>
</svg>
