<?xml version="1.0" encoding="UTF-8"?>
<svg id="icon" data-name="Capa 1" xmlns="http://www.w3.org/2000/svg" viewBox="0 0 39.00 36.89">
  <path d="m36.82,30.3c.03-.21.05-.42.06-.64,0-.14.04-.28.04-.42v-8.08c0-.69,0-1.4-.02-2.11,0-3.84.02-7.67,0-11.52,0-.58-.06-1.18-.23-1.75-.86-3.45-3.85-5.78-7.45-5.78H7.56c-.09,0-.18.02-.27.02-.46.02-.88.07-1.27.15-.07.02-.13.05-.2.06-.3.07-.6.17-.89.28-.09.04-.19.07-.28.11-.27.12-.53.25-.78.4C2.16,1.97.93,3.5.36,5.37c-.08.24-.14.49-.19.74-.03.16-.05.32-.08.48-.03.21-.05.42-.06.64,0,.14-.04.28-.04.42v8.08c0,.69,0,1.4.02,2.11,0,3.84-.02,7.67,0,11.52,0,.58.06,1.18.23,1.75.86,3.45,3.85,5.78,7.45,5.78h21.66c.09,0,.18-.02.27-.02.46-.02.88-.07,1.27-.15.07-.02.13-.05.2-.06.3-.07.6-.17.89-.28.09-.04.19-.07.28-.11.27-.12.53-.25.78-.4,1.69-.95,2.92-2.49,3.49-4.35.08-.24.14-.49.19-.74.03-.16.06-.32.08-.49Zm-29.61.58c-.49-.12-1.24-.66-1.24-1.81.03-5.06.03-10.12,0-15.21v-5.92c0-.08,0-.17,0-.27,0-.1,0-.19.02-.29,0-.02,0-.04,0-.05.13-.62.51-1.06,1.03-1.25,0,0,.01,0,.02,0,.17-.06.36-.09.56-.09h16.82c.12,0,.23-.02.35-.03h4.32c.2,0,.4.03.6.06.49.12,1.24.66,1.24,1.81-.03,5.06-.03,10.12,0,15.21v5.92c0,.08,0,.17,0,.27,0,.1,0,.19-.02.29,0,.02,0,.04,0,.06-.13.62-.51,1.06-1.03,1.25,0,0-.01,0-.02,0-.17.06-.36.09-.56.09H12.48c-.12,0-.23.02-.34.03h-4.32c-.2,0-.4-.03-.6-.06Z" stroke-width="0"/>
</svg>