<?xml version="1.0" encoding="UTF-8"?>
<svg id="icon" data-name="Capa 1" xmlns="http://www.w3.org/2000/svg" viewBox="0 0 39.00 36.89">
  <path d="m36.91,21.16v8.08c-.03,3.68-2.44,6.67-6.01,7.48-.55.12-1.12.17-1.84.17H7.7c-3.59,0-6.58-2.33-7.45-5.78-.17-.57-.23-1.18-.23-1.75C0,22.08,0,14.81.02,7.56.02,3.82,2.9.55,6.61.09c.32-.06.63-.09.95-.09h17.02c1.32,0,2.39.72,2.85,1.87.4,1.12.2,2.27-.58,3.13-.6.66-1.41.98-2.42.98H7.61c-.81,0-1.44.52-1.61,1.35-.03.17-.03.35-.03.52v6.01c.03,5.09.03,10.15,0,15.21,0,1.15.75,1.7,1.24,1.81.2.03.4.06.6.06h21.28c.58,0,1.52-.17,1.81-1.29.03-.2.03-.49.03-.69l.03-10.38c0-1.55.92-2.73,2.36-3.05.89-.17,1.78.03,2.47.6.69.52,1.09,1.35,1.09,2.21.03.95.03,1.9.03,2.82Z" stroke-width="0"/>
  <path d="m18.48,17.24c.13-.17.21-.3.31-.4,4.78-4.79,9.57-9.57,14.35-14.35,1.08-1.07,2.42-1.35,3.67-.75,1.75.83,2.31,3.09,1.15,4.64-.14.18-.3.35-.46.51-5.56,5.56-11.12,11.12-16.68,16.68-1.44,1.44-3.26,1.43-4.7,0-2.5-2.49-4.99-4.99-7.48-7.48-1.53-1.54-1.25-3.92.58-4.97,1.2-.69,2.7-.48,3.73.54,1.75,1.74,3.49,3.48,5.23,5.23.09.09.16.18.31.36Z" stroke-width="0"/>
</svg>