<?xml version="1.0" encoding="UTF-8"?>
<svg id="Capa_1" data-name="Capa 1" xmlns="http://www.w3.org/2000/svg" viewBox="0 0 48.22 47.77">
  <g>
    <path d="m2.98,46.77c-.25,0-.62-.07-.98-.39-.24-.21-.95-.99-.13-2.15l1.54-2.15c1.44-2.02,2.94-4.11,4.36-6.18,1.35-1.96,2.68-4,3.97-5.97l.92-1.41c.57-.87.4-1.67-.48-2.26-.05-.04-.11-.07-.16-.1-.18-.1-.4-.23-.6-.43-.21-.2-.67-.74-.56-1.4.1-.6.61-1.01,1.03-1.18.32-.13.64-.24.96-.36.36-.13.71-.25,1.06-.4.23-.1.52-.28.61-.56.1-.29-.04-.62-.16-.84-.47-.82-.94-1.64-1.41-2.46-.44-.76-.87-1.51-1.3-2.27-.11-.2-.36-.71-.25-1.28.13-.68.67-1.13,1.36-1.13.34,0,.71.12,1.04.34,1.4.92,4.67,3.08,4.67,3.08.08.05.16.1.24.14.28.16.52.24.75.24.46,0,.78-.3.89-.85.25-1.21.42-2.48.59-3.71l.16-1.16c.05-.37.06-.74.08-1.11v-.23c.05-1,.71-1.43,1.32-1.51.04,0,.17-.01.21-.01.75,0,1.33.51,1.47,1.31.21,1.17.42,2.35.62,3.52l.13.75c.01.07.02.15.02.22,0,0,0,0,0,0,4.02-3.24,7.71-6.85,11.29-10.34.74-.72,1.47-1.46,2.21-2.19l.77-.77c.38-.38.79-.57,1.24-.57.27,0,.53.07.78.22.29.17.48.4.63.58.04.05.08.1.12.15.29.31.35.78.15,1.15l-.14.27c-.1.2-.19.37-.3.54-3.62,5.61-7.24,11.22-10.87,16.82-.26.4-.35.64-.33.87.06.5.27.77.71.91.95.3,1.89.6,2.84.9.92.29,1.83.57,2.75.87.28.09.79.31,1.11.78.25.37.3.84.13,1.25-.2.48-.66.82-1.23.93l-2.04.37c-1,.18-2,.36-2.99.55-.87.17-1.74.37-2.6.57-.42.1-.74.34-.89.67-.14.31-.12.66.06,1.02,1.41,2.76,2.9,5.51,4.31,8.08.47.86,1,1.72,1.51,2.55l.55.9c.7,1.15.07,1.86-.23,2.12-.36.3-.72.37-.96.37-.6,0-1-.37-1.21-.57l-1.98-1.85c-2.88-2.71-5.77-5.41-8.67-8.11-.36-.33-.67-.5-.95-.5-.26,0-.58.14-.93.43-3.71,2.94-7.41,5.89-11.12,8.84l-3.5,2.79c-.36.28-.71.58-1.05.87-.14.12-.55.47-1.12.47Z" fill="#fff" stroke-width="0"/>
    <path d="m40.44,2c.09,0,.17.02.26.08.2.12.34.35.53.55-.16.3-.26.52-.39.73-3.62,5.61-7.24,11.22-10.87,16.82-.3.47-.54.95-.48,1.52.1.87.56,1.48,1.4,1.75,1.86.6,3.73,1.16,5.59,1.76.22.07.47.21.59.39.17.26-.06.56-.46.63-1.68.31-3.36.6-5.04.93-.88.17-1.76.37-2.64.58-1.45.34-2.19,1.76-1.5,3.11,1.39,2.73,2.85,5.42,4.32,8.1.65,1.19,1.38,2.33,2.08,3.49.18.29.29.57-.02.83-.12.1-.22.14-.32.14-.19,0-.36-.14-.52-.3-3.54-3.32-7.09-6.65-10.64-9.96-.55-.51-1.08-.76-1.63-.76-.5,0-1.01.21-1.55.64-4.88,3.87-9.75,7.75-14.62,11.63-.37.29-.72.59-1.08.89-.15.13-.31.23-.47.23-.1,0-.21-.04-.32-.14-.3-.27-.18-.54.02-.82,1.98-2.78,3.98-5.54,5.91-8.35,1.68-2.44,3.28-4.92,4.9-7.39.88-1.34.57-2.76-.76-3.64-.21-.14-.45-.24-.62-.41-.14-.14-.3-.37-.28-.52.03-.16.25-.35.42-.42.67-.28,1.38-.48,2.05-.77,1.22-.54,1.57-1.65.92-2.81-.89-1.58-1.82-3.15-2.72-4.73-.1-.18-.17-.42-.14-.6.04-.21.18-.32.37-.32.14,0,.31.06.49.18,1.56,1.03,3.12,2.06,4.67,3.08.1.07.21.13.32.19.41.24.83.35,1.22.35.89,0,1.65-.59,1.87-1.65.34-1.62.52-3.28.76-4.92.07-.48.08-.96.1-1.44.01-.3.13-.52.44-.56.03,0,.06,0,.09,0,.29,0,.44.2.49.48.25,1.42.5,2.85.75,4.27.01.08.01.16.02.23.11.67.37,1,.75,1,.24,0,.52-.13.85-.39,4.01-3.23,7.69-6.82,11.37-10.41,1-.98,1.99-1.98,2.98-2.97.16-.16.34-.27.53-.27m0-2h0c-.49,0-1.23.15-1.94.86l-.78.78c-.73.73-1.45,1.45-2.18,2.17-3.16,3.09-6.41,6.26-9.89,9.18-.16-.93-.33-1.87-.49-2.8-.23-1.27-1.22-2.13-2.46-2.13-.11,0-.22,0-.34.02-1.26.16-2.14,1.15-2.19,2.47v.23c-.02.37-.03.72-.08,1.02-.06.39-.11.78-.16,1.17-.17,1.26-.33,2.45-.57,3.63,0,.01,0,.02,0,.03-.03-.01-.07-.03-.12-.06-.1-.06-.16-.09-.23-.13l-.77-.51c-1.3-.86-2.6-1.71-3.9-2.57-.5-.33-1.05-.51-1.59-.51-1.16,0-2.13.8-2.34,1.95-.16.86.16,1.6.37,1.96.43.76.87,1.52,1.3,2.27.47.82.95,1.64,1.41,2.46,0,0,0,0,0,0-.29.13-.62.25-.97.37-.34.12-.68.24-1.01.37-.65.27-1.48.94-1.64,1.95-.13.79.18,1.62.85,2.28.29.29.6.46.8.58.04.02.08.04.11.07.46.3.45.5.2.88l-.94,1.44c-1.28,1.95-2.6,3.97-3.93,5.92-1.43,2.07-2.92,4.16-4.36,6.18-.51.71-1.02,1.43-1.53,2.14-1.04,1.46-.5,2.79.28,3.48.47.42,1.04.64,1.64.64s1.22-.24,1.77-.71c.34-.29.68-.57,1.03-.85l3.19-2.54c3.81-3.03,7.61-6.07,11.42-9.09.15-.12.25-.17.3-.19.05.03.14.09.28.21,2.95,2.74,5.88,5.49,8.81,8.24l1.83,1.72c.25.23.9.84,1.89.84.4,0,1.01-.1,1.6-.6.8-.67,1.34-1.92.45-3.4-.18-.3-.37-.61-.56-.91-.53-.86-1.02-1.67-1.48-2.5-1.4-2.57-2.89-5.3-4.3-8.06-.04-.08-.04-.13-.04-.14,0-.01.06-.08.22-.11.79-.18,1.69-.39,2.56-.56,1-.19,2-.37,3-.55.68-.12,1.35-.24,2.03-.37.9-.17,1.64-.74,1.97-1.52.3-.72.22-1.54-.22-2.19-.49-.72-1.23-1.04-1.64-1.17-.93-.3-1.86-.59-2.79-.88-.94-.29-1.87-.58-2.8-.88,0,0,0,0-.01,0,0,0,0,0,0,0,.02-.04.07-.13.16-.28,3.63-5.6,7.25-11.21,10.87-16.82.14-.22.25-.43.35-.63.04-.08.08-.16.13-.25.4-.75.28-1.68-.31-2.31-.03-.03-.06-.07-.08-.1-.17-.2-.45-.54-.89-.8-.39-.23-.84-.36-1.29-.36h0Z" fill="#1d1d1b" stroke-width="0"/>
  </g>
  <g>
    <path d="m8.5,12.72c-.28,0-.58-.08-.85-.23-1.27-.69-2.73-1.53-3.88-2.84-.44-.5-.8-1.04-1.05-1.59-.32-.67-.27-1.44.12-2.06.44-.68,1.24-1.09,2.16-1.09.16,0,.32.04.46.11.04.02.1.04.16.07.28.12.69.3,1.07.6.57.46,1.04.97,1.38,1.5.56.88,1.11,1.84,1.78,3.1.3.57.15,1.3-.11,1.74-.26.44-.71.69-1.23.69Z" fill="#fff" stroke-width="0"/>
    <path d="m5,5.91s0,0,.01,0c.22.11.69.26,1.05.56.44.36.86.78,1.16,1.26.63.98,1.19,2,1.74,3.03.1.19.04.55-.08.75-.09.15-.23.21-.38.21-.12,0-.25-.04-.38-.11-1.32-.71-2.6-1.48-3.6-2.62-.35-.4-.67-.86-.9-1.35-.39-.83.22-1.73,1.38-1.73m0-2c-1.26,0-2.39.58-3.01,1.56-.57.9-.64,2.03-.18,3.02.3.63.7,1.25,1.21,1.82,1.26,1.43,2.8,2.33,4.15,3.06.42.23.88.35,1.33.35.86,0,1.65-.44,2.09-1.17.42-.69.62-1.8.14-2.72-.67-1.27-1.25-2.28-1.82-3.18-.4-.62-.93-1.2-1.59-1.73-.48-.39-.99-.61-1.3-.74l-.11-.05c-.28-.14-.57-.21-.88-.21,0,0-.02,0-.02,0h0Z" fill="#1d1d1b" stroke-width="0"/>
  </g>
  <g>
    <path d="m44.37,28.26c-1.4-.14-2.79-.51-4.23-1.15-.51-.22-.91-.84-.89-1.41.02-.6.49-1.22,1.06-1.38,1.04-.29,2.16-.55,3.32-.55.7,0,1.35.09,1.99.29,1.05.32,1.63,1.08,1.6,2.08-.03.97-.7,1.73-1.73,1.98-.22.05-.45.09-.67.11l-.2.03s-.1.01-.15.01c-.03,0-.06,0-.1,0Z" fill="#fff" stroke-width="0"/>
    <path d="m43.63,24.77c.56,0,1.13.07,1.7.25.63.19.91.56.89,1.09-.02.52-.35.89-.97,1.04-.27.07-.55.09-.78.12-1.4-.14-2.69-.52-3.93-1.07-.15-.07-.3-.31-.3-.47,0-.15.18-.4.33-.44,1.01-.28,2.03-.52,3.05-.52m0-2h0c-1.28,0-2.48.28-3.59.59-.99.28-1.76,1.27-1.79,2.32-.03.97.6,1.96,1.49,2.35,1.54.68,3.03,1.08,4.54,1.23.06,0,.13,0,.19,0,.1,0,.2,0,.3-.02l.18-.02c.21-.03.48-.06.78-.13,1.49-.36,2.44-1.48,2.49-2.91.05-1.45-.83-2.62-2.31-3.07-.72-.22-1.49-.33-2.28-.33h0Z" fill="#1d1d1b" stroke-width="0"/>
  </g>
  <g>
    <path d="m3.82,27.6c-1.56,0-2.8-1.24-2.82-2.79,0-.75.28-1.46.82-2,.53-.54,1.27-.85,2.02-.85.77,0,1.49.3,2.03.85.53.54.83,1.25.82,2-.01,1.55-1.29,2.8-2.86,2.8h-.01Z" fill="#fff" stroke-width="0"/>
    <path d="m3.84,22.95h0c1.02,0,1.86.83,1.85,1.84,0,1.01-.83,1.81-1.86,1.81,0,0,0,0,0,0-1,0-1.81-.81-1.82-1.81-.01-1,.83-1.84,1.84-1.84m0-2h0c-1.02,0-2.01.42-2.74,1.15C.38,22.84-.01,23.81,0,24.82c.03,2.07,1.74,3.77,3.81,3.78,2.13,0,3.86-1.7,3.88-3.8,0-1.02-.39-1.98-1.11-2.71-.73-.74-1.7-1.14-2.74-1.14h0Z" fill="#1d1d1b" stroke-width="0"/>
  </g>
</svg>