<?xml version="1.0" encoding="UTF-8"?>
<svg id="Capa_1" data-name="Capa 1" xmlns="http://www.w3.org/2000/svg" viewBox="0 0 33.08 38.2">
  <path d="m26.87,12.93c-.03,3.39-.41,6.73-1.12,10.04-.18.86-.53,1.64-1.11,2.29-1.99,2.22-4.25,4.1-6.91,5.47-.82.42-1.6.41-2.41-.02-2.64-1.38-4.89-3.25-6.87-5.45-.74-.82-1.05-1.84-1.25-2.9-.73-3.77-1.09-7.57-.99-11.41.02-.82.26-.98,1.07-.9,3.1.3,5.99-.3,8.54-2.16.67-.49.75-.49,1.43,0,2.2,1.59,4.67,2.3,7.37,2.23.46-.01.93-.06,1.39-.09.58-.04.85.18.86.76.01.72,0,1.44,0,2.15Z" stroke-width="0"/>
  <path d="m4.54,12.29c-.04,3.75.37,7.47,1.17,11.13.27,1.22.85,2.29,1.7,3.2,2.23,2.4,4.74,4.44,7.72,5.86.38.18.57.45.57.89-.01,1.41,0,2.82-.02,4.22,0,.2-.11.49-.25.56-.17.08-.48.04-.65-.08-3.67-2.55-7.26-5.2-10.47-8.31-.56-.54-1.09-1.1-1.6-1.68-.89-1-1.1-2.24-1.21-3.52-.17-1.82-.38-3.64-.55-5.46-.17-1.74-.32-3.47-.45-5.21-.15-1.94-.27-3.87-.38-5.81C.04,6.91.02,5.72,0,4.54c0-.17.08-.43.26-.51.17-.05.34.13.44.25,1.17,1.49,2.35,2.99,3.48,4.51.21.28.32.69.34,1.05.05.81.02,1.63.02,2.45Z" stroke-width="0"/>
  <path d="m28.54,12.25c0-.8-.04-1.61.02-2.41.02-.37.14-.79.36-1.08,1.12-1.5,2.27-2.97,3.43-4.44.11-.14.31-.29.5-.27.23.06.24.36.23.53-.08,2.17-.17,4.33-.3,6.49-.12,1.97-.28,3.93-.45,5.89-.17,1.89-.37,3.78-.56,5.67-.11,1.05-.21,2.1-.35,3.14-.14,1.02-.62,1.88-1.32,2.63-2.19,2.36-4.66,4.41-7.22,6.35-1.48,1.12-2.99,2.2-4.51,3.27-.19.13-.53.21-.72.13-.15-.07-.26-.41-.26-.64-.02-1.37,0-2.73-.02-4.1,0-.45.17-.74.57-.94,3.01-1.43,5.53-3.5,7.78-5.92,1.13-1.21,1.6-2.7,1.89-4.29.61-3.31.97-6.65.92-10.02Z" stroke-width="0"/>
  <path d="m24.72,8.43c-2.87.03-5.44-.74-7.51-2.82-.46-.46-.89-.45-1.35.01-1.71,1.72-3.81,2.62-6.21,2.75-1.04.06-2.1-.08-3.15-.15-.46-.03-.82-.28-1.1-.64-1.01-1.3-2.03-2.59-3.03-3.9-.1-.14-.22-.39-.12-.56.12-.13.4-.12.57-.07,1.88.53,3.78.85,5.74.7,2.78-.2,5.16-1.28,7.1-3.28.3-.31.61-.59,1.06-.44.26.09.51.29.71.49,1.59,1.6,3.47,2.64,5.7,3.06,2.33.44,4.61.16,6.87-.47.26-.07.58-.31.81.02.23.34-.11.54-.27.76-.8,1.05-1.67,2.06-2.41,3.15-.64.94-1.5,1.29-2.57,1.34-.28.01-.56.03-.84.05Z" stroke-width="0"/>
</svg>