<?xml version="1.0" encoding="UTF-8"?>
<svg xmlns="http://www.w3.org/2000/svg" viewBox="0 0 40 40">
  <g id="Capa_2" data-name="Capa 2">
    <rect width="40" height="40" fill="none" stroke-width="0"/>
  </g>
  <g id="Capa_1" data-name="Capa 1">
    <g>
      <path d="m17.26,2.46v11.64c0,.21.02.43-.22.55-.23.11-.4-.06-.56-.19-2.57-2.21-5.08-4.48-7.35-7.02-.39-.42-.74-.86-1.1-1.3-.13-.15-.22-.33-.12-.53.09-.2.29-.2.49-.21.75-.02,1.51.04,2.25-.05.76-.08,1.44-.39,2.13-.68,1.41-.61,2.74-1.37,3.78-2.55.12-.13.26-.22.44-.14.21.08.25.26.25.46Z" stroke-width="0"/>
      <path d="m16.76,21.37c-1.94,1.28-3.88,2.56-5.82,3.83-.16.11-.33.12-.5.04-.74-.33-1.46-.65-2.2-.98-.22-.09-.32-.26-.33-.49-.06-1.38-.13-2.77-.2-4.16-.09-1.73-.18-3.47-.28-5.21-.01-.32.08-.5.37-.62.56-.23,1.12-.49,1.68-.74.11-.05.22-.08.27-.11.29-.02.42.13.55.27,1.89,1.88,3.77,3.8,5.7,5.65.61.6.71,1.35.97,2.08.07.19-.07.34-.22.43Z" stroke-width="0"/>
      <path d="m28.61,28.17c-.15.69-.3,1.37-.44,2.06-.05.23-.19.39-.36.54-.75.65-1.58,1.18-2.45,1.65-1.28.69-2.63,1.25-4.01,1.72-.67.22-.83.11-.82-.58v-.13h.01c.07-1.92.13-3.82.2-5.72.03-1.13.08-2.27.13-3.4.02-.79.7-1.51,1.51-1.53.79-.01,1.58,0,2.37,0,.23,0,.42.08.56.28,1.06,1.54,2.14,3.07,3.2,4.59.12.18.15.35.11.54Z" stroke-width="0"/>
      <path d="m35.69,14.27c-.14,1.3-.26,2.58-.48,3.87-.07.46-.16.53-.64.51h-.83c-2.1-.07-4.2-.15-6.31-.34-.14-.02-.29-.05-.43-.06-.2-.02-.37-.08-.43-.3-.06-.22.07-.35.23-.47.93-.68,1.88-1.35,2.81-2.02,1.44-1.04,2.87-2.08,4.32-3.12.4-.29.5-.27.83.12.19.23.36.48.57.69.32.32.4.69.35,1.12Z" stroke-width="0"/>
      <path d="m33.18,22.71c-.07,1.11-.25,2.2-.55,3.27-.05.15-.09.3-.15.44-.16.39-.48.43-.74.09-.56-.74-1.09-1.51-1.58-2.3-.33-.51-.64-1.04-.92-1.58-.34-.62-.21-.82.5-.81.97.08,1.95.14,2.92.22.47.05.55.16.51.65Z" stroke-width="0"/>
      <path d="m32.97,31.73c-.69.54-1.38,1.05-2.07,1.56-.3.22-.55.18-.68-.14-.29-.71-.46-1.46-.53-2.24.01-.06,0-.14.04-.19.32-.47.76-.78,1.25-1.05.12-.07.25.05.36.13.54.41,1.09.81,1.61,1.23.3.23.3.47.01.7Z" stroke-width="0"/>
      <path d="m6.49,9.43c.01.14-.07.23-.16.32-.44.39-.89.77-1.33,1.16-.19.16-.39.16-.58.06-.21-.12-.41-.25-.62-.34-.33-.13-.46-.35-.4-.7.14-.89.33-1.75.84-2.5.33-.47.55-.48.89-.01.41.55.81,1.11,1.21,1.67.08.11.16.21.15.35Z" stroke-width="0"/>
      <path d="m7.07,28.75c-.47.62-.95,1.24-1.42,1.86-.13.16-.33.23-.5.09-.28-.23-.54-.49-.79-.75-.08-.08-.09-.2-.09-.32.09-.76.16-1.52.27-2.28.05-.33.29-.44.56-.28.63.36,1.25.72,1.87,1.1.23.14.28.35.12.57Z" stroke-width="0"/>
      <path d="m32.92,5.27c-.2.78-.41,1.54-.62,2.31-.05.16-.16.27-.29.36-1.66,1.21-3.32,2.43-4.97,3.63-.03.03-.07.06-.11.08-.82.6-1.63,1.19-2.44,1.79-.05.04-.09.07-.15.09,0,.01-.01.01-.01.01-.4.3-.81.6-1.21.9-.28.21-.56.42-.86.62-.35.23-.64.08-.63-.35.05-1.54.12-3.08.19-4.62.02-.6.04-1.19.07-1.79.09-1.94.14-3.87.22-5.79,0-.22.02-.44.06-.67.04-.32.3-.46.57-.28.12.08.22.19.33.28,1.96,1.78,4.27,2.71,6.89,2.94.85.07,1.68.06,2.52-.04.36-.05.55.16.46.51Z" stroke-width="0"/>
      <path d="m17,26.52l-.11,1.69c-.06.83-.11,1.66-.15,2.49-.02.39-.05.76-.07,1.13v.11c-.06.83-.11,1.66-.15,2.49-.05.63-.09,1.26-.12,1.89-.04.68-.25.81-.86.55-2-.85-3.85-1.94-5.55-3.28-.26-.2-.32-.42-.27-.72.09-.65.18-1.3.23-1.95.04-.3.14-.53.42-.71,1.93-1.28,3.85-2.58,5.78-3.87.07-.06.15-.11.22-.15.34-.19.63-.05.62.34Z" stroke-width="0"/>
    </g>
  </g>
</svg>