<?xml version="1.0" encoding="UTF-8"?><svg id="Capa_1" xmlns="http://www.w3.org/2000/svg" width="46.46" height="46.34" viewBox="0 0 46.46 46.34"><path d="m35.26,46.34s-.09,0-.13,0c-.34-.01-.68-.03-1.02-.05l-1.72-.08c-.92-.04-1.84-.08-2.76-.13l-2.32-.11c-.8-.04-1.59-.08-2.39-.12-.6-.03-1.19-.06-1.78-.08h-.19c-.68-.04-1.35-.07-2.03-.1l-3.01-.15c-1.04-.05-2.08-.1-3.13-.15-.67-.03-1.34-.06-2.01-.09-.67-.03-1.35-.06-2.02-.09-.84-.04-1.68-.08-2.52-.12-1.21-.06-2.42-.12-3.62-.17-1.72-.08-3.09-1.42-3.18-3.13-.02-.41-.04-.81-.06-1.22v-.07S.27,17.11.27,17.11c-.06-1.41-.13-2.82-.2-4.24-.01-.21-.03-.43-.04-.64l-.03-.41v-1.06c.15-.81.58-1.42.93-1.91l.06-.08c.48-.67.95-1.35,1.42-2.02l1.41-2c.77-1.1,1.55-2.2,2.32-3.3.51-.73,1.15-1.19,1.9-1.36.55-.12,1.44-.1,2.39-.07.14,0,.25,0,.32.01l11.53.33,16.06.49c1.29.04,2.58.08,3.87.12,1.62.06,3.05,1.48,3.12,3.11.04.94.07,1.88.1,2.82v.06s.91,26.34.91,26.34c.05,1.32.09,2.65.13,3.97.04,1.17-.48,2.2-1.46,2.89l-7.8,5.53c-.6.42-1.25.64-1.93.64ZM1.68,11.79l.02.3c.02.23.03.47.05.7.07,1.41.13,2.82.2,4.23l1.09,23.38c.02.42.04.84.06,1.26.04.83.74,1.5,1.58,1.54,1.21.06,2.42.12,3.62.17.84.04,1.68.08,2.52.12.66.03,1.33.06,1.99.09.68.03,1.36.06,2.04.09l6.14.3c.69.03,1.39.06,2.08.1.64.03,1.28.06,1.92.09.79.04,1.57.08,2.36.11.78.04,1.57.08,2.35.11.92.04,1.84.09,2.76.13l1.73.08c.34.02.67.03,1.01.05.36.01.69-.09,1.03-.33l7.8-5.53c.53-.38.77-.84.75-1.47-.04-1.25-.08-2.49-.12-3.74l-.91-26.56c-.03-.95-.06-1.91-.1-2.86-.03-.77-.73-1.47-1.5-1.5-1.29-.05-2.57-.09-3.86-.12l-16.06-.49c-.7-.02-1.4-.04-2.11-.06l-1.86-.05c-1.01-.03-2.3-.07-3.61-.1-1.42-.04-2.85-.08-3.94-.11-.08,0-.2,0-.35-.01-.51-.02-1.57-.06-1.96.03-.33.07-.62.29-.89.68-.8,1.15-1.61,2.29-2.41,3.44l-1.3,1.85c-.48.68-.96,1.37-1.44,2.05l-.06.08c-.29.4-.54.75-.62,1.16v.79Z" fill="#1d1d1b" stroke-width="0"/><path d="m27.4,30.59l1.77,1.17,10.62-25.54L14.69,14.31c1.51,3.63,3.01,7.25,4.52,10.87,2.69,1.78,5.44,3.6,8.19,5.41Z" fill="#1d1d1b" stroke-width="0"/><path d="m18.37,29.34l-.28-.18-10.28,11.46,24.42,1.37c-1.14-2.03-2.26-4.01-3.39-6-3.49-2.22-6.98-4.44-10.48-6.65Z" fill="#1d1d1b" stroke-width="0"/><path d="m41.95,28.46l-.1-3.52-.09-3.34-.1-3.55-.11-3.94-.08-2.67-9.15,23.02,3.42,5.99.08.15.28.49c2.02-1.48,4.05-2.96,6.07-4.45-.03-1.29-.06-2.59-.1-3.88l-.11-3.84v-.46Z" fill="#1d1d1b" stroke-width="0"/><path d="m10.67,14.63v-.03c-1.28-.3-2.55-.59-3.82-.89l-.2-.05-2.24-.53,1.14,24.39,3.59-4.12c2.05-2.35,4.1-4.71,6.16-7.05-1.56-3.92-3.12-7.88-4.63-11.72Z" fill="#1d1d1b" stroke-width="0"/><path d="m19.9,8.75l12.96-3.93-17.19-.48h-.39s-5.69-.17-5.69-.17l-3.63,5.3-.12.17c2.12.48,4.24.97,6.36,1.45l7.27-2.21.43-.13Z" fill="#1d1d1b" stroke-width="0"/></svg>