<?xml version="1.0" encoding="UTF-8"?>
<svg id="Capa_1" data-name="Capa 1" xmlns="http://www.w3.org/2000/svg" viewBox="0 0 38.77 15.87">
  <path d="m38.1,6.66c-1.81-1.79-3.62-3.59-5.45-5.37-.38-.37-.73-.8-1.19-1.09-.76-.49-1.6-.08-1.64.84-.05,1.11-.05,2.23-.03,3.34,0,.39-.09.49-.46.49-.14,0-10.47,0-10.62,0h0c-2.81,0-9.11,0-9.21,0-.41.01-.55-.15-.54-.55.02-.9.01-1.8.02-2.7,0-.32,0-.63-.13-.93-.23-.55-.77-.78-1.32-.55-.23.09-.41.25-.58.42C4.86,2.62,2.77,4.67.68,6.73c-.9.89-.9,1.59,0,2.48,1.81,1.79,3.62,3.59,5.45,5.37.38.37.73.8,1.19,1.09.76.49,1.6.08,1.64-.84.05-1.11.05-2.23.03-3.34,0-.39.09-.49.46-.49.14,0,10.47,0,10.62,0h0c2.81,0,9.11,0,9.21,0,.41-.01.55.15.54.55-.02.9-.01,1.8-.02,2.7,0,.32,0,.63.13.93.23.55.77.78,1.32.55.23-.09.41-.25.58-.42,2.09-2.05,4.19-4.11,6.28-6.16.9-.89.9-1.59,0-2.48Z" fill="#1d1d1b" stroke-width="0"/>
</svg>