<?xml version="1.0" encoding="UTF-8"?><svg id="Capa_1" xmlns="http://www.w3.org/2000/svg" width="45.12" height="26.35" viewBox="0 0 45.12 26.35"><path d="m22.78,26.35c-9.68-.33-17.15-4.3-22.47-12.23-.43-.64-.42-1.22,0-1.86C4.4,5.99,10.1,2.04,17.43.53c10.58-2.18,21.59,2.55,27.39,11.69.41.65.39,1.23-.02,1.86-4.33,6.56-10.33,10.57-18.1,11.87-1.35.23-2.73.28-3.92.4Zm-.26-4.47c4.83.03,8.74-3.87,8.76-8.73.02-4.79-3.89-8.71-8.71-8.73-4.81-.01-8.71,3.88-8.74,8.7-.03,4.8,3.87,8.73,8.69,8.75Z" stroke-width="0"/></svg>