<?xml version="1.0" encoding="UTF-8"?>
<svg id="Capa_1" data-name="Capa 1" xmlns="http://www.w3.org/2000/svg" viewBox="0 0 39.41 37.69">
  <path d="m9.28,36.41c.06-.11.12-.21.18-.32.86-1.47,1.73-2.94,2.59-4.42.08-.14.1-.31.15-.47-.17.04-.35.04-.49.12-3.74,2.05-7.48,4.11-11.22,6.16-.14.08-.28.14-.42.21-.02-.02-.04-.04-.07-.07.09-.14.17-.28.27-.41,1.71-2.29,3.41-4.57,5.12-6.86.96-1.28,1.92-2.56,2.87-3.85.09-.12.16-.31.12-.43-.06-.21-.27-.17-.45-.13-.7.15-1.4.31-2.1.46-.19.04-.37.09-.56.11-.24.02-.31-.1-.17-.3.13-.19.28-.36.43-.52,1.71-1.92,3.47-3.8,5.13-5.76,1.1-1.29,2.08-2.69,3.11-4.04.18-.23.22-.47.17-.77-.13-.78-.25-1.56-.34-2.34-.11-.94.07-1.84.43-2.71.63-1.53,1.41-2.97,2.34-4.33.65-.95,1.61-1.44,2.68-1.76.27-.08.54-.15.82-.21.73-.17,1.31-.57,1.84-1.11.65-.66,1.3-1.33,2.03-1.89,1.24-.96,2.61-1.05,3.98-.29,1.53.84,3.06,1.68,4.52,2.63,1.09.7,2.08,1.55,3.09,2.37.69.57,1.18,1.32,1.65,2.08.4.64.8,1.28,1.23,1.9,1.68,2.4,1.66,5.03-.25,7.25-1.64,1.91-3.3,3.83-5.23,5.48-.58.49-1.21.93-1.84,1.36-.61.42-1.33.52-2.04.63-.72.12-1.38.36-1.99.77-4.23,2.86-8.45,5.73-12.71,8.55-1.48.98-3.03,1.87-4.55,2.8-.08.05-.17.08-.26.12-.02-.02-.03-.03-.05-.05Zm10.85-13.26s.06.07.09.1c-.1.21-.19.42-.31.62-.45.77-.91,1.53-1.37,2.29-.08.13-.16.27-.22.41-.03.07-.01.17-.02.26.08,0,.18.03.25,0,.13-.05.25-.12.36-.19,2.46-1.65,4.92-3.29,7.38-4.95.35-.24.71-.38,1.13-.42.4-.03.81-.1,1.2-.21,1.22-.35,2.17-1.11,3-2.04.27-.29.27-.43-.02-.71-.49-.49-.99-.96-1.47-1.46-.24-.24-.51-.4-.84-.47-1.08-.2-1.89-.78-2.46-1.73-.07-.12-.25-.25-.37-.24-.12,0-.27.17-.33.3-.27.6-.5,1.21-.76,1.81-.05.12-.16.22-.25.33-.07-.12-.17-.23-.2-.36-.48-1.94-1.58-3.47-3.1-4.72-.35-.29-.5-.61-.43-1.04.04-.26.1-.52.15-.77.05-.21.15-.38.39-.39.25,0,.33.19.39.39.21.67.63,1.19,1.27,1.45.6.25,1.23.46,1.87.57,1.64.29,2.93-.34,3.73-1.73.35-.61.23-.95-.42-1.21-1.88-.75-3.76-1.51-5.64-2.26-.45-.18-.91-.27-1.39-.21-.53.07-1.05.2-1.58.28-.92.13-1.58.63-2.01,1.43-.46.85-.88,1.71-1.3,2.58-.22.46-.29.94-.26,1.46.08,1.22.24,2.42.52,3.61.06.25.01.46-.14.66-.36.49-.71.99-1.06,1.49-.77,1.08-1.53,2.16-2.29,3.25-.07.1-.09.24-.13.37.13,0,.26.05.38.02.42-.09.83-.22,1.24-.31.19-.04.4-.02.6-.02-.09.17-.15.36-.26.51-1.36,1.76-2.73,3.52-4.1,5.27-.09.12-.2.24-.28.37-.04.07-.05.21,0,.26.06.07.18.09.28.1.07,0,.15-.06.22-.1,1.79-.98,3.59-1.96,5.37-2.95.85-.47,1.69-.96,2.54-1.43.2-.11.42-.18.63-.27Zm14.53-13.7c-.14-.28-.25-.57-.42-.81-.27-.35-.58-.67-.88-1-.47-.51-.81-.49-1.21.08-.47.67-.93,1.34-1.39,2.02-.75,1.1-1.28,2.37-2.47,3.14-.31.2-.32.55-.14.88.21.4.53.71.93.94.5.29.91.25,1.35-.12,1.48-1.27,2.8-2.7,3.89-4.31.15-.22.22-.5.35-.81Zm1.72,4.33c-.09-.77-.17-1.47-.27-2.17-.03-.24-.18-.42-.43-.47-.25-.05-.45.04-.6.24-1.09,1.45-2.18,2.9-3.27,4.36-.22.3-.17.61.13.84.29.22.58.44.88.64.33.23.6.2.86-.11.84-.98,1.68-1.96,2.5-2.95.1-.12.14-.28.19-.38ZM25.83,2.95c-.11.05-.23.08-.31.15-.54.56-1.08,1.13-1.6,1.71-.25.28-.17.6.17.76.64.3,1.28.59,1.93.88.34.15.54.08.74-.23.33-.52.66-1.04.98-1.57.23-.38.17-.61-.21-.83-.45-.25-.9-.5-1.36-.75-.1-.05-.22-.08-.34-.13Zm5.73,3.77c0-.22-.12-.41-.32-.54-.54-.36-1.08-.73-1.63-1.09-.37-.24-.72-.18-.98.17-.28.37-.55.74-.82,1.12-.3.43-.18.86.31,1.06.62.25,1.25.5,1.88.73.15.05.34.07.5.03.31-.07,1.05-1.13,1.06-1.47Z" stroke-width="0"/>
</svg>