<?xml version="1.0" encoding="UTF-8"?>
<svg id="Capa_1" data-name="Capa 1" xmlns="http://www.w3.org/2000/svg" viewBox="0 0 39.4 37.7">
  <path d="m37.93,16.74c-1.65,1.92-3.31,3.83-5.23,5.48-.58.49-1.21.93-1.84,1.36-.61.42-1.33.52-2.04.63-.72.12-1.37.36-1.98.77-4.23,2.86-8.46,5.73-12.71,8.56-1.48.98-3.03,1.86-4.55,2.79-.08.05-.17.09-.25.13l-.05-.05c.06-.11.12-.21.18-.32.87-1.47,1.73-2.94,2.59-4.42.08-.14.1-.31.15-.47-.16.04-.35.04-.49.12-3.74,2.05-7.48,4.11-11.22,6.16-.14.08-.29.15-.43.22-.02-.02-.04-.05-.06-.07.09-.13.17-.28.27-.41,1.7-2.28,3.41-4.57,5.12-6.85.95-1.28,1.91-2.56,2.86-3.85.09-.11.16-.31.12-.43-.06-.21-.27-.16-.44-.13-.7.15-1.4.31-2.1.46-.19.04-.37.09-.56.11-.24.02-.31-.1-.18-.3.13-.18.28-.35.43-.52,1.72-1.92,3.47-3.8,5.14-5.76,1.1-1.29,2.07-2.68,3.11-4.03.17-.23.22-.48.17-.77-.14-.78-.25-1.56-.35-2.34-.11-.94.07-1.84.43-2.71.63-1.53,1.41-2.97,2.33-4.33.65-.96,1.61-1.45,2.68-1.77.27-.07.54-.14.82-.2.73-.17,1.31-.57,1.83-1.11.65-.66,1.3-1.33,2.03-1.89,1.24-.96,2.61-1.05,3.98-.29,1.53.84,3.06,1.68,4.52,2.63,1.09.7,2.09,1.55,3.09,2.37.69.57,1.18,1.33,1.65,2.09.4.64.8,1.28,1.23,1.89,1.68,2.41,1.66,5.03-.25,7.25Z" stroke-width="0"/>
  <path d="m36.38,13.78c-.05.1-.09.26-.19.38-.83.99-1.66,1.97-2.5,2.95-.27.3-.54.33-.87.1-.3-.2-.59-.42-.88-.64-.3-.23-.35-.54-.12-.84,1.08-1.45,2.17-2.9,3.27-4.35.15-.2.35-.3.59-.25.25.06.4.23.43.48.1.7.18,1.4.27,2.17Z" fill="#fff" stroke-width="0"/>
  <path d="m34.66,9.45c-.13.3-.19.58-.35.81-1.09,1.61-2.41,3.04-3.89,4.31-.44.37-.85.41-1.35.12-.39-.23-.71-.53-.93-.93-.17-.34-.16-.69.15-.89,1.19-.76,1.72-2.03,2.47-3.14.46-.67.91-1.35,1.39-2.02.39-.56.73-.58,1.2-.07.31.32.62.64.89,1,.18.23.28.53.42.81Z" fill="#fff" stroke-width="0"/>
  <path d="m31.56,6.72c0,.34-.75,1.4-1.05,1.48-.16.03-.35.02-.5-.03-.63-.23-1.26-.48-1.88-.73-.49-.2-.61-.63-.31-1.06.26-.38.54-.75.81-1.12.27-.35.62-.41.98-.17.55.36,1.09.73,1.63,1.09.2.13.32.32.32.54Z" fill="#fff" stroke-width="0"/>
  <path d="m31.64,19.02c-.84.93-1.79,1.69-3,2.04-.39.11-.8.18-1.21.21-.42.03-.78.18-1.13.42-2.45,1.65-4.91,3.3-7.37,4.95-.12.07-.24.14-.36.19-.08.02-.17,0-.26,0,.01-.09-.01-.18.02-.26.06-.14.14-.27.22-.4.46-.77.92-1.53,1.37-2.3.11-.2.2-.41.3-.62-.03-.03-.06-.07-.09-.1-.21.09-.43.16-.62.27-.85.47-1.7.95-2.55,1.42-1.79.99-3.58,1.97-5.37,2.96-.07.04-.15.1-.22.1-.1-.01-.22-.03-.28-.1-.05-.05-.03-.19,0-.26.08-.14.18-.25.28-.37,1.37-1.76,2.74-3.51,4.1-5.27.11-.15.17-.35.26-.52-.2.01-.4-.02-.6.02-.41.09-.82.22-1.24.31-.12.03-.25-.01-.38-.02.04-.12.06-.26.13-.36.76-1.09,1.53-2.17,2.29-3.26.35-.49.7-.99,1.06-1.49.15-.2.2-.41.14-.66-.28-1.19-.44-2.39-.52-3.61-.03-.51.04-1,.26-1.46.42-.86.84-1.73,1.29-2.58.43-.79,1.09-1.29,2.01-1.42.53-.08,1.05-.21,1.58-.28.48-.06.94.03,1.39.21,1.88.75,3.76,1.5,5.64,2.26.65.26.77.6.42,1.21-.79,1.4-2.08,2.03-3.72,1.73-.64-.11-1.27-.32-1.87-.57-.64-.26-1.06-.78-1.27-1.45-.06-.2-.14-.39-.39-.39-.24.01-.34.18-.39.39-.06.26-.11.51-.16.77-.07.44.09.76.44,1.05,1.52,1.24,2.62,2.78,3.1,4.72.03.12.13.24.2.36.08-.11.19-.21.24-.34.26-.6.5-1.21.76-1.8.06-.13.21-.3.33-.31s.31.13.38.25c.56.94,1.37,1.53,2.45,1.73.34.06.61.22.85.46.48.5.98.97,1.47,1.46.29.29.29.42.02.71Z" fill="#fff" stroke-width="0"/>
  <path d="m27.74,4.66c-.32.52-.65,1.05-.98,1.57-.19.31-.4.37-.74.22-.64-.28-1.29-.57-1.93-.87-.33-.16-.41-.49-.17-.77.52-.58,1.06-1.14,1.6-1.71.08-.07.2-.1.31-.15.13.05.24.08.34.13.46.25.91.5,1.36.75.39.22.45.45.21.83Z" fill="#fff" stroke-width="0"/>
</svg>