<?xml version="1.0" encoding="UTF-8"?>
<svg id="Capa_1" data-name="Capa 1" xmlns="http://www.w3.org/2000/svg" viewBox="0 0 39.28 39.07">
  <path d="m4.69,39.07c-1.25,0-2.5,0-3.76,0-.47,0-.67-.15-.83-.59-.18-.48-.1-.94.06-1.4,1.13-3.46,2.25-6.91,3.38-10.37,1.1-3.38,2.19-6.77,3.29-10.16.11-.35.18-.78.67-.78.49,0,.56.42.67.78.32.99.64,1.99.96,2.98.08.26.16.54.52.53.35-.01.43-.28.52-.54,1.49-4.63,2.98-9.25,4.47-13.88.04-.13.09-.27.14-.4.09-.26.26-.42.54-.42.28,0,.46.16.55.41.17.47.34.95.51,1.42.13.35.26.7.37,1.06.08.25.2.48.49.48.3,0,.43-.23.51-.5.58-1.84,1.17-3.69,1.76-5.53.16-.52.33-1.03.49-1.55.09-.3.22-.58.58-.59.37,0,.52.26.63.58.76,2.38,1.54,4.76,2.3,7.14.65,2,1.29,4,1.94,6,.04.13.09.27.14.4.07.24.2.42.49.42.28,0,.4-.21.48-.44.19-.59.37-1.18.56-1.77.45-1.41.9-2.83,1.35-4.24.02-.06.04-.12.06-.18.1-.28.27-.48.59-.48.3,0,.46.21.55.47.31.94.62,1.89.92,2.83.86,2.68,1.72,5.35,2.58,8.03.16.51.13.62-.32.94-2.45,1.81-5.22,2.9-8.12,3.71-2.04.57-4.05,1.22-5.96,2.15-2.74,1.34-4.8,3.36-6.19,6.07-1.17,2.29-2.28,4.6-3.36,6.93-.16.36-.37.51-.77.5-1.25-.02-2.5,0-3.76,0Z" stroke-width="0"/>
  <path d="m25.96,38.98c-4.05,0-8.11,0-12.16,0-.18,0-.37,0-.54-.05-.37-.1-.53-.42-.35-.75.95-1.79,1.74-3.66,2.71-5.44,1.3-2.37,3.28-3.9,5.75-4.88,1.93-.77,3.95-1.27,5.93-1.89,2.19-.69,4.26-1.64,6.21-2.85.66-.41.92-.31,1.16.43,1.49,4.51,2.98,9.01,4.47,13.52.12.36.18.72.08,1.1-.14.58-.4.81-1,.81-3.27,0-6.53,0-9.8,0-.83,0-1.65,0-2.48,0Z" stroke-width="0"/>
</svg>