<?xml version="1.0" encoding="UTF-8"?>
<svg id="Capa_1" data-name="Capa 1" xmlns="http://www.w3.org/2000/svg" viewBox="0 0 38.95 38.98">
  <path d="m20.81,19.55c0,4.89,0,9.77,0,14.66,0,.27.01.54.07.8.17.76.88,1.33,1.66,1.27.47-.04.95-.04,1.4-.21.48-.18.94-.13,1.42.02,1.91.58,3.97-.21,5.04-1.89.25-.39.25-.4-.2-.5-2.28-.49-3.79-2.04-4.21-4.32-.07-.4-.1-.81,0-1.21.14-.61.74-.98,1.43-.93.59.04,1.09.51,1.17,1.1.03.19.05.37.07.56.16,1.23,1.13,2.11,2.43,2.2,1.1.07,2.21-.73,2.51-1.85.24-.9.09-1.75-.59-2.4-.9-.85-.52-2.07.48-2.48,1.67-.68,2.01-2.83.73-4.11-.06-.06-.12-.11-.17-.17-.7-.72-.57-1.75.33-2.2,1.24-.63,1.86-1.63,1.94-3,.05-.81.61-1.3,1.42-1.26.71.03,1.21.58,1.22,1.34.03,1.61-.58,2.97-1.69,4.12-.22.23-.27.39-.13.7,1.02,2.1.58,4.5-1.13,6.12-.17.16-.19.27-.1.48,1.06,2.51.29,5.08-1.98,6.6-.2.13-.29.29-.34.52-.69,2.89-3.22,5.13-6.16,5.43-.84.09-1.7.07-2.53-.16-.49-.14-.93.1-1.39.15-1.37.15-2.67,0-3.78-.91-.13-.11-.23-.21-.41-.05-1.27,1.09-2.76,1.17-4.32.88-.42-.08-.81-.08-1.23,0-3.06.59-5.99-.74-7.56-3.35-.23-.39-.22-.42.22-.53,2.4-.62,3.86-2.15,4.41-4.56.19-.82.14-1.63-.06-2.44-.17-.69-.79-1.15-1.38-1.04-.72.13-1.14.66-1.05,1.43.09.77.16,1.52-.16,2.27-.52,1.22-1.82,2.07-3.15,2.02-.4-.01-.73-.14-1-.45-1.5-1.72-1.83-3.64-.98-5.76.1-.25.06-.37-.12-.55-1.46-1.44-1.91-3.17-1.46-5.15.08-.36.26-.47.62-.45.48.03.97.02,1.46-.01.56-.04,1.01-.4,1.15-.88.15-.5-.02-1.03-.42-1.35-.28-.22-.61-.27-.96-.24-.87.07-1.72,0-2.52-.41-.26-.13-.43-.31-.51-.58-.82-2.63.16-5.45,2.59-6.91.16-.09.31-.12.5-.09,1.58.25,2.91,1.49,3.26,3.05.04.18.08.37.15.54.24.59.89.9,1.49.72.61-.18.99-.79.87-1.42-.5-2.53-1.97-4.23-4.39-5.11-.56-.2-.57-.2-.28-.71.66-1.16,1.65-1.91,2.95-2.22.25-.06.35-.15.39-.41C8.18,2,9.72.46,11.95.05c.01,0,.03,0,.04,0,.75-.12.85-.05.89.72.09,1.47-.89,2.72-2.37,3.04-.9.19-1.36.99-1.02,1.74.26.56.84.83,1.53.7,2.28-.44,4.06-2.37,4.32-4.67.04-.39.1-.77.02-1.17-.07-.31.13-.36.37-.37,1.27-.06,2.43.24,3.46,1,.14.11.26.22.45.05C20.93-.05,22.44-.13,24.03.14c.25.04.5.1.75.17.79.22,1.21.92,1.02,1.67-.18.71-.9,1.13-1.68.93-.53-.13-1.06-.23-1.6-.22-1.04.02-1.71.79-1.71,1.95,0,2.23,0,4.45,0,6.68,0,2.74,0,5.48,0,8.22Z" stroke-width="0"/>
  <path d="m31.12,15.63c-.65,0-1.12-.38-1.3-1.06-.18-.69-.31-1.39-.49-2.09-.39-1.49-1.32-2.44-2.81-2.84-.69-.18-1.39-.33-2.08-.49-.71-.17-1.1-.64-1.1-1.3,0-.7.37-1.17,1.1-1.34.69-.17,1.4-.31,2.08-.49,1.46-.4,2.41-1.34,2.8-2.8.19-.69.32-1.39.49-2.08.19-.74.65-1.1,1.35-1.1.67,0,1.12.37,1.3,1.1.17.68.31,1.37.48,2.05.39,1.51,1.35,2.45,2.85,2.85.68.18,1.37.31,2.05.48.73.18,1.1.64,1.1,1.31,0,.7-.36,1.16-1.1,1.35-.69.18-1.4.31-2.08.49-1.47.39-2.41,1.34-2.8,2.8-.19.7-.32,1.42-.5,2.12-.18.7-.65,1.06-1.34,1.06Z" stroke-width="0"/>
</svg>