<?xml version="1.0" encoding="UTF-8"?>
<svg id="icon" data-name="Capa 1" xmlns="http://www.w3.org/2000/svg" viewBox="0 0 38.61 38.44">
  <path d="m6.14,32.8c-.09.13-.17.26-.26.39-1.05,1.57-2.1,3.13-3.14,4.71-.08.12-.07.29-.1.44.16.02.37.1.48.03.26-.16.54-.35.69-.61,1.87-3.15,4.02-6.08,6.51-8.76,1.39-1.5,2.87-2.9,4.46-4.18,1.41-1.13,3.02-1.72,4.8-1.89,1.06-.1,2.11-.23,3.17-.37,1.14-.16,1.99-1.07,2.02-2.22.07-2.66.06-5.32.16-7.98.07-1.92.23-3.84.44-5.75.14-1.25,1.14-2.07,2.39-2.23,1.71-.22,3.41-.45,5.11-.72,1.59-.25,2.74.69,2.78,2.3.04,1.79.07,3.58-.4,5.32-.18.66-.45,1.33-.82,1.9-.66,1.01-2.22,1.24-3.22.57-.5-.34-.72-.95-.56-1.61.2-.82.69-1.43,1.39-1.87.47-.29.79-.68.86-1.23.15-1.13-.77-1.98-1.91-1.79-.05,0-.1.03-.15.04-1.38.03-2.05.83-2.43,2.08-.47,1.53-.98,3.04-1.06,4.64-.02.44-.01.89.02,1.33.07.88.72,1.59,1.58,1.76,2.71.53,5.37.23,7.97-.63.99-.32,1.66-1.28,1.66-2.32,0-3.75.02-7.5,0-11.25,0-1.6-1.37-2.92-2.98-2.88-1.84.04-3.67.14-5.5.22-2.05.09-4.1.18-6.15.29-1.61.09-2.78,1.41-2.69,3.03.08,1.52.21,3.03.28,4.55.13,2.91.16,5.82-.24,8.72-.1.72-.44,1.13-1.08,1.33-1.16.36-2.31.74-3.48,1.06-1.11.3-1.98.88-2.72,1.76-3.54,4.25-7.41,8.19-11.4,12.01-.71.68-1.43,1.36-2.16,2.03-.32.29-.48.63-.47,1.07.01.65.01,1.29,0,1.94,0,.32.12.43.43.42.4-.02.68-.21.93-.5,1.44-1.65,2.9-3.28,4.35-4.92.1-.11.21-.2.32-.3.04.03.07.06.11.08Z" stroke-width="0"/>
</svg>
