<?xml version="1.0" encoding="UTF-8"?>
<svg id="Capa_1" data-name="Capa 1" xmlns="http://www.w3.org/2000/svg" viewBox="0 0 25.31 26.04">
  <path d="m21.45,3.87c-.65.45-1.24.87-1.78,1.38-2.88,2.77-5.65,5.66-8.46,8.5q-.58.59-1.14.01c-.17-.17-.35-.35-.52-.52-.46-.47-.47-.62-.01-1.12,1.14-1.26,2.31-2.5,3.55-3.66,2.79-2.62,5.73-5.05,8.99-7.08.88-.55,1.81-1,2.8-1.32.41-.13.49-.07.42.36-.11.61-.39,1.15-.69,1.69-2.1,3.72-4.69,7.06-7.64,10.13-1.06,1.11-2.12,2.22-3.19,3.32-.65.67-1.04.68-1.74.08-.82-.7-.82-.82-.08-1.61,2.24-2.39,4.56-4.71,6.86-7.04.87-.88,1.76-1.74,2.48-2.76.07-.09.18-.17.18-.37Z" stroke-width="0"/>
  <path d="m8.17,11.69c-.02.5.14.92.45,1.29,1.22,1.45,2.55,2.78,4,4,.4.34.85.53,1.39.45.19-.03.38.03.53.17.35.33.69.65,1.04.98.24.22.16.37-.12.46-.49.16-.98.35-1.48.46-.66.14-1.27-.08-1.78-.51-.46-.4-.91-.82-1.34-1.25-.25-.25-.45-.29-.71,0-.27.29-.58.53-.87.8-.24.22-.43.19-.57-.12-.33-.72-.61-1.45-.87-2.2-.09-.25-.07-.49.14-.68.29-.26.21-.48-.03-.72-.43-.44-.83-.9-1.26-1.34-.54-.55-.72-1.19-.54-1.94.11-.46.25-.92.42-1.36.11-.29.27-.37.5-.12.33.35.65.7.98,1.04.17.18.19.38.13.59Z" stroke-width="0"/>
  <path d="m8.3,19.16c-.01.17-.07.33-.19.44-.3.28-.6.55-.91.81-.2.17-.38.13-.49-.12-.27-.6-.53-1.19-.79-1.79-.09-.21-.02-.41.11-.57.31-.39.63-.78.95-1.17.12-.15.29-.21.38.01.32.75.61,1.51.92,2.26.01.04.01.08.02.12Z" stroke-width="0"/>
  <path d="m1.34,23.16c.55,0,1.02.43,1.17,1.06.13.56-.04.9-.61,1.17-.45.21-.92.41-1.38.6-.36.14-.55-.02-.51-.4.06-.55.12-1.11.21-1.65.08-.5.49-.77,1.13-.77Z" stroke-width="0"/>
  <path d="m4.21,20.39c-.01-.24.05-.36.14-.46.24-.29.49-.58.74-.87.19-.22.36-.24.49.05.24.53.48,1.07.71,1.6.09.21.06.41-.1.57-.27.27-.56.52-.84.77-.14.13-.34.14-.43-.02-.32-.54-.52-1.13-.7-1.63Z" stroke-width="0"/>
  <path d="m4.41,22.67c-.16.41-.5.69-.87.9-.28.16-.47-.1-.65-.28q-.87-.87-.08-1.82c.12-.15.25-.29.38-.43.28-.29.4-.29.56.06.23.5.51.99.66,1.56Z" stroke-width="0"/>
</svg>