<?xml version="1.0" encoding="UTF-8"?>
<svg id="icon" data-name="Capa 1" xmlns="http://www.w3.org/2000/svg" viewBox="0 0 38.44 38.4">
  <path d="m33.71,14.34c-2.64-.07-5.28-.02-7.92-.02q-1.63,0-1.62-1.56c0-2.46.01-4.91,0-7.37-.01-1.58-.42-3.04-1.68-4.1C20.96.01,19.24-.39,17.38.41c-2.02.86-3.03,2.48-3.08,4.64-.06,2.6-.07,5.21,0,7.81.03,1.1-.25,1.51-1.42,1.47-2.64-.08-5.28-.05-7.92-.01C2.21,14.36-.02,16.58,0,19.21c.02,2.72,2.16,4.82,4.95,4.84,2.64.02,5.28.06,7.92-.02,1.17-.04,1.45.38,1.42,1.48-.07,2.53-.03,5.06-.02,7.59,0,1.59.47,3.02,1.72,4.08,1.53,1.3,3.29,1.56,5.12.81,2.05-.84,2.98-2.53,3.03-4.67.06-2.64.05-5.28,0-7.92-.02-.99.23-1.43,1.31-1.36,1.33.09,2.68.02,4.02.02,0-.02,0-.04,0-.05,1.67,0,3.36.15,5.02-.04,2.24-.25,4.07-2.66,3.94-4.87-.15-2.64-2.13-4.69-4.72-4.76Z" fill="#1d1d1b" stroke-width="0"/>
</svg>
