<?xml version="1.0" encoding="UTF-8"?>
<svg id="icon" data-name="Capa 1" xmlns="http://www.w3.org/2000/svg" viewBox="0 0 32.09 22.3">
  <path d="m31.14,9.36c-2.55-2.52-5.09-5.04-7.66-7.54-.54-.52-1.03-1.12-1.67-1.53-1.07-.69-2.24-.11-2.3,1.18-.07,1.56-.07,3.13-.04,4.69.01.54-.13.69-.65.69-.05,0-.84,0-2,0h0c-1.97,0-3.43,0-3.48,0-.58.02-.78-.2-.76-.77.03-1.26.02-2.53.03-3.79,0-.44,0-.89-.18-1.3-.32-.78-1.09-1.1-1.86-.78-.32.13-.57.35-.82.59C6.83,3.68,3.89,6.57.95,9.45c-1.27,1.25-1.27,2.23,0,3.48,2.55,2.52,5.09,5.04,7.66,7.54.54.52,1.03,1.12,1.67,1.53,1.07.69,2.24.11,2.3-1.18.07-1.56.07-3.13.04-4.69-.01-.54.13-.69.65-.69.06,0,1.56,0,3.58,0h0c1.11,0,1.86,0,1.89,0,.58-.02.78.2.76.77-.03,1.26-.02,2.53-.02,3.79,0,.44,0,.89.18,1.3.32.78,1.09,1.1,1.86.78.32-.13.57-.35.82-.59,2.94-2.89,5.88-5.77,8.81-8.66,1.27-1.25,1.27-2.23,0-3.48Z" fill="#1d1d1b" stroke-width="0"/>
</svg>
