<?xml version="1.0" encoding="UTF-8"?>
<svg id="icon" data-name="Capa 1" xmlns="http://www.w3.org/2000/svg" viewBox="0 0 40 31.08">
  <path d="m5.6,20.17c.61.6,1.28,1.15,1.91,1.72,1.84-1.38,3.62-2.72,5.39-4.07.09-.07.14-.26.12-.37-.16-.87-.18-1.75.01-2.61.92-4.18,5.46-6.33,9.27-4.39.2.1.33.09.51-.04.66-.51,1.34-1.01,2.01-1.52.48-.37.97-.73,1.5-1.13-.17-.07-.28-.12-.39-.16-3.24-1.16-6.57-1.45-9.95-.83-5.64,1.03-10,4.02-13.12,8.82-.25.39-.24.75,0,1.13.8,1.25,1.7,2.42,2.75,3.45Z" fill="#1d1d1b" stroke-width="0"/>
  <path d="m.11,30.9c.21.27.48.18.75.1,1.65-.49,3.32-.86,5.02-1.11.71-.1,1.43-.19,2.15-.21.34,0,.6-.16.61-.52.01-.33-.23-.45-.53-.5-.36-.06-.73-.12-1.08-.23-.4-.13-.84-.16-1.24-.45.2-.15.39-.29.59-.44.03-.02.06-.03.09-.06,1.43-1.08,2.87-2.15,4.29-3.24.2-.16.37-.19.61-.08,3.64,1.64,7.43,2.16,11.36,1.44,5.63-1.03,9.97-4.02,13.08-8.81.27-.42.27-.83,0-1.25-.96-1.5-2.08-2.86-3.42-4.04-.72-.64-1.5-1.22-2.26-1.84.08-.07.18-.15.28-.22,1.18-.88,2.36-1.76,3.53-2.64.12-.04.24-.06.39-.01.55.17,1.13.21,1.7.26.36.04.7-.07.99-.3.92-.76,1.83-1.52,2.75-2.28.16-.14.29-.3.18-.52-.1-.21-.29-.25-.52-.23-.56.04-1.12.06-1.67-.04-.78-.14-1.18-.65-1.12-1.43.05-.55.22-1.08.4-1.59.08-.21.09-.4-.09-.55-.19-.16-.38-.09-.56.03-.99.67-1.98,1.33-2.96,2-.29.2-.49.48-.55.82-.11.55-.21,1.11-.2,1.68,0,.2-.06.34-.18.47-.03.02-.06.04-.09.07-7.64,5.75-15.28,11.5-22.93,17.26-1.47,1.11-2.95,2.22-4.42,3.33-.12.09-.2.18-.25.26-.05.04-.1.07-.15.11-.07.05-.14.16-.24.1-.08-.05-.07-.17-.07-.26-.05-.68-.03-1.37.03-2.05.03-.3-.03-.56-.36-.63-.34-.08-.55.11-.65.41-.77,2.31-1.92,4.43-3.2,6.49-.15.23-.3.46-.08.73ZM25.16,13.41c1.21,2.38.82,5.87-1.93,7.94-2.68,2.01-6.13,1.51-8.13-.34,3.35-2.53,6.69-5.05,10.06-7.6Z" fill="#1d1d1b" stroke-width="0"/>
</svg>
