<?xml version="1.0" encoding="UTF-8"?>
<svg id="icon" data-name="Capa 1" xmlns="http://www.w3.org/2000/svg" viewBox="0 0 37.75 37.73">
  <path d="m25.18,37.69c-.39.04-.62.04-1.01.04-.06,0-.26-.01-.29-.02-1.98-.26-4.01-2.12-4.01-4.98,0-9.22,0-18.43.01-27.65,0-.66.13-1.35.36-1.98C21,.99,23.17-.27,25.23.05c2.82.44,4.41,3.33,3.98,5.56-.34,1.75-1.29,2.84-3.02,3.25-.18.04-.36.07-.54.12-.58.14-.88.57-.8,1.13.07.51.53.88,1.09.81,1.73-.23,3.2-.93,4.22-2.41.52-.76.81-1.61,1-2.5.86-.05,2.1.52,2.87,1.28,1.52,1.51,1.92,3.78,1.03,5.79-.3.68-.2,1.11.34,1.48,1.87,1.25,2.6,3.01,2.29,5.2-.16,1.09-.66,2.01-1.45,2.78-.32-.4-.59-.79-.91-1.14-1.62-1.77-3.64-2.15-5.89-1.59-.48.12-.77.56-.73,1.02.04.46.4.87.87.91.23.02.46-.04.69-.08,1.39-.27,2.64-.02,3.59,1.08,1.17,1.36,1.83,2.91,1.64,4.77-.23,2.17-2.01,4.02-4.18,4.26-.03-.18-.06-.36-.08-.54-.3-2.98-2.29-5.02-5.24-5.4-.64-.08-1.16.39-1.14,1.04.02.52.36.85.99.96,1.89.32,2.92,1.29,3.33,3.15.16.73.18,1.46.13,2.21-.12,1.9-1.43,3.71-3.22,4.34-.3.1-.55.14-.89.18Z" stroke-width="0"/>
  <path d="m12.57.04c.39-.04.62-.04,1.01-.04.06,0,.26.01.29.02,1.98.26,4.01,2.12,4.01,4.98,0,9.22,0,18.43-.01,27.65,0,.66-.13,1.35-.36,1.98-.76,2.11-2.94,3.38-5,3.06-2.82-.44-4.41-3.33-3.98-5.56.34-1.75,1.29-2.84,3.02-3.25.18-.04.36-.07.54-.12.58-.14.88-.57.8-1.13-.07-.51-.53-.88-1.09-.81-1.73.23-3.2.93-4.22,2.41-.52.76-.81,1.61-1,2.5-.86.05-2.1-.52-2.87-1.28-1.52-1.51-1.92-3.78-1.03-5.79.3-.68.2-1.11-.34-1.48C.49,21.91-.24,20.15.07,17.95c.16-1.09.66-2.01,1.45-2.78.32.4.59.79.91,1.14,1.62,1.77,3.64,2.15,5.89,1.59.48-.12.77-.56.73-1.02-.04-.46-.4-.87-.87-.91-.23-.02-.46.04-.69.08-1.39.27-2.64.02-3.59-1.08-1.17-1.36-1.83-2.91-1.64-4.77.23-2.17,2.01-4.02,4.18-4.26.03.18.06.36.08.54.3,2.98,2.29,5.02,5.24,5.4.64.08,1.16-.39,1.14-1.04-.02-.52-.36-.85-.99-.96-1.89-.32-2.92-1.29-3.33-3.15-.16-.73-.18-1.46-.13-2.21.12-1.9,1.43-3.71,3.22-4.34.3-.1.55-.14.89-.18Z" stroke-width="0"/>
</svg>
