<?xml version="1.0" encoding="UTF-8"?>
<svg id="Capa_1" data-name="Capa 1" xmlns="http://www.w3.org/2000/svg" viewBox="0 0 31.27 39.45">
  <path d="m28.98,2.28c-.05.09-.08.2-.14.27-1.35,1.64-2.68,3.31-4.07,4.91-.42.48-.98.86-1.54,1.17-1.03.57-2.11,1.04-3.16,1.57-.13.07-.21.23-.32.35.16.06.31.13.47.19,0,0,0,0,.01,0,.03,0,.06,0,.09-.01,1.61-.67,3.29-1.22,4.82-2.05.94-.52,1.65-1.47,2.47-2.22.12-.11.26-.21.5-.25-.03.15-.04.3-.09.44-1.69,4.56-3.38,9.12-5.09,13.68-.33.9-1.11,1.44-1.78,2.05-2.26,2.05-4.89,3.53-7.59,4.89-.26.13-.53.25-.78.41-.09.06-.18.22-.16.31.01.08.15.19.25.2,0,0,.02,0,.02,0,1.15.03,2.28.01,3.22-.84.81-.74,1.75-1.33,2.81-1.66,1.13-.34,1.98-1.05,2.72-1.92.55-.65,1.1-1.3,1.66-1.93.1-.12.3-.15.45-.22.05.16.13.32.13.48,0,.67-.06,1.34-.04,2.01.02.61-.22,1.07-.65,1.46-1.38,1.27-2.74,2.57-4.15,3.82-.34.3-.79.56-1.22.67-5.51,1.27-10.49,3.68-15.11,6.89-.11.07-.22.15-.33.22-.02.01-.05.01-.12.02.02-.16.03-.3.05-.44.26-1.36.56-2.72.79-4.09.27-1.63,1.12-2.89,2.31-3.99,2.31-2.14,4.96-3.73,7.95-4.71,1.77-.58,3.04-1.63,3.99-3.19.61-1,1.39-1.83,2.53-2.3,1.12-.47,2.05-1.22,2.7-2.26.08-.13.07-.32.1-.48-.16.05-.34.05-.47.14-1.17.86-2.42,1.54-3.8,1.99-.98.32-1.58,1.12-2.19,1.9-.29.37-.56.77-.84,1.15-.49.67-1.12,1.14-1.9,1.42-3.13,1.1-5.94,2.77-8.66,4.63-.15.1-.31.18-.47.26-.03-.03-.07-.06-.1-.09.06-.15.11-.31.19-.46.34-.59.7-1.18,1.05-1.77.42-.72.54-1.51.36-2.32-.25-1.11-.23-2.19,0-3.3.45-2.12.85-4.26,1.25-6.4.11-.57.4-.88.95-1.06,2.69-.88,5.35-1.83,8.05-2.66,2.25-.69,4.35-1.67,6.32-2.96,1.96-1.29,3.99-2.49,5.99-3.72.16-.1.33-.17.55-.19m-15.83,12.6c.36.06.67-.05.96-.36,1-1.09,2.01-2.18,3.12-3.38,0-.06.11-.31.03-.4-.06-.07-.16-.1-.27-.12-.09-.02-.18-.02-.26-.03-.12,0-.25.06-.38.1-2.01.71-4.03,1.41-6.03,2.14-.2.07-.35.3-.52.45.18.16.34.37.55.47.82.36,1.66.68,2.48,1.02.11.05.22.08.32.1m14.96-8.67h0M29.39.03c-.18-.03-.36-.04-.55-.03-.57.04-1.1.21-1.61.52-.58.36-1.16.71-1.75,1.07-1.41.86-2.87,1.75-4.3,2.69-1.78,1.17-3.66,2.05-5.73,2.69-1.74.54-3.48,1.12-5.16,1.69-.98.33-1.95.66-2.93.98-1.34.44-2.22,1.43-2.47,2.8l-.02.11c-.38,2.05-.78,4.17-1.22,6.24-.32,1.49-.31,2.89,0,4.28.06.25.03.44-.11.67-.17.28-.33.57-.5.85-.18.31-.37.61-.55.92-.15.26-.24.5-.3.65l-.03.07c-.32.77-.19,1.64.31,2.28-.86,1.15-1.39,2.39-1.62,3.75-.15.89-.32,1.76-.51,2.68-.09.45-.18.9-.27,1.35-.03.16-.05.32-.07.49v.11c-.1.72.16,1.43.69,1.93.33.31.74.51,1.17.59.24.04.49.05.74,0,.16-.02.56-.08.99-.35.13-.09.27-.18.4-.27,4.71-3.27,9.4-5.41,14.33-6.54.78-.18,1.57-.6,2.23-1.18.94-.84,1.86-1.7,2.76-2.53.47-.44.94-.88,1.41-1.31,1.19-1.09,1.41-2.34,1.39-3.2,0-.31,0-.65.02-1.01.01-.31.02-.62.02-.93,0-.52-.15-.93-.22-1.13-.1-.33-.27-.63-.49-.88,1.52-4.07,3.03-8.15,4.55-12.23l.16-.43c.11-.31.16-.58.18-.74,0-.03.01-.06.02-.1.11-.65-.06-1.28-.43-1.77l.68-.83c.24-.3.37-.58.43-.72.37-.73.31-1.58-.14-2.26-.35-.53-.89-.87-1.5-.98h0Z" fill="#1d1d1b" stroke-width="0"/>
</svg>