<?xml version="1.0" encoding="UTF-8"?>
<svg id="icon" data-name="Capa 1" xmlns="http://www.w3.org/2000/svg" viewBox="0 0 37.13 37.16">
  <path d="m18.52,29.36c-3.37-.26-6.4-1.4-8.89-3.78-1.56-1.5-3.21-2.88-5.09-3.97-1.01-.59-2.1-.95-3.25-1.15C.51,20.33.01,19.78,0,19.06c-.01-.69.48-1.32,1.22-1.43,2.08-.31,3.84-1.29,5.44-2.58,1.26-1.02,2.43-2.15,3.69-3.18,2.39-1.95,5.15-3.1,8.22-3.08,3.44.02,6.45,1.35,8.96,3.73,1.62,1.54,3.31,2.97,5.27,4.06.94.52,1.94.85,3,1.03.81.14,1.32.67,1.35,1.41.02.73-.47,1.32-1.32,1.46-2.06.35-3.82,1.33-5.41,2.63-1.23,1.01-2.4,2.11-3.62,3.13-2.03,1.69-4.4,2.64-7,3-.4.06-.81.09-1.25.13Zm.05-4.86c2.53-.02,4.77-.83,6.78-2.36,1.04-.79,2.13-1.51,3.22-2.24.74-.49.74-1.24,0-1.73-1.1-.73-2.21-1.45-3.25-2.26-3.88-3.03-9.21-3.14-13.2-.24-1.16.84-2.32,1.67-3.52,2.46-.81.54-.82,1.26,0,1.79,1.05.68,2.1,1.38,3.09,2.14,2.03,1.57,4.3,2.41,6.88,2.43Z" stroke-width="0"/>
  <path d="m20.61,34.66c.03,1.45-.71,2.34-1.89,2.48-.97.12-1.93-.6-2.16-1.66-.16-.77.02-1.52.23-2.25.26-.9.69-1.71,1.28-2.45.28-.35.7-.37.97-.02.95,1.21,1.49,2.58,1.57,3.9Z" stroke-width="0"/>
  <path d="m20.61,2.47c-.09,1.35-.63,2.73-1.58,3.93-.26.33-.69.32-.95,0-.94-1.2-1.5-2.55-1.57-4.08C16.47.99,17.37,0,18.57,0c1.19,0,2.07.99,2.04,2.47Z" stroke-width="0"/>
  <path d="m31.82,33.35c-.78-.01-1.37-.35-1.8-.94-.89-1.21-1.35-2.57-1.41-4.06-.02-.47.3-.75.76-.65,1.5.32,2.82,1.01,3.86,2.15.61.67.79,1.46.41,2.31-.35.78-.98,1.17-1.81,1.2Z" stroke-width="0"/>
  <path d="m33.8,5.81c0,.61-.22,1.14-.65,1.58-1.05,1.07-2.31,1.75-3.77,2.07-.48.1-.81-.17-.78-.66.07-1.48.53-2.83,1.4-4.03.55-.75,1.3-1.1,2.21-.91.81.16,1.33.7,1.55,1.51.02.07.04.13.04.2,0,.08,0,.16,0,.25Z" stroke-width="0"/>
  <path d="m8.5,8.49c.01.12.04.24.04.37,0,.43-.31.7-.73.61-1.55-.32-2.89-1.03-3.95-2.22-.78-.87-.7-2.15.12-2.91.82-.76,2.1-.73,2.9.14.83.9,1.28,2.01,1.52,3.2.05.27.08.54.12.81h-.02Z" stroke-width="0"/>
  <path d="m8.5,28.66c-.1,1.36-.56,2.6-1.35,3.71-.54.75-1.28,1.11-2.2.94-.83-.16-1.38-.69-1.58-1.53-.18-.74.04-1.41.55-1.96,1.05-1.11,2.34-1.81,3.83-2.12.56-.12.81.2.74.96Z" stroke-width="0"/>
  <path d="m15.28,19.01c.02-1.81,1.48-3.27,3.28-3.28,1.83,0,3.3,1.49,3.29,3.35-.01,1.8-1.5,3.26-3.3,3.25-1.82-.01-3.28-1.5-3.26-3.33Z" stroke-width="0"/>
</svg>
