<?xml version="1.0" encoding="UTF-8"?>
<svg id="icon" data-name="Capa 1" xmlns="http://www.w3.org/2000/svg" viewBox="0 0 29.8 37.52">
  <path d="m29.34,4.21c-.25-.23-.59-.35-.94-.35-.05,0-.1,0-.15.01-.32.03-.87.08-1.66.08-2.16,0-7.51-.35-10.72-3.54-.26-.26-.6-.4-.97-.4s-.72.14-.98.4C10.73,3.6,5.37,3.95,3.22,3.95c-.79,0-1.34-.04-1.68-.08-.04-.01-.09-.01-.13-.01-.36,0-.69.12-.95.35-.28.26-.46.64-.46,1.04v17.37c0,8.41,12.89,14.17,14.36,14.8.16.07.35.11.55.11.19,0,.37-.04.53-.11,1.47-.63,14.36-6.39,14.36-14.8V5.25c0-.39-.16-.77-.46-1.04Zm-2.31,18.41c0,6.12-10.69,11.32-11.9,11.9l-.24.11-.23-.11c-1.21-.57-11.9-5.77-11.9-11.9V6.73h.55c2.08,0,7.33-.32,11.26-3.24l.33-.24.32.24c3.94,2.92,9.18,3.24,11.25,3.24h.55v.55s.01,15.34.01,15.34Z" fill="#010101" stroke-width="0"/>
  <path d="m6.21,22.63c0,2.36,4.23,5.83,8.69,8.15V7.38c-2.97,1.68-6.24,2.38-8.69,2.63v12.63Z" fill="#010101" stroke-width="0"/>
</svg>
