<?xml version="1.0" encoding="UTF-8"?>
<svg id="icon" data-name="Capa 1" xmlns="http://www.w3.org/2000/svg" viewBox="0 0 36.82 39.11">
  <path d="m11.47,25.78c0,.13.01.24.02.34.06.65.37,1.14.98,1.39.62.25,1.19.1,1.66-.35.71-.69,1.4-1.4,2.1-2.09.42-.41.84-.82,1.33-1.3-.47-.41-.91-.79-1.36-1.19,1.21-1.16,2.64-1.74,4.08-2.5-.49-.42-.94-.81-1.43-1.24,2.55-1.53,4.59-3.42,6.28-5.76.71.42,1.4.84,2.14,1.28-1.28,1.74-1.77,3.64-1.2,5.78-.25.1-.5.2-.74.3-1.4.61-2.5,1.59-3.5,2.74-2.75,3.15-5.65,6.16-8.91,8.79-1.59,1.28-3.3,2.4-5.31,2.97-1.55.44-3.13.5-4.71.21-.05,0-.09-.04-.19-.08.23-.2.44-.38.65-.56,2.04-1.7,3.63-3.79,5.13-5.96.35-.5.71-1,1.07-1.5.47-.65,1.09-1.08,1.9-1.26Z" fill="#1d1d1b" stroke-width="0"/>
  <path d="m36.8,7.56c-.16,2.22-1.73,4.09-4.06,4.55-1.16.22-2.32.07-3.43-.27-.35-.1-.51-.02-.67.26-.1.18-.22.33-.36.52-.71-.42-1.41-.84-2.11-1.26.14-.23.26-.45.38-.65-2.21-1.32-4.56-1.95-7.13-1.65-1.8.21-3.47,1.87-3.7,3.67-.03.23-.06.47-.09.72h-1.25c-.07-.69.09-1.34.32-1.96.83-2.27,2.99-3.75,5.42-3.8,2.25-.04,4.36.42,6.35,1.49.19.1.4.2.67.33.17-.52.32-1.01.46-1.51.41-1.61,1.3-2.84,2.72-3.71.23-.14.37-.11.58.04.43.31.9.55,1.41.83.32,2.26-1.05,3.85-2.44,5.42,1.45.51,3.02.43,4.14-.42,1.19-.91,1.65-2.14,1.47-3.62-.12-1.15-.56-2.15-1.29-3.08-1.14.6-2.07.48-2.72-.32-.52-.67-.57-1.59-.1-2.29.49-.71,1.36-1.03,2.19-.77.8.26,1.35.99,1.34,1.84-.01.28.08.47.26.68,1.2,1.43,1.8,3.08,1.66,4.95Z" fill="#1d1d1b" stroke-width="0"/>
  <path d="m0,37.84s.05-.06.05-.07c.44-.42.9-.45,1.51-.3,2.92.74,5.71.31,8.34-1.15,2.29-1.27,4.34-2.86,6.19-4.72,1.36-1.36,2.72-2.72,4.08-4.08.1-.1.16-.25.26-.42.38.54.35.95.14,1.37-.05.09-.11.18-.19.26-2.44,2.37-4.67,4.97-7.39,7.04-1.5,1.14-3.05,2.22-4.86,2.81-2.71.88-5.36.67-7.92-.6-.07-.03-.13-.08-.23-.13Z" fill="#1d1d1b" stroke-width="0"/>
</svg>
