<?xml version="1.0" encoding="UTF-8"?>
<svg id="icon" data-name="Capa 1" xmlns="http://www.w3.org/2000/svg" viewBox="0 0 36.49 35.27">
  <path d="m12.07.16c-.16.14-.3.29-.47.41-2.26,1.69-4.32,3.59-5.64,6.11-2.65,5.04-3.2,10.26-.78,15.53,1.61,3.5,4.32,5.98,8.03,7.17,2.5.8,5.09.99,7.69.46,3.28-.66,5.76-2.52,7.51-5.33,2.41-3.88,3.24-8.02,1.66-12.43-.78-2.18-2.15-3.92-4.16-5.12-.19-.11-.37-.25-.57-.29-.18-.04-.39.02-.59.04.03.18.03.38.11.53.44.8.91,1.58,1.36,2.37.07.13.13.28.14.42,0,.11-.05.31-.12.33-.11.04-.3,0-.39-.07-.18-.15-.3-.35-.46-.52-2.46-2.5-5.42-3.17-8.75-2.33-3.24.82-5.44,3.57-5.65,6.92-.13,2.06.19,3.98,1.53,5.63,1.79,2.22,4.62,2.58,6.91,1.62,1.46-.61,1.96-1.98,1.83-3.75-.07-.93-.44-1.74-1.18-2.33-.16-.13-.41-.15-.62-.22-.06.2-.17.41-.18.62-.02.4.04.8.02,1.2-.11,2.23-2.11,3.32-4.06,2.21-1.17-.66-1.68-1.78-1.81-3.05-.45-4.13,2.81-5.75,5.42-5.71,3.32.06,6.6,2.54,7.41,5.75.66,2.62-.19,4.91-2.04,6.8-1.95,2-4.41,2.74-7.14,2.51-5.05-.43-9.15-4.31-9.93-9.3-.86-5.5,1.13-9.7,5.75-12.7,4.32-2.8,10.51-3.02,14.88-.51,3.17,1.81,5.14,4.6,6.12,8.05,1.65,5.8.8,11.22-2.77,16.14-1.05,1.44-2.37,2.61-3.87,3.56-.13.08-.28.14-.37.25-.11.12-.16.27-.24.42.16.02.36.1.47.04.85-.46,1.73-.88,2.5-1.44,3.07-2.23,4.83-5.35,5.76-8.96.33-1.28.46-2.61.7-3.92.02-.13.15-.25.23-.37.08.14.23.28.23.42-.12,4.21-1.08,8.16-3.69,11.58-2.22,2.9-5.19,4.67-8.68,5.6-5.85,1.55-11.39.83-16.49-2.46C3.61,29.43,1.26,25.69.4,21c-.58-3.15-.59-6.28.36-9.37,1.28-4.15,3.89-7.3,7.45-9.68,1.04-.7,2.2-1.24,3.31-1.84.14-.08.32-.08.49-.11.02.05.04.1.06.16Z" stroke-width="0"/>
</svg>
