<?xml version="1.0" encoding="UTF-8"?>
<svg id="Capa_1" data-name="Capa 1" xmlns="http://www.w3.org/2000/svg" viewBox="0 0 35.49 35.27">
  <path d="m23.12,18.37c-1.29,1.2-1.79,2.7-1.39,4.44.44,1.93,2,3.04,3.82,2.76,1.39-.21,2.27-1.33,2.07-2.68-.05-.37-.25-.72-.35-1.09-.05-.18-.04-.37-.06-.56.2-.01.43-.1.61-.03.99.35,1.61,1.05,1.83,2.08.57,2.72-1.49,5.4-4.28,5.62-4.13.32-6.58-3.73-6.13-6.8.32-2.11,1.29-4,2.42-5.79,1.37-2.16,3.16-3.84,5.59-4.75,2.22-.83,4.47-.84,6.76-.31.21.05.53.06.64-.06.11-.12.03-.43.02-.65,0-.07-.05-.14-.07-.21-1.26-3.62-3.74-6.19-6.98-8.12-.12-.07-.34-.12-.44-.06-.09.06-.13.29-.11.42.28,1.52.24,3.05-.21,4.52-1.06,3.51-3.32,5.92-6.86,6.96-2.32.68-4.1-.74-4.16-3.15-.05-1.67.64-3.09,1.53-4.44.04-.06.14-.09.31-.19.03.29.07.52.06.74-.01,1.05.01,2.1.46,3.07.47,1.02,1.45,1.31,2.36.66.39-.28.8-.64,1-1.07.45-.91.85-1.86,1.12-2.84.37-1.34.07-2.61-.72-3.76-.72-1.06-1.67-1.84-2.85-2.34-1.3-.55-2.66-.61-4.05-.46-3.95.45-7.47,1.9-10.2,4.85C1.12,9.2-.42,14.09.1,19.59c.31,3.32,1.41,6.39,3.34,9.13.11.15.24.28.37.42.05-.02.09-.03.14-.05,0-.15.03-.3.03-.45,0-.64-.03-1.28.02-1.92.32-4.16,4.07-7.64,8.24-7.67,1.98-.02,3.31.89,3.9,2.67.53,1.57,0,2.78-1.51,3.46-.2.09-.46.05-.69.07.05-.21.05-.46.15-.64.47-.8.51-1.59,0-2.38-.55-.84-1.32-1.27-2.32-1.18-1.42.12-2.62,1.19-2.88,2.83-.56,3.54.6,6.51,3.34,8.8,1.9,1.59,4.19,2.27,6.63,2.51,4.26.42,8.07-.64,11.3-3.52,2.64-2.35,4.28-5.19,4.09-8.85-.1-1.85-.72-3.47-2.18-4.69-2.44-2.02-6.61-1.92-8.93.24Zm-15.35-4.27c-.39-.06-.61-.42-.53-.86.13-.69,1.1-1.64,1.8-1.76.54-.09.83.19.83.79,0,.79-1.33,1.94-2.1,1.83Zm6.11-8.41c-.05.16-.11.31-.19.45-1.07,1.83-2.66,2.99-4.67,3.56-.78.22-1.55.01-2.06-.68-.49-.67-.4-1.38-.03-2.07.77-1.45,3.64-3.18,5.35-3.18.07,0,.22,0,.37.02,1.18.13,1.6.78,1.23,1.89Z" fill="#1d1d1b" stroke-width="0"/>
  <path d="m35.25,14.63c-.16-1.29-.82-1.97-2.08-2.21-3.41-.63-6.36.29-8.88,2.66-.1.09-.17.21-.26.32l.07.11c.19-.07.38-.12.57-.2,1.81-.81,3.68-1.21,5.66-.71,2.01.51,3.43,1.8,4.6,3.44.1.14.26.22.39.33.06-.17.19-.35.18-.52-.06-1.08-.11-2.16-.24-3.22Z" fill="#1d1d1b" stroke-width="0"/>
  <path d="m7.26,24.13c0-.18-.08-.36-.13-.54-.15.12-.33.21-.43.36-1.01,1.5-1.34,3.19-1.27,4.96.06,1.5.7,2.75,1.94,3.58,1.01.68,2.13,1.2,3.2,1.78.13.07.29.08.43.12.03-.04.06-.08.09-.12-.08-.12-.15-.26-.25-.36-2.69-2.72-3.78-6.01-3.58-9.79Z" fill="#1d1d1b" stroke-width="0"/>
  <path d="m24.24,5.12c.3,2.29-.47,4.29-1.8,6.16.11-.06.22-.11.31-.18,2.51-1.69,3.72-4.68,3.06-7.63-.15-.66-.33-1.42-.76-1.9-1.15-1.27-2.77-1.44-4.39-1.58,2.01,1.16,3.28,2.82,3.58,5.12Z" fill="#1d1d1b" stroke-width="0"/>
</svg>