<?xml version="1.0" encoding="UTF-8"?>
<svg id="icon" data-name="Capa 1" xmlns="http://www.w3.org/2000/svg" viewBox="0 0 37.92 37.89">
  <path d="m15.91,26.66c.62-.8,1.14-1.68,1.68-2.54.23-.37.12-.73-.22-.94-.34-.22-.6-.16-.9.19-.18.22-.37.44-.55.65-1.6-.94-3.01-3.17-2.86-4.53.72.58,1.43,1.16,2.15,1.73.23.18.49.32.74.46.28.16.55.22.78-.08.25-.32.03-.55-.18-.76-.26-.25-.54-.48-.81-.72-.76-.66-1.53-1.3-2.25-2-.2-.19-.36-.53-.35-.8,0-.36.19-.72.3-1.08.05-.02.1-.04.15-.06.11.15.19.31.32.44,1.33,1.28,2.76,2.43,4.39,3.32.39.21.67.18.85-.1.18-.28.09-.55-.25-.81-.58-.45-1.19-.88-1.73-1.38-2.96-2.77-5.62-5.81-8.11-9-.07-.09-.12-.2-.19-.3.04-.05.07-.11.11-.16.31.15.63.29.94.46.82.45,1.62.91,2.44,1.36.26.14.52.09.72-.13.2-.22.22-.48.06-.73-.12-.19-.24-.4-.41-.51-2-1.32-4-2.64-6.02-3.92-.36-.23-.83-.31-1.26-.36-.51-.06-.78.34-.59.82.15.37.33.74.56,1.07.78,1.14,1.55,2.29,2.4,3.37,1.18,1.51,2.43,2.98,3.67,4.45.23.28.4.55.27.91-.13.35-.29.68-.44,1.02-.02-.04-.04-.07-.06-.11-.23.08-.55.09-.66.25-.1.14.02.45.06.68.01.08.1.14.12.22.07.23.18.46.16.69-.29,3.08.73,5.6,3.1,7.59.16.13.32.25.48.38-.06.08-.09.12-.13.16-1.93,2.13-3.97,4.15-6.18,6-.46.38-1.02.7-1.58.89-.94.31-2.24-.18-1.8-1.72.36-1.24.98-2.36,1.74-3.4.3-.41.28-.82-.04-1.07-.29-.22-.58-.15-.93.23-1.34,1.47-2.52,3.06-3.43,4.82-.64,1.24-1.23,2.53-1.7,3.85-.43,1.2.18,2.28,1.25,2.42.61.08,1.26.07,1.87-.02,1.8-.29,3.25-1.28,4.56-2.48,2.89-2.63,5.41-5.59,7.79-8.67Z" fill="#1d1d1b" stroke-width="0"/>
  <path d="m14.32,12.58c.21.28.44.54.65.82.22.29.43.3.75.12.59-.33,1.2-.61,1.81-.91.02.04.05.07.07.11-.16.5-.1.79.23.98.39.22.62-.04.86-.28,1.96-1.89,4.02-3.67,6.27-5.2,1.25-.86,2.56-1.63,3.85-2.42.57-.35,1.15-.33,1.68.09.5.39.68.92.54,1.56-.37,1.63-1.02,3.14-1.83,4.59-.2.36-.46.71-.62,1.09-.06.15.01.45.13.57.1.1.37.07.55.02.12-.03.22-.17.32-.26,2.56-2.35,4.49-5.16,6.02-8.26.69-1.39.35-2.99-.77-4.01-1.16-1.05-2.67-1.2-4.05-.39-.58.34-1.15.69-1.7,1.06-3.35,2.24-6.25,4.99-8.93,7.97-.32.36-.66.53-1.16.53-1.65.02-3.18.5-4.54,1.46-.34.24-.38.43-.13.76Z" fill="#1d1d1b" stroke-width="0"/>
  <path d="m37.83,30.21c-.22-.59-.49-1.19-.85-1.71-1.62-2.29-3.49-4.38-5.45-6.38-.29-.29-.64-.54-.99-.77-.36-.24-.73-.19-.99.08-.29.3-.27.64-.03.95.32.4.66.79,1,1.17,1.04,1.15,2.09,2.28,3.12,3.44.2.22.36.51.44.79.06.21.04.57-.1.67-.17.12-.48.05-.73.04-.07,0-.15-.07-.22-.11-2.23-1.3-4.39-2.7-6.38-4.34-.56-.46-.62-.66-.29-1.32.63-1.25.94-2.58.96-4.17-.02-.19-.04-.57-.09-.94-.35-2.55-1.61-4.53-3.74-5.96-.32-.21-.6-.18-.85.1-.8.89-1.6,1.79-2.39,2.68-.19.22-.22.46-.01.68.2.22.44.2.67.02.32-.25.64-.49.96-.74.72-.56,1.1-.53,1.72.13,2.14,2.32,2.19,5.89.11,8.27-.51.58-.49.84.05,1.37,1.63,1.59,3.5,2.89,5.39,4.15,1.82,1.21,3.66,2.4,5.71,3.2.57.22,1.2.37,1.81.39.9.02,1.49-.85,1.17-1.69Z" fill="#1d1d1b" stroke-width="0"/>
  <path d="m35.76,33.17c-.84-.09-1.7-.14-2.5-.39-2.63-.81-4.96-2.22-7.02-4.01-1.79-1.55-3.46-3.23-5.2-4.84-.32-.3-.67-.58-1.04-.83-.3-.2-.7-.09-.8.23-.07.22-.04.53.06.74.35.75.35.82-.2,1.44-1.3,1.44-2.6,2.87-3.89,4.32-.45.5-.87,1.01-1.29,1.54-.24.3-.18.73.08.95.3.24.59.2.87-.04.14-.12.28-.23.4-.37,1.2-1.3,2.41-2.59,3.59-3.91.54-.61,1.16-1.01,1.98-1.14.49-.08.89.04,1.27.36,1.54,1.33,3.09,2.65,4.63,3.97.1.09.17.21.25.32-.02.03-.04.07-.07.1-.13-.02-.26-.03-.38-.07-1.15-.4-2.23-.93-3.22-1.65-.21-.16-.42-.34-.67-.42-.22-.07-.55-.11-.72,0-.29.19-.1.5.02.75.04.09.09.18.16.24.52.44,1.01.92,1.58,1.29,1.61,1.05,3.42,1.64,5.26,2.17,2.27.66,4.56.87,6.9.6.53-.06.75-.27.72-.72-.03-.43-.27-.57-.77-.62Z" fill="#1d1d1b" stroke-width="0"/>
  <path d="m5.2,11.44c.52.63,1.13,1.19,1.72,1.75.2.19.51.36.78.08.24-.25.15-.55,0-.81-.08-.16-.19-.31-.3-.45-.42-.54-.83-1.08-1.26-1.62-1.26-1.6-2.48-3.22-3.3-5.11-.37-.87-.67-1.76-.65-2.72.04-.02.08-.04.12-.06.18.2.36.41.55.61.28.3.69.32,1.02.07.3-.23.37-.58.16-.93-.36-.56-.82-1.03-1.45-1.27-.79-.3-1.51.03-1.74.85-.1.35-.14.75-.1,1.11.11,1.14.46,2.22.94,3.27.89,1.93,2.17,3.6,3.5,5.22Z" fill="#1d1d1b" stroke-width="0"/>
  <path d="m7.29,17.68c.22.17.46.33.71.42.14.05.4,0,.48-.09.1-.12.15-.38.08-.52-.13-.28-.33-.55-.55-.77-2.26-2.37-4.32-4.91-6.2-7.6-.18-.26-.4-.5-.63-.72-.12-.12-.31-.17-.39-.21-.55,0-.9.37-.77.82.14.47.32.96.59,1.36,1.86,2.77,4.03,5.25,6.67,7.31Z" fill="#1d1d1b" stroke-width="0"/>
  <path d="m30.12,35.63c-.26-.15-.57-.2-.87-.28-2.06-.55-4.08-1.19-5.94-2.26-1.01-.58-2-1.2-3-1.8-.29-.17-.58-.2-.86.01-.27.2-.41.49-.31.8.07.21.23.41.4.56,2.78,2.4,6.04,3.63,9.66,3.93.29-.02.56-.05.82-.06.26,0,.54-.06.5-.36-.03-.2-.22-.44-.4-.54Z" fill="#1d1d1b" stroke-width="0"/>
  <path d="m.9,29.41c.33-.18.64-.44.89-.73,1.95-2.2,3.89-4.41,5.81-6.64.33-.38.59-.81.85-1.23.07-.12.04-.3.05-.46-.17,0-.37-.05-.5.02-.44.26-.9.51-1.28.85-2.19,2.01-4.11,4.29-5.95,6.61-.25.31-.38.72-.48.93,0,.63.24.83.61.64Z" fill="#1d1d1b" stroke-width="0"/>
  <path d="m8.38,4.02c1.37,1.02,2.74,2.05,4.13,3.06.8.58,1.62,1.14,2.44,1.68.13.08.32.06.49.09-.03-.16-.02-.36-.11-.49-.36-.48-.74-.94-1.13-1.39-1.49-1.77-3.35-3.08-5.3-4.3-.16-.1-.35-.15-.62-.26-.19.16-.44.29-.58.51-.15.25-.03.51.2.7.16.13.32.27.48.4Z" fill="#1d1d1b" stroke-width="0"/>
  <path d="m19.7,8.36c.32-.18.62-.43.88-.69.9-.89,1.77-1.81,2.68-2.69.82-.79,1.69-1.53,2.52-2.32.15-.14.28-.46.22-.63-.06-.21-.33-.35-.53-.55-.24.14-.42.21-.56.34-1.69,1.63-3.39,3.26-5.06,4.92-.31.31-.53.71-.74,1.1-.07.12-.05.43.03.48.15.09.42.13.56.05Z" fill="#1d1d1b" stroke-width="0"/>
  <path d="m35.28,12.33c-1.47,1.72-2.96,3.43-4.43,5.16-.21.25-.37.56-.48.86-.1.28.12.49.46.54.29-.2.64-.35.87-.6,1.49-1.67,2.96-3.36,4.44-5.04.08-.09.15-.21.19-.32.1-.34-.04-.61-.32-.79-.29-.18-.52-.05-.72.19Z" fill="#1d1d1b" stroke-width="0"/>
  <path d="m35.38,8.47c-.98,1.68-2.24,3.15-3.54,4.58-.21.23-.39.51-.52.79-.06.12-.03.37.06.45.11.09.35.14.48.08.29-.14.58-.33.81-.56,1.41-1.39,2.57-2.99,3.7-4.62.17-.24.26-.54.41-.86-.11-.17-.17-.4-.31-.46-.14-.07-.4-.05-.54.04-.21.14-.42.34-.55.56Z" fill="#1d1d1b" stroke-width="0"/>
  <path d="m7.85,28.42c-.66-.01-1.02.26-1.02.76,0,.55.47,1.03,1.03,1.07.55.04.98-.24,1.33-.6.86-.89,1.69-1.81,2.51-2.73.32-.37.28-.68-.03-.95-.32-.27-.67-.23-.99.11-.55.61-1.11,1.21-1.65,1.83-.32.36-.7.54-1.18.5Z" fill="#1d1d1b" stroke-width="0"/>
  <path d="m27.3,10.45c-.05.11-.03.25-.04.37.12-.05.27-.06.35-.14.7-.74,1.18-1.61,1.47-2.58.05-.18-.01-.48-.14-.59-.15-.13-.46-.2-.63-.13-1.43.57-2.63,1.49-3.69,2.6-.15.15-.16.54-.08.76.07.2.36.33.59.53.26-.18.48-.3.65-.46.48-.45.92-.92,1.41-1.36.09-.09.29-.06.44-.08,0,.14.06.3.02.42-.08.23-.24.44-.33.67Z" fill="#1d1d1b" stroke-width="0"/>
  <path d="m15,5.74c.39.38.82.71,1.26,1.03.11.08.3.05.45.07,0-.15.06-.33,0-.46-.14-.34-.31-.69-.51-1-.84-1.25-1.93-2.27-3.05-3.25-.19-.16-.46-.27-.71-.32-.29-.05-.51.1-.54.59.11.17.26.47.48.7.86.89,1.73,1.77,2.62,2.63Z" fill="#1d1d1b" stroke-width="0"/>
  <path d="m12.47,33.48c-.17-.08-.53,0-.66.15-.91,1.01-1.8,2.05-2.68,3.08-.2.23-.38.51-.1.81.25.27.69.33.98.08,1.06-.88,2.04-1.84,2.78-3.03.08-.12.11-.28.2-.53-.16-.18-.3-.47-.53-.57Z" fill="#1d1d1b" stroke-width="0"/>
  <path d="m27.53,1.53c.38,0,.7-.32.71-.72.01-.45-.29-.79-.71-.81-.38-.01-.75.34-.76.73,0,.39.37.79.76.79Z" fill="#1d1d1b" stroke-width="0"/>
  <path d="m8.94,23.35c-.39,0-.7.33-.7.73,0,.38.32.7.68.7.38,0,.72-.33.73-.71,0-.39-.33-.72-.71-.72Z" fill="#1d1d1b" stroke-width="0"/>
  <path d="m22.54,21.21c0-.33-.3-.64-.63-.66-.35-.01-.67.3-.68.65,0,.33.3.65.63.66.34.01.68-.31.68-.66Z" fill="#1d1d1b" stroke-width="0"/>
  <path d="m9.02,13.89c-.31,0-.59.26-.6.58,0,.31.26.6.57.61.32.01.58-.25.59-.58,0-.33-.25-.6-.56-.61Z" fill="#1d1d1b" stroke-width="0"/>
</svg>
