<?xml version="1.0" encoding="UTF-8"?>
<svg id="Capa_1" data-name="Capa 1" xmlns="http://www.w3.org/2000/svg" viewBox="0 0 38.1 37.96">
  <path d="m38,16.26c-.3-.59-.66-1.14-1.01-1.7-.06-.1-.21-.14-.33-.21-.04.14-.1.27-.12.41-.1.55-.1,1.13-.31,1.63-.4.98-1.28,1.41-2.41,1.31-.95-.08-1.53-.62-1.89-1.61-.35-.96-.72-1.93-1.2-2.82-.52-.96-1.18-1.85-1.81-2.75-.37-.53-.23-1.06.41-1.17.3-.05.74,0,.94.18.49.45.93.98,1.29,1.53.23.35.48.55.88.54.69-.02,1.38-.07,2.06-.14.13-.01.26-.15.39-.22-.14-.07-.27-.2-.41-.21-1.08-.08-1.92-.57-2.56-1.45-.43-.59-.88-1.17-1.3-1.77-.2-.29-.38-.32-.7-.18-.78.32-1.57.61-2.38.83-.28.07-.73,0-.93-.2-1.12-1.03-2.42-1.73-3.86-2.19-.62-.2-.97-.66-1.14-1.26-.1-.36-.07-.71.28-.94.35-.22.67-.14.96.12.42.38.83.77,1.23,1.16.23.23.5.37.79.18.8-.52,1.27-1.27,1.42-2.2.01-.08-.07-.21-.14-.27-.04-.03-.17.04-.25.09-.08.06-.14.14-.21.21-.68.65-1.28.66-1.87-.06-.44-.53-.82-1.11-1.22-1.67-.29-.41-.5-.42-.83-.06-1.07,1.16-2.13,2.33-3.24,3.45-.43.44-.58.89-.46,1.48.39,2.07,1.03,4.06,1.74,6.03.25.69.49.79,1.13.42.67-.39,1.33-.41,2.01-.06.29.15.58.3.83.49,1.88,1.43,2.87,3.36,3.04,5.7.12,1.61-.12,3.17-.81,4.65-.24.52-.65.57-1.02.15-.18-.2-.35-.41-.53-.6-.22-.23-.43-.56-.81-.34-.38.22-.19.58-.09.87.52,1.68.77,3.4.86,5.15,0,.17-.1.45-.21.49-.15.05-.41-.04-.54-.16-.38-.33-.73-.71-1.08-1.08-.32-.34-.68-.41-1.11-.29-.6.16-1.19.33-1.8.44-1.62.29-3.21.17-4.69-.58-1-.51-1.48-.77-.98-2.19.16-.44-.03-.63-.5-.59-1.19.1-2.31.46-3.43.86-.14.05-.33-.02-.49-.03.06-.16.08-.35.19-.46.62-.65,1.41-1,2.25-1.27,1.29-.41,2.19-1.24,2.62-2.54.16-.48.37-.62.89-.59.49.02.97.07,1.46.11.02-.04.05-.09.07-.13-.07-.07-.12-.17-.21-.21-.79-.41-1.57-.82-2.37-1.21-.31-.15-.52-.03-.64.27-.09.24-.14.49-.23.72-.42,1.1-1.16,1.85-2.33,2.13-.61.15-.84,0-.93-.61-.2-1.31-.18-2.62.06-3.92.44-2.33,1.61-4.16,3.83-5.19.91-.42,1.34-.32,2.03.4.88.92,1.75,1.84,2.62,2.76.18.19.38.32.63.15.24-.16.24-.39.13-.64-.02-.04-.03-.08-.05-.12-1.86-4.21-3.72-8.41-5.59-12.62-.07-.16-.28-.26-.42-.39-.09.16-.24.31-.25.48-.11,1.66-.91,2.81-2.44,3.5-.87.39-1.44,1.1-1.71,2.04-.29,1-.83,1.84-1.58,2.56-.55.52-1.17.59-1.82.19-.32-.2-.63-.42-.93-.66-.69-.56-1.37-1.13-2.06-1.69-.22-.18-.45-.48-.76-.17-.3.3.01.51.18.72.92,1.14,1.85,2.27,2.79,3.4.33.4.51.81.31,1.32-.2.52-.66.63-1.14.74-.49.11-1,.23-1.43.48-1.43.84-2.06,2.14-2.01,3.78.05,1.68.84,2.97,2.33,3.71,1.58.79,2.54,2.09,3.31,3.59.16.32.09.55-.18.77-.29.24-.58.49-.84.77-.53.6-.85,1.3-.82,2.11,0,.14.15.27.23.4.13-.08.28-.15.39-.25.09-.1.12-.25.19-.37.63-1.22,2.08-1.44,3.04-.45.36.37.7.78,1.11,1.1.85.69,1.74,1.34,2.62,2,.41.31.45.62.1.98-.23.24-.5.46-.72.72-.48.56-1.05.59-1.69.36-.18-.07-.35-.17-.54-.24-.08-.03-.18,0-.27-.01,0,.09-.03.19,0,.27.16.33.32.66.53.96.1.14.31.26.48.28.49.06.98.11,1.48.09.24,0,.49-.14.7-.29.44-.31.82-.68,1.26-.98.84-.57,1.69-.7,2.65-.19,1.04.55,2.15.52,3.13-.17,1.56-1.11,3.14-.86,4.18.95.69,1.2,1.79,1.71,3.18,1.55.71-.08,1.3-.4,1.59-1.04.6-1.28.68-2.58.03-3.9-.65-1.31-1.24-2.64-1.84-3.98-.06-.13.02-.32.04-.48.14.08.34.12.42.24.46.64.89,1.3,1.34,1.95.29.42.66.4.85-.07.55-1.31,1.56-2.09,2.85-2.59.53-.21,1.03-.52,1.49-.85.6-.44,1.15-.95,1.72-1.43.48-.4.5-.48.23-1.04-.44-.92-.52-1.82.18-2.64.64-.75,1.29-1.49,1.96-2.2.44-.47.79-1.73.51-2.28Zm-32.81,3.73c-.05.8-.62,1.2-1.4.97-.93-.27-1.37-.96-1.55-1.86-.2-1,.17-2,.96-2.53.08-.05.17-.1.26-.15,1.1-.54,1.89-.05,1.87.93-.05,1.03-.08,1.83-.13,2.63Zm22.41,13.67c0,.88-.59,1.49-1.43,1.49-1,0-1.78-.72-1.79-1.65,0-.92.74-1.69,1.64-1.69.87,0,1.59.84,1.58,1.85Zm6.53-13.14c-.23.67-.22,1.35-.15,2.05.08.81-.38,1.61-1.15,2.01-.83.44-1.52.01-1.49-1.1.17-1.25.74-2.5,1.64-3.6.22-.27.52-.26.8-.09.28.16.45.4.33.74Z" fill="#1d1d1b" stroke-width="0"/>
  <path d="m34.68,29.61c-1,0-1.82.79-1.83,1.77,0,1.02.84,1.89,1.83,1.89.93,0,1.7-.89,1.69-1.96,0-.95-.74-1.69-1.69-1.69Z" fill="#1d1d1b" stroke-width="0"/>
  <path d="m2.43,34.3c-1.01,0-1.81.78-1.81,1.78,0,.93.82,1.87,1.66,1.88,1.01,0,1.79-.84,1.78-1.96,0-.97-.7-1.7-1.62-1.7Z" fill="#1d1d1b" stroke-width="0"/>
  <path d="m32.6,6.13c.93,0,1.6-.59,1.6-1.42,0-.87-.79-1.65-1.69-1.65-.89,0-1.59.65-1.6,1.51-.01.89.71,1.57,1.68,1.57Z" fill="#1d1d1b" stroke-width="0"/>
  <path d="m2.55,5.45c0-.84-.55-1.43-1.33-1.43C.52,4.01,0,4.62,0,5.46c0,.75.53,1.32,1.24,1.32.69,0,1.31-.62,1.31-1.33Z" fill="#1d1d1b" stroke-width="0"/>
  <path d="m13.32,1.54c.44.02.81-.3.84-.71.03-.45-.29-.8-.77-.83-.43-.03-.8.3-.82.73-.02.42.32.8.74.81Z" fill="#1d1d1b" stroke-width="0"/>
  <path d="m5.43,31.95c-.42,0-.8.4-.79.83,0,.39.35.73.73.73.41,0,.81-.42.8-.83-.01-.38-.38-.73-.75-.73Z" fill="#1d1d1b" stroke-width="0"/>
  <path d="m22.47,21.69c.43,0,.74-.3.74-.74,0-.41-.31-.71-.72-.7-.41,0-.72.31-.72.72,0,.41.3.72.71.72Z" fill="#1d1d1b" stroke-width="0"/>
  <path d="m36.38,12.33c.38,0,.68-.32.68-.71,0-.4-.29-.69-.69-.69-.4,0-.69.28-.7.69,0,.42.3.73.71.72Z" fill="#1d1d1b" stroke-width="0"/>
</svg>