<?xml version="1.0" encoding="UTF-8"?>
<svg id="icon" data-name="Capa 1" xmlns="http://www.w3.org/2000/svg" viewBox="0 0 38.53 34.51">
  <path d="m37.37,7.46L20,.15c-.47-.2-1-.2-1.47,0L1.16,7.46C.46,7.76,0,8.45,0,9.21s.46,1.45,1.16,1.75l17.37,7.32c.24.1.49.15.74.15s.5-.05.74-.15l17.37-7.32c.7-.3,1.16-.98,1.16-1.75s-.46-1.45-1.16-1.75Z" fill="#1d1d1b" stroke-width="0"/>
  <path d="m19.27,26.47c-.25,0-.5-.05-.74-.15L1.16,19c-.96-.41-1.42-1.52-1.01-2.48.41-.96,1.52-1.42,2.48-1.01l16.64,7.01,16.63-7.01c.96-.41,2.08.05,2.48,1.01.41.96-.05,2.08-1.01,2.48l-17.37,7.31c-.24.1-.49.15-.74.15Z" fill="#1d1d1b" stroke-width="0"/>
  <path d="m19.27,34.51c-.25,0-.5-.05-.74-.15L1.16,27.05c-.96-.41-1.42-1.52-1.01-2.48.41-.96,1.52-1.42,2.48-1.01l16.64,7.01,16.64-7.01c.96-.41,2.08.05,2.48,1.01.41.96-.05,2.08-1.01,2.48l-17.37,7.31c-.24.1-.49.15-.74.15Z" fill="#1d1d1b" stroke-width="0"/>
</svg>
