<?xml version="1.0" encoding="UTF-8"?>
<svg id="icon" data-name="Capa 1" xmlns="http://www.w3.org/2000/svg" viewBox="0 0 29.8 37.52">
  <path d="m29.8,5.24c0-.39-.16-.77-.46-1.04-.25-.23-.59-.35-.94-.35-.05,0-.1,0-.15.01-.32.03-.87.08-1.66.08-2.16,0-7.51-.35-10.72-3.54-.26-.26-.6-.4-.97-.4s-.72.14-.98.4C10.73,3.6,5.36,3.95,3.22,3.95c-.79,0-1.34-.04-1.68-.08-.04-.01-.09-.01-.13-.01-.36,0-.69.12-.95.35-.28.26-.46.64-.46,1.04v17.37c0,8.41,12.89,14.16,14.36,14.8.16.07.35.11.55.11.19,0,.37-.04.53-.11,1.01-.43,7.31-3.27,11.22-7.7l-.17-.93s0-.11-.26-.01c-.42.16-.98.32-1.57.49-.09.03-.23.01-.28-.04-.05-.05-.05-.2-.02-.28.11-.3.24-.59.36-.89.11-.26.05-.36-.24-.39-.44-.05-.87-.09-1.31-.13-.28-.03-.34-.17-.16-.4.25-.33.5-.66.77-.97.15-.18.13-.31-.02-.47-.31-.34-.62-.69-.92-1.04-.06-.08-.14-.22-.11-.28.04-.08.18-.15.28-.16.47-.07.94-.13,1.41-.18.19-.02.29-.1.31-.3.03-.36.08-.72.15-1.07.02-.11.07-.24.15-.29.06-.03.2.04.28.1.34.26.67.54,1,.81.21.17.32.14.43-.11.12-.29.23-.58.36-.86.04-.09.14-.21.22-.22.07,0,.17.11.24.18.05.05.07.12.1.18.62,1.57.66,1.8.96,1.27,0,0,.86-1.96,1.19-3.1h0s0,0,0,0V5.24Zm-3.84,14.37c-.18.43-.4.51-.78.27-1.03-.65-2.07-1.3-3.09-1.96-.2-.13-.38-.21-.59-.06-.21.15-.19.36-.13.58.25,1,.49,2.01.73,3.01.1.4-.02.58-.43.65-.86.15-1.71.3-2.57.46-.48.09-.61.41-.3.79.5.62,1,1.23,1.49,1.85.3.37.25.59-.17.82-1.16.63-2.32,1.26-3.48,1.88-.2.11-.36.24-.32.5.05.26.24.33.47.36,1.54.2,3.09.4,4.63.6.39.05.49.17.47.56,0,.15-.02.31-.03.46-2.92,2.28-6.1,3.84-6.73,4.14l-.24.11-.23-.11c-1.21-.57-11.9-5.77-11.9-11.9V6.73h.55c2.08,0,7.33-.32,11.26-3.24l.33-.24.32.24c3.94,2.92,9.18,3.24,11.25,3.24h.55v.55s.01,9.74.01,9.74c-.35.87-.71,1.73-1.07,2.6Z" stroke-width="0"/>
  <path d="m21.1,8.84c-.31,0-.04,2.18-1.32,3.3-1.12.99-2.87.68-2.87.91,0,.23,1.84-.03,2.96,1.03,1.21,1.15.92,3.22,1.2,3.22.27,0,0-1.91,1.12-3.08,1.14-1.18,3.09-.96,3.08-1.24,0-.27-1.84.06-2.96-.98-1.2-1.11-.9-3.16-1.2-3.17Z" stroke-width="0"/>
  <path d="m14.9,16.15V7.37c-2.97,1.68-6.24,2.38-8.69,2.63v12.63c0,2.36,4.23,5.83,8.69,8.15v-9.06c.09-.53.27-1.17.74-1.66.97-1.01,2.64-.82,2.63-1.06,0-.23-1.57.05-2.53-.84-.61-.57-.77-1.42-.85-2.01Z" stroke-width="0"/>
</svg>
