<?xml version="1.0" encoding="UTF-8"?>
<svg id="icon" data-name="Capa 1" xmlns="http://www.w3.org/2000/svg" viewBox="0 0 29.8 37.52">
  <path d="m29.34,4.21c-.25-.23-.59-.35-.94-.35-.05,0-.1,0-.15.01-.32.03-.87.08-1.66.08-2.16,0-7.51-.35-10.72-3.54-.26-.26-.6-.4-.97-.4s-.72.14-.98.4C10.73,3.6,5.36,3.95,3.22,3.95c-.79,0-1.34-.04-1.68-.08-.04-.01-.09-.01-.13-.01-.36,0-.69.12-.95.35-.28.26-.46.64-.46,1.04v17.37c0,8.41,12.89,14.16,14.36,14.8.16.07.35.11.55.11.19,0,.37-.04.53-.11,1.47-.63,14.36-6.39,14.36-14.8V5.24c0-.39-.16-.77-.46-1.04Zm-14.21,30.3l-.24.11-.23-.11c-1.21-.57-11.9-5.77-11.9-11.9V6.73h.55c2.08,0,7.33-.32,11.26-3.24l.33-.24.32.24c3.94,2.92,9.18,3.24,11.25,3.24h.55v.55s.01,15.34.01,15.34c0,.14-.03.28-.05.43l-.3-.31-1.83-.27-2.08-1.54,1.43,2.2,1.82.32.58,1.3c-.38.98-.99,1.92-1.75,2.81l-3.62-1.48-.63-2.91-3.71-2.23,2.65,3.29.55,2.93,2.72,2.44c-3.13,2.7-6.98,4.58-7.68,4.91Z" stroke-width="0"/>
  <path d="m21.07,17.31c.27,0,0-1.91,1.12-3.08,1.14-1.18,3.09-.96,3.08-1.24,0-.27-1.84.06-2.96-.98-1.2-1.11-.9-3.16-1.2-3.17-.31,0-.04,2.18-1.32,3.3-1.12.99-2.87.68-2.87.91,0,.23,1.84-.03,2.96,1.03,1.21,1.15.92,3.22,1.2,3.22Z" stroke-width="0"/>
  <path d="m18.27,19c0-.23-1.57.05-2.53-.84-.61-.57-.77-1.42-.85-2.01V7.37c-2.97,1.68-6.24,2.38-8.69,2.63v12.63c0,2.36,4.23,5.83,8.69,8.15v-9.06c.09-.53.27-1.17.74-1.66.97-1.01,2.64-.82,2.63-1.06Z" stroke-width="0"/>
</svg>
