<?xml version="1.0" encoding="UTF-8"?>
<svg id="Capa_1" data-name="Capa 1" xmlns="http://www.w3.org/2000/svg" viewBox="0 0 29.8 37.52">
  <path d="m29.34,4.21c-.25-.23-.59-.35-.94-.35-.05,0-.1,0-.15.01-.32.03-.87.08-1.66.08-2.16,0-7.51-.35-10.72-3.54-.26-.26-.6-.4-.97-.4s-.72.14-.98.4C10.73,3.6,5.37,3.95,3.22,3.95c-.79,0-1.34-.04-1.68-.08-.04-.01-.09-.01-.13-.01-.36,0-.69.12-.95.35-.28.26-.46.64-.46,1.04v17.37c0,8.41,12.89,14.17,14.36,14.8.16.07.35.11.55.11.19,0,.37-.04.53-.11,1.47-.63,14.36-6.39,14.36-14.8V5.25c0-.39-.16-.77-.46-1.04Zm-14.21,30.3l-.24.11-.23-.11c-1.21-.57-11.9-5.77-11.9-11.9V6.73h.55c2.08,0,7.33-.32,11.26-3.24l.33-.24.32.24c3.94,2.92,9.18,3.24,11.25,3.24h.55v.55s.01,15.34.01,15.34c0,.99-.28,1.96-.76,2.89-.49-.17-.97-.42-1.38-.8-1.67-1.55-1.26-4.41-1.68-4.41-.43,0-.06,3.03-1.85,4.6-1.56,1.38-4,.95-4,1.27,0,.33,2.56-.05,4.12,1.44.64.61.98,1.4,1.17,2.14-3.1,2.62-6.83,4.44-7.52,4.77Z" fill="#1d1d1b" stroke-width="0"/>
  <path d="m21.07,17.31c.27,0,0-1.91,1.12-3.08,1.14-1.18,3.09-.96,3.08-1.24,0-.27-1.84.06-2.96-.98-1.2-1.11-.9-3.16-1.2-3.17-.31,0-.04,2.17-1.32,3.3-1.12.99-2.87.68-2.87.91,0,.23,1.84-.03,2.96,1.03,1.21,1.15.92,3.22,1.2,3.22Z" fill="#1d1d1b" stroke-width="0"/>
  <path d="m18.27,19c0-.23-1.57.05-2.53-.84-.61-.57-.77-1.42-.85-2.01V7.38c-2.97,1.68-6.24,2.38-8.69,2.63v12.63c0,2.36,4.23,5.83,8.69,8.15v-9.05c.09-.53.27-1.17.74-1.66.97-1.01,2.64-.82,2.63-1.06Z" fill="#1d1d1b" stroke-width="0"/>
</svg>