<?xml version="1.0" encoding="UTF-8"?>
<svg id="Capa_1" data-name="Capa 1" xmlns="http://www.w3.org/2000/svg" viewBox="0 0 36.66 36.64">
  <path d="m18.33,0c4.22,0,8.44,0,12.66,0,2.45,0,4.49,1.43,5.32,3.67.24.65.35,1.32.35,2.01,0,6.62.01,13.23,0,19.85,0,3.19-2.46,5.62-5.66,5.64-1.34,0-2.68.01-4.02,0-.51,0-.94.15-1.34.46-1.93,1.46-3.88,2.91-5.82,4.37-1.15.86-1.81.86-2.96,0-1.94-1.45-3.88-2.9-5.82-4.37-.42-.32-.86-.46-1.39-.46-1.35.02-2.71.02-4.06,0-2.7-.03-4.92-1.86-5.45-4.49-.08-.39-.12-.79-.12-1.19C0,18.88,0,12.26,0,5.65.01,2.89,1.83.68,4.52.12,4.95.03,5.39,0,5.83,0c4.16,0,8.33,0,12.49,0Zm.05,3.79c-4.24,0-8.47,0-12.71,0-1.17,0-1.87.69-1.87,1.85,0,6.63,0,13.26,0,19.9,0,1.14.7,1.83,1.84,1.84,1.3,0,2.6,0,3.89,0,1.4,0,2.66.4,3.78,1.25,1.54,1.18,3.11,2.32,4.65,3.5.28.21.47.21.74,0,1.53-1.17,3.09-2.3,4.61-3.48,1.14-.88,2.43-1.29,3.86-1.28,1.26,0,2.51,0,3.77,0,1.25,0,1.93-.67,1.93-1.93,0-6.57,0-13.15,0-19.72,0-1.28-.67-1.94-1.95-1.94-4.18,0-8.36,0-12.54,0Z" stroke-width="0"/>
  <path d="m16.44,13.74c0-.9-.02-1.8,0-2.69.03-.97.65-1.7,1.57-1.88.79-.15,1.65.29,2.01,1.05.15.3.2.63.2.95,0,1.74.01,3.48,0,5.21,0,.81-.33,1.48-1.12,1.81-.71.3-1.4.22-2-.29-.48-.41-.66-.95-.66-1.56,0-.87,0-1.74,0-2.61,0,0,0,0,0,0Z" stroke-width="0"/>
  <path d="m18.31,23.83c-1.05,0-1.88-.84-1.87-1.87,0-1.01.88-1.87,1.9-1.86,1.02,0,1.87.86,1.87,1.89,0,1.02-.85,1.85-1.9,1.84Z" stroke-width="0"/>
</svg>