<?xml version="1.0" encoding="UTF-8"?>
<svg id="icon" data-name="Capa 1" xmlns="http://www.w3.org/2000/svg" viewBox="0 0 39.7 34.22">
  <path d="m4.55,24.15c.87,0,1.75-.03,2.62,0,.88.04,1.63-.28,2.31-.77,1.8-1.3,2.86-3.07,3.4-5.2.49-1.93,1.02-3.85,1.62-5.75,1.11-3.53,3.54-5.8,6.93-7.13,1.37-.54,2.82-.75,4.29-.75,1.45,0,2.89,0,4.34,0,.39,0,.54-.11.53-.51-.02-.92,0-1.83,0-2.75,0-.54.16-1.01.69-1.23.51-.21.93.05,1.28.39,1.08,1.03,2.14,2.07,3.21,3.1,1.14,1.1,2.29,2.2,3.44,3.3.61.58.65,1.39.05,1.98-2.21,2.16-4.43,4.31-6.65,6.47-.19.18-.4.32-.65.41-.53.19-1.01-.03-1.23-.54-.11-.24-.13-.5-.13-.76,0-1.06,0-2.12,0-3.18,0-.54-.03-.58-.55-.57-1.72.02-3.43-.04-5.15.06-1.99.13-4.03,1.71-4.57,3.62-.59,2.09-1.18,4.19-1.77,6.28-.61,2.15-1.7,4.02-3.19,5.67-1.35,1.49-2.91,2.66-4.79,3.39-.93.36-1.89.57-2.89.56-2.06-.01-4.12,0-6.19,0-.88,0-1.44-.52-1.46-1.4-.03-1.07-.03-2.15,0-3.22.02-.97.59-1.49,1.57-1.49.99,0,1.98,0,2.96,0,0,0,0,0,0,0Z" stroke-width="0"/>
  <path d="m27.39,29.41c-1.66.01-3.32.08-4.94-.42-1.71-.53-3.22-1.39-4.58-2.56-.21-.18-.21-.33-.06-.54,1.21-1.67,2.02-3.52,2.52-5.51.03-.13.03-.34.18-.36.16-.02.19.19.26.3,1.17,1.9,2.85,2.93,5.11,2.94,1.4,0,2.81,0,4.21,0,.38,0,.48-.1.47-.49-.02-1.11-.02-2.23.03-3.34.04-.92.89-1.33,1.67-.84.46.29.82.71,1.21,1.09,1.86,1.78,3.71,3.58,5.55,5.37.92.89.92,1.59,0,2.48-2.13,2.06-4.26,4.11-6.4,6.17-.18.17-.36.33-.59.42-.56.23-1.11,0-1.35-.56-.13-.3-.13-.61-.13-.93,0-.9,0-1.8.02-2.7,0-.4-.14-.56-.55-.55-.87.03-1.75,0-2.62,0Z" stroke-width="0"/>
  <path d="m5.12,4.2c1.09.05,2.42-.1,3.74.09,2.4.34,4.46,1.37,6.27,2.96.2.18.22.32.04.53-1.29,1.51-2.1,3.26-2.55,5.19-.02.08-.04.17-.07.25-.04.1-.04.26-.15.29-.16.03-.18-.15-.24-.26-1.18-1.86-2.84-2.89-5.08-2.9-1.79,0-3.58,0-5.36,0-.98,0-1.52-.51-1.53-1.5-.02-1.04-.02-2.09,0-3.13.01-.97.57-1.51,1.53-1.51,1.06,0,2.12,0,3.42,0Z" stroke-width="0"/>
</svg>
