<?xml version="1.0" encoding="UTF-8"?>
<svg id="icon" data-name="Capa 1" xmlns="http://www.w3.org/2000/svg" viewBox="0 0 38.66 39.04">
  <path d="m18.28,6.93c0-.28,0-.56,0-.83,0-.82.4-1.3,1.21-1.44,1.34-.23,2.61-.64,3.78-1.35.74-.45,1.39-1.01,1.97-1.65.42-.47.79-.43,1.12.12,1.67,2.83,4.23,4.27,7.39,4.79.07.01.14.02.21.03,1.24.22,1.55.65,1.42,1.91-.09.9-.06,1.8-.1,2.7-.15,2.99-.4,5.98-.94,8.93-.09.49-.29.93-.62,1.3-2.12,2.4-4.7,4.08-7.77,5.02-.39.12-.72.07-1.01-.2-1.98-1.87-3.78-3.88-5-6.35-.48-.97-.56-2.02-.73-3.06-.33-2.04-.55-4.09-.73-6.15-.11-1.26-.15-2.52-.21-3.78,0,0,.01,0,.02,0Zm14.26,5.69c0-.65,0-1.31,0-1.96,0-.99-.47-1.71-1.39-2.07-1.84-.73-3.52-1.7-4.9-3.15-.27-.28-.55-.3-.84-.04-1.01.93-2.2,1.54-3.49,1.98-.73.25-1.18.8-1.35,1.57-.13.6-.03,1.19-.02,1.78.03,2.03.3,4.03.6,6.04.42,2.82,1.92,4.95,4.12,6.65.25.2.51.31.85.17,1.87-.84,3.56-1.94,5.06-3.33.65-.6,1-1.37,1.09-2.24.18-1.8.3-3.59.26-5.4Z" stroke-width="0"/>
  <path d="m2.99,34.31c-.77,0-1.51.18-2.24.39-.24.07-.5.17-.68-.11-.18-.29.01-.49.21-.69,1.36-1.35,2.71-2.71,4.07-4.07.39-.39.83-.51,1.37-.33.39.14.8.22,1.2.35.27.09.47.02.68-.17,2.42-2.14,4.86-4.27,7.28-6.42.65-.57,1.38-.38,2.09-.29.34.04.42.4.34.74-.24.98-.69,1.78-1.5,2.46-2.15,1.8-4.22,3.7-6.33,5.54-.26.23-.35.44-.21.75.03.06.03.14.06.2.52,1.05.16,1.81-.66,2.56-1.18,1.07-2.27,2.24-3.4,3.37-.08.08-.16.16-.24.23-.16.14-.33.26-.56.13-.22-.13-.22-.35-.17-.55.13-.48.26-.96.35-1.46.09-.51.11-1.02.05-1.53-.08-.67-.52-1.06-1.24-1.12-.15-.01-.31,0-.46,0Z" stroke-width="0"/>
  <path d="m38.66,6.57c-.1,1.46-.19,2.92-.29,4.37-.08,1.11-.17,2.21-.28,3.31-.17,1.71-.35,3.42-.54,5.13-.08.74-.19,1.48-.29,2.23-.07.56-.31,1.03-.77,1.38-1.82,1.36-3.76,2.52-5.88,3.35-.05.02-.1.04-.15.06-.15.06-.31.08-.4-.09-.1-.2.03-.31.18-.4.11-.07.21-.13.32-.2,1.61-.95,2.99-2.16,4.23-3.54.68-.75.86-1.69,1.01-2.64.34-2.12.56-4.26.69-6.4.12-1.88.22-3.77.23-5.65,0-.23.03-.45.21-.61.39-.34.83-.61,1.27-.87.2-.12.35-.02.4.2.04.13.05.27.07.4Z" stroke-width="0"/>
  <path d="m2.52,4.08c.2,0,.38.08.56.16,2.25.95,4.49,1.91,6.74,2.86.06.03.13.06.19.08.27.12.49.29.44.62-.05.32-.31.44-.6.48-.73.1-1.44.25-2.14.49-.89.3-1.53.86-1.93,1.72-.3.64-.54,1.31-.71,1.99-.08.31-.18.61-.56.62-.38,0-.5-.28-.59-.59-.72-2.45-1.44-4.89-2.16-7.34-.17-.59.21-1.1.78-1.1Z" stroke-width="0"/>
  <path d="m14.13,18.96c-.59.13-1.01-.21-1.43-.68-1.71-1.94-3.44-3.85-5.16-5.78-.57-.64-.56-1.47.01-2.01.57-.53,1.44-.49,2.01.14,1.84,2.03,3.67,4.06,5.49,6.1.5.56.4,1.24.23,1.9-.06.23-.29.33-.53.34-.18,0-.36,0-.62,0Z" stroke-width="0"/>
  <path d="m36.15,5.76c-.08-.02-.13-.02-.16-.03-.98-.52-2.1-.46-3.14-.77-2.2-.68-3.98-1.88-5.15-3.9-.14-.24-.38-.51-.12-.79.26-.27.61-.31.96-.22.27.07.46.25.64.44,2.14,2.18,4.73,3.51,7.74,4.02.12.02.25.05.36.09.15.06.25.21.13.33-.37.38-.81.67-1.27.84Z" stroke-width="0"/>
  <path d="m11.07,20.46c.62.16,1.3.29,1.94.57.42.18.45.72.06.99-.53.35-1.09.67-1.66.96-.36.19-.79-.04-.86-.44-.08-.45-.14-.9-.17-1.36-.03-.43.25-.71.7-.71Z" stroke-width="0"/>
  <path d="m19.65,27.97c-.48,0-.75-.26-.69-.71.07-.59.18-1.18.29-1.76.05-.25.2-.43.46-.48.27-.06.49.05.65.27.33.45.67.89.98,1.35.32.47.16.91-.38,1.07-.36.1-.73.18-1.09.26-.08.02-.17.01-.21.02Z" stroke-width="0"/>
  <path d="m17.73,20.63c0,.4-.34.69-.86.72-.38.02-.73-.34-.74-.75-.02-.58.35-1.12.77-1.13.46,0,.82.49.84,1.16Z" stroke-width="0"/>
  <path d="m31.09,12.68c.02,1.8-.07,3.41-.25,5.01-.07.61-.35,1.11-.8,1.51-1.11.98-2.32,1.8-3.64,2.47-.33.17-.6.13-.87-.11-1.61-1.39-2.66-3.08-2.98-5.23-.3-2-.51-4.01-.56-6.04-.03-1.02.12-1.21,1.06-1.56.8-.29,1.55-.68,2.25-1.17.48-.33.63-.34,1.07.03,1.18,1.01,2.51,1.77,3.96,2.33.58.22.76.51.77,1.14,0,.6,0,1.19,0,1.6Z" stroke-width="0"/>
</svg>
