<?xml version="1.0" encoding="UTF-8"?>
<svg id="Capa_1" data-name="Capa 1" xmlns="http://www.w3.org/2000/svg" viewBox="0 0 27.84 27.84">
  <path d="m1.75,16.74c.62-.19,1.21-.37,1.84-.55.47,2.01,1.41,3.74,2.86,5.19,1.44,1.44,3.17,2.38,5.19,2.86-.18.62-.36,1.22-.54,1.82-4.19-.82-8.29-4.49-9.34-9.31Z" stroke-width="0"/>
  <path d="m26.09,11.09c-.63.19-1.23.37-1.85.56-.48-2.01-1.41-3.75-2.86-5.2-1.44-1.44-3.17-2.38-5.18-2.85.18-.61.36-1.21.55-1.85,2.21.52,4.13,1.55,5.76,3.11,1.81,1.72,3,3.79,3.58,6.24Z" stroke-width="0"/>
  <path d="m11.09,1.74c.18.59.34,1.14.51,1.7.01.05.02.09.03.14-4.23,1.15-6.9,3.83-8.05,8.06-.59-.18-1.19-.36-1.83-.55.47-2.02,1.38-3.8,2.72-5.35,1.76-2.03,3.96-3.36,6.61-4Z" stroke-width="0"/>
  <path d="m24.26,16.2c.6.18,1.2.36,1.79.54-.22,3.72-5.54,9.05-9.32,9.32-.18-.59-.36-1.19-.54-1.79,4.24-1.14,6.92-3.82,8.07-8.06Z" stroke-width="0"/>
  <path d="m16.32,13.91c0,1.34-1.06,2.41-2.39,2.41-1.35,0-2.42-1.06-2.42-2.41,0-1.33,1.07-2.39,2.4-2.39,1.32,0,2.4,1.08,2.4,2.4Z" stroke-width="0"/>
  <path d="m15.36,0c-.16,1.59-.32,3.17-.48,4.76h-1.94c-.16-1.57-.32-3.16-.48-4.76h2.9Z" stroke-width="0"/>
  <path d="m0,12.47c1.59.16,3.17.32,4.76.48v1.94c-1.58.16-3.16.32-4.76.48v-2.9Z" stroke-width="0"/>
  <path d="m12.95,23.06h1.94c.16,1.59.32,3.17.48,4.78h-2.9c.16-1.59.32-3.18.48-4.78Z" stroke-width="0"/>
  <path d="m27.84,15.36c-1.6-.16-3.18-.32-4.77-.48v-1.94c1.58-.16,3.16-.32,4.77-.48v2.9Z" stroke-width="0"/>
</svg>