<?xml version="1.0" encoding="UTF-8"?>
<svg id="icon" data-name="Capa 1" xmlns="http://www.w3.org/2000/svg" viewBox="0 0 39.04 39.21">
  <path d="m21.1,4.06c.09.2.27.22.41.28,2.17.9,4.02,2.27,5.74,3.82.1.09.24.21.12.34-.15.15-.27-.02-.38-.11-1.41-1.08-2.91-2.01-4.5-2.79-2.19-1.07-4.5-1.63-6.95-1.4-2.44.23-4.69,1.02-6.76,2.34-4.35,2.78-6.77,6.8-7.56,11.85-.1.62-.12,1.24-.18,1.86-.02.21,0,.49-.29.51-.29.02-.44-.21-.48-.47-.1-.62-.21-1.23-.24-1.86C-.24,13.38,1.57,9.12,5.18,5.62,7.93,2.95,11.13,1.03,14.96.29c2.78-.54,5.51-.28,8.22.46,3.12.85,5.65,2.61,7.9,4.85.19.19.4.37.59.56.27.27.26.43-.09.57-.56.24-1.14.44-1.71.66-.28.11-.57.2-.83.34-.4.21-.71.13-1.02-.19-1.26-1.29-2.7-2.32-4.39-2.98-.74-.28-1.49-.5-2.29-.54-.07,0-.15.02-.24.03Z" stroke-width="0"/>
  <path d="m20.26,35.32c-.84-.3-1.69-.58-2.53-.91-1.3-.5-2.55-1.1-3.65-1.97-.29-.23-.55-.49-.79-.76-.09-.1-.27-.24-.15-.38.15-.16.26.05.36.14,1.39,1.17,2.96,2.02,4.67,2.61,1.62.55,3.3.82,5,.86,2.65.07,5.02-.75,7.2-2.23,3.64-2.47,6.11-5.76,7.05-10.11.44-2.04.41-4.1.1-6.16,0-.01,0-.03,0-.04-.03-.26-.15-.58.21-.69.39-.12.48.23.58.49.35.93.6,1.9.67,2.89.53,7.22-2.39,12.89-7.95,17.3-2.15,1.71-4.67,2.55-7.41,2.79-2.41.21-4.73-.25-7.05-.78-2.52-.58-4.75-1.78-6.89-3.18-.15-.1-.27-.22-.37-.37-.22-.34-.16-.59.21-.76.42-.19.85-.36,1.29-.5.47-.15.8-.42,1.03-.86.35-.67.45-.68,1.08-.24,1.72,1.2,3.57,2.12,5.61,2.66.56.15,1.13.26,1.72.21Z" stroke-width="0"/>
  <path d="m28.85,11.22c-.65.45-1.24.87-1.78,1.38-2.88,2.77-5.65,5.66-8.46,8.5q-.58.59-1.14.01c-.17-.17-.35-.35-.52-.52-.46-.47-.47-.62-.01-1.12,1.14-1.26,2.31-2.5,3.55-3.66,2.79-2.62,5.73-5.05,8.99-7.08.88-.55,1.81-1,2.8-1.32.41-.13.49-.07.42.36-.11.61-.39,1.15-.69,1.69-2.1,3.72-4.69,7.06-7.64,10.13-1.06,1.11-2.12,2.22-3.19,3.32-.65.67-1.04.68-1.74.08-.82-.7-.82-.82-.08-1.61,2.24-2.39,4.56-4.71,6.86-7.04.87-.88,1.76-1.74,2.48-2.76.07-.09.18-.17.18-.37Z" stroke-width="0"/>
  <path d="m21.63,32.84c-2.3-.02-4.45-.64-6.48-1.7-.5-.26-.56-.6-.15-1,.54-.52,1.11-1.01,1.65-1.52.31-.29.6-.3.95-.1,1.15.63,2.37,1.08,3.66,1.34,2.66.53,5.22.18,7.68-.93.43-.2.85-.43,1.27-.65.14-.07.29-.18.44-.03.15.16.04.3-.05.44-.41.62-.94,1.13-1.52,1.58-1.85,1.44-3.94,2.28-6.28,2.5-.39.04-.78.08-1.18.07Z" stroke-width="0"/>
  <path d="m17.54,6.04c2.91.04,5.29,1,7.46,2.56.26.19.52.4.78.59.22.16.25.31.01.48-.73.52-1.45,1.05-2.18,1.57-.36.26-.7.12-1.01-.11-1.21-.88-2.51-1.58-3.93-2.05-2.64-.88-5.27-1.02-7.86.19-.31.14-.59.33-.88.51-.1.06-.23.15-.33.03-.08-.1,0-.21.07-.29.2-.24.37-.51.63-.7,1.65-1.2,3.42-2.17,5.45-2.57.65-.13,1.32-.18,1.78-.2Z" stroke-width="0"/>
  <path d="m15.57,19.04c-.02.5.14.92.45,1.29,1.22,1.45,2.55,2.78,4,4,.4.34.85.53,1.39.45.19-.03.38.03.53.17.35.33.69.65,1.04.98.24.22.16.37-.12.46-.49.16-.98.35-1.48.46-.66.14-1.27-.08-1.78-.51-.46-.4-.91-.82-1.34-1.25-.25-.25-.45-.29-.71,0-.27.29-.58.53-.87.8-.24.22-.43.19-.57-.12-.33-.72-.61-1.45-.87-2.2-.09-.25-.07-.49.14-.68.29-.26.21-.48-.03-.72-.43-.44-.83-.9-1.26-1.34-.54-.55-.72-1.19-.54-1.94.11-.46.25-.92.42-1.36.11-.29.27-.37.5-.12.33.35.65.7.98,1.04.17.18.19.38.13.59Z" stroke-width="0"/>
  <path d="m17.8,11.68c.92.43,1.81.92,2.66,1.47.54.35.55.47.1.93-.12.13-.25.25-.37.38-.5.5-.62.51-1.15.05-.68-.59-1.42-1.1-2.24-1.48-1.36-.62-2.75-.86-4.18-.24-.18.08-.39.14-.51-.07-.12-.22.04-.36.2-.46,2.72-1.76,5.73-1.95,8.46.03.09.06.17.13.25.2.06.05.14.12.1.2-.06.12-.17.05-.25.02-.5-.22-.99-.44-1.5-.65-.5-.21-1.03-.33-1.59-.37Z" stroke-width="0"/>
  <path d="m15.71,26.51c-.01.17-.07.33-.19.44-.3.28-.6.55-.91.81-.2.17-.38.13-.49-.12-.27-.6-.53-1.19-.79-1.79-.09-.21-.02-.41.11-.57.31-.39.63-.78.95-1.17.12-.15.29-.21.38.01.32.75.61,1.51.92,2.26.01.04.01.08.02.12Z" stroke-width="0"/>
  <path d="m8.75,30.5c.55,0,1.02.43,1.17,1.06.13.56-.04.9-.61,1.17-.45.21-.92.41-1.38.6-.36.14-.55-.02-.51-.4.06-.55.12-1.11.21-1.65.08-.5.49-.77,1.13-.77Z" stroke-width="0"/>
  <path d="m11.61,27.73c-.01-.24.05-.36.14-.46.24-.29.49-.58.74-.87.19-.22.36-.24.49.05.24.53.48,1.07.71,1.6.09.21.06.41-.1.57-.27.27-.56.52-.84.77-.14.13-.34.14-.43-.02-.32-.54-.52-1.13-.7-1.63Z" stroke-width="0"/>
  <path d="m11.81,30.02c-.16.41-.5.69-.87.9-.28.16-.47-.1-.65-.28q-.87-.87-.08-1.82c.12-.15.25-.29.38-.43.28-.29.4-.29.56.06.23.5.51.99.66,1.56Z" stroke-width="0"/>
</svg>
