<?xml version="1.0" encoding="UTF-8" standalone="no"?>
<svg id="icon" data-name="Capa 1" viewBox="0 0 38.44 38.4" xmlns="http://www.w3.org/2000/svg" >
  <path
     d="m 32.903209,26.01122 c -1.817264,-1.916259 -3.719382,-3.747666 -5.586143,-5.614428 q -1.152585,-1.152584 -0.04243,-2.248599 c 1.739483,-1.739483 3.478965,-3.464823 5.211377,-5.211377 1.110158,-1.1243 1.85262,-2.44659 1.711199,-4.0870774 C 34.020438,6.8627686 33.087057,5.3637022 31.206153,4.614169 29.169685,3.7939251 27.309994,4.2252603 25.747288,5.7172556 23.866384,7.5133068 22.013765,9.3517844 20.224785,11.23976 19.46818,12.03879 18.980277,12.130714 18.181246,11.275115 16.371053,9.3517844 14.483077,7.5062357 12.588031,5.6677581 10.615203,3.7514987 7.4685782,3.7444276 5.6230295,5.6182606 3.7138412,7.5557332 3.7421254,10.553866 5.7008112,12.540836 c 1.8526198,1.880904 3.6910974,3.77595 5.6144278,5.586144 0.855599,0.79903 0.756604,1.294005 -0.04243,2.050609 -1.838478,1.739483 -3.5991739,3.556747 -5.3810829,5.352799 -1.1242998,1.124299 -1.8031223,2.467802 -1.6687721,4.101219 0.1626346,2.001112 1.2232948,3.429468 3.0476303,4.193143 2.0435386,0.855599 3.8961587,0.318198 5.4447217,-1.159655 1.909189,-1.824335 3.76888,-3.698168 5.600286,-5.600286 0.685894,-0.714178 1.173797,-0.848528 1.887975,-0.03535 0.876813,1.004092 1.880904,1.909188 2.828427,2.856711 0.01414,-0.01414 0.02828,-0.02828 0.03536,-0.03535 1.180868,1.180868 2.269813,2.481945 3.57796,3.521392 1.760696,1.407142 4.758829,0.99702 6.229611,-0.65761 1.760696,-1.972827 1.810193,-4.822468 0.02828,-6.703372 z"
     stroke-width="0"
     />
</svg>
