<?xml version="1.0" encoding="UTF-8"?>
<svg id="icon" data-name="Capa 1" xmlns="http://www.w3.org/2000/svg" viewBox="0 0 36.96 37.1">
  <path d="m18.66,10.54c.2.12.39.2.52.33,2.15,2.27,4.29,4.54,6.43,6.82.33.35.33.66,0,1-2.28,2.34-4.57,4.68-6.85,7.02-.36.37-.72.35-1.08-.02-2.1-2.21-4.2-4.42-6.3-6.63-.36-.38-.36-.68,0-1.05,2.24-2.36,4.49-4.73,6.74-7.08.14-.15.35-.24.55-.37Zm-.65,2.83c0-.15-.14-.21-.26-.29-.08-.05-.32.06-.42.17-1.34,1.43-2.67,2.86-4,4.3-.08.09-.16.28-.12.37.04.09.23.17.36.17.68.03,1.37.04,2.05.05.57.01.8.17.98.69.28.78.54,1.57.83,2.35.04.11.18.19.27.29.05-.12.2-.39.21-.51l.1-7.6Z" stroke-width="0"/>
  <path d="m17.76,32.85c0,.14-.09.28-.14.42-.13-.07-.29-.11-.38-.22-4-4.27-7.99-8.55-11.99-12.83-.28-.3-.58-.6-.85-.92-.07-.08-.14-.25-.1-.31.06-.09.21-.17.32-.17,1.38-.01,2.77-.03,4.15,0,.28,0,.63.18.83.39,2.58,2.68,5.15,5.38,7.72,8.07.27.28.39.61.39,1l.05,4.56Z" stroke-width="0"/>
  <path d="m29.81,17.49c-.65,0-1.3,0-1.95,0-.54,0-.97-.2-1.33-.59-2.31-2.53-4.62-5.07-6.93-7.6-.33-.36-.5-.77-.49-1.26.01-1.15,0-2.3,0-3.45,0-.13.07-.26.11-.4.13.06.3.09.4.19,3.62,3.66,7.23,7.32,10.84,10.98.54.55,1.09,1.09,1.62,1.65.08.09.11.23.16.34-.12.04-.23.13-.35.13-.7.01-1.4,0-2.09,0,0,0,0,0,0,0Z" stroke-width="0"/>
  <path d="m17.77,8.34c0,.41-.12.76-.41,1.06-1.5,1.6-2.99,3.2-4.48,4.8-.35.37-.55.41-1,.16-.88-.48-1.76-.96-2.63-1.45-.37-.2-.39-.38-.09-.68,2.7-2.69,5.39-5.37,8.09-8.06.08-.08.22-.11.33-.17.04.12.19.23.19.35v3.98Z" stroke-width="0"/>
  <path d="m4.41,37.1c-.08-.19-.18-.33-.19-.48-.09-.85-.16-1.71-.24-2.56-.08-.87-.15-1.73-.24-2.6-.1-.87-.45-1.25-1.3-1.45-.68-.16-1.36-.32-2.04-.47-.21-.05-.39-.09-.39-.35,0-.29.2-.33.41-.38.74-.17,1.47-.36,2.22-.51.67-.14,1.02-.56,1.13-1.19.16-.9.29-1.81.44-2.72,0-.06,0-.13.03-.18.07-.11.17-.21.25-.32.09.1.22.2.25.31.11.53.18,1.06.26,1.59.07.46.13.92.23,1.38.13.59.47,1,1.11,1.13.74.15,1.48.34,2.21.51.2.05.39.11.38.36,0,.25-.18.31-.39.36-.68.15-1.35.36-2.04.47-.75.12-1.19.63-1.27,1.44-.16,1.64-.31,3.29-.46,4.94-.02.17-.04.34-.1.5-.02.06-.12.1-.25.21Z" stroke-width="0"/>
  <path d="m36.94,5.37c-.12.09-.24.22-.38.26-.72.19-1.45.35-2.18.52-.69.16-1.09.57-1.17,1.28-.16,1.55-.3,3.1-.45,4.64-.02.24-.03.49-.08.73-.03.12-.15.22-.23.33-.09-.11-.24-.22-.25-.34-.09-.78-.16-1.56-.23-2.34-.1-1.01-.19-2.02-.3-3.03-.08-.69-.47-1.1-1.14-1.26-.73-.17-1.45-.34-2.18-.51-.21-.05-.38-.12-.38-.36,0-.26.19-.31.39-.36.73-.17,1.45-.34,2.18-.51.75-.18,1.1-.56,1.22-1.32.14-.91.28-1.81.44-2.72.02-.14.17-.25.26-.38.08.12.21.23.24.36.16.89.3,1.79.44,2.68.1.7.48,1.26,1.24,1.39.72.12,1.43.31,2.14.5.16.04.29.18.43.28,0,.05,0,.11-.01.16Z" stroke-width="0"/>
  <path d="m18.9,30.39c0-.72-.03-1.45.01-2.16.02-.29.14-.63.32-.86.39-.5.85-.94,1.29-1.4.29-.3.52-.28.72.08.47.86.93,1.72,1.39,2.58.16.3.12.55-.11.8-1.07,1.15-2.13,2.3-3.2,3.44-.08.08-.22.11-.33.16-.03-.11-.1-.22-.1-.33,0-.77,0-1.54,0-2.31Z" stroke-width="0"/>
  <path d="m6.95,17.49c-.76,0-1.52,0-2.28,0-.13,0-.26-.09-.39-.13.06-.13.09-.3.18-.4.94-.95,1.89-1.89,2.84-2.82.36-.36.59-.4,1.06-.19.92.4,1.84.8,2.75,1.21.43.19.45.31.13.67-.35.4-.7.79-1.04,1.19-.29.34-.64.5-1.09.49-.72-.01-1.44,0-2.17,0Z" stroke-width="0"/>
  <path d="m25.5,20.76c.12.05.22.07.3.12.95.51,1.9,1.01,2.84,1.52.32.17.33.29.08.56-.55.62-1.11,1.24-1.67,1.86-.28.31-.42.32-.73.01-.69-.68-1.36-1.37-2.06-2.04-.25-.25-.27-.46-.02-.72.33-.35.62-.72.94-1.08.08-.09.2-.16.3-.24Z" stroke-width="0"/>
  <path d="m29.87,21.51c-.16-.06-.27-.09-.37-.13-.94-.42-1.88-.83-2.81-1.26-.4-.18-.41-.31-.18-.67.39-.61.91-.83,1.64-.8,1.26.06,2.52.04,3.78.06.12,0,.25.06.37.09-.06.12-.1.27-.19.36-.61.69-1.23,1.37-1.85,2.04-.12.13-.28.21-.4.3Z" stroke-width="0"/>
  <path d="m23.21,23.43c.06.04.16.09.22.17.68.8,1.36,1.61,2.03,2.42.16.19.16.37-.02.56-.3.31-.59.62-.89.93-.2.2-.4.18-.55-.06-.57-.95-1.14-1.91-1.7-2.87-.05-.08-.09-.25-.04-.31.25-.28.52-.55.78-.81.02-.02.07-.01.16-.03Z" stroke-width="0"/>
</svg>
