<?xml version="1.0" encoding="UTF-8"?>
<svg id="icon" data-name="Capa 1" xmlns="http://www.w3.org/2000/svg" viewBox="0 0 42.02 49.24">
  <path d="m21.5,48.23c-.24,0-.48-.09-.66-.24l-.05-.04c-.13-.1-.35-.26-.51-.54-.56-1.05-1.1-2.08-1.64-3.11-.53-1.01-1.06-2.02-1.6-3.03-.34-.65-.26-1.29.2-1.82-.06-.03-.13-.06-.19-.09-.42-.25-.7-.64-.78-1.1-.08-.47.07-.95.41-1.34.48-.55.98-1.11,1.47-1.65.14-.17.29-.33.45-.5.22-.21.39-.49.25-1.1-.17-.09-.33-.16-.5-.24-.06.1-.13.21-.21.31-.25.31-.49.55-.75.74-.37.26-.72.38-1.08.38-.33,0-.65-.11-.93-.32-.22-.16-.96-.8-.47-1.97.1-.27.24-.57.41-.89-.63.29-.99.81-1.16,1.66l-.04.19c-.15.67-.3,1.36-.47,2.01-.13.44-.43.86-.8,1.1-.25.18-.56.28-.87.28-.33,0-.63-.12-.86-.32-.2.26-.53.45-1.07.54-2.36.41-4.73.83-7.12,1.23-.05,0-.18.02-.23.02-.45,0-.83-.19-1.03-.53-.28-.44-.2-.99,0-1.33,1.12-2.08,2.24-4.19,3.37-6.3.32-.55.8-.83,1.38-.83.09,0,.18,0,.28.02-.01-.1-.01-.21-.01-.33.06-.94.68-1.55,1.54-1.55.1,0,.21,0,.32.03l.41.06c.64.09,1.31.19,1.98.34.14.03.28.05.42.05.47,0,.89-.19,1.36-.63-.04-.36-.09-.68-.14-.99-.02-.16-.05-.31-.07-.47-.17-.03-.35-.05-.52-.08-.81-.12-1.38-.63-1.48-1.37-.13-.76.26-1.51.97-1.82.33-.14.68-.25,1.07-.36-.33-.34-.77-.61-1.37-.86l-.91.18c-.61.12-1.22.25-1.83.34-.15.02-.29.03-.43.03-.31,0-.62-.05-.91-.13-.53-.16-.99-.72-1.04-1.28,0-.18.03-.37.09-.54-.55-.13-.83-.56-.95-.74-.97-1.52-1.92-3.02-2.88-4.54l-1.05-1.66c-.19-.29-.45-1.01.06-1.52.26-.25.63-.4,1-.4.04,0,.13,0,.17.01,2.15.21,4.31.44,6.5.67l.44.05c.57.07,1.27.35,1.55,1.26.19-.12.38-.18.51-.2.14-.02.24-.03.34-.03.73,0,1.34.46,1.54,1.18.15.56.28,1.11.41,1.65l.12.53c.04.2.09.4.1.61.02.22.12.39.32.52l.25.17c.25.17.5.33.76.47.02,0,.03,0,.04,0,.03,0,.02-.04,0-.09-.06-.12-.11-.22-.16-.32-.11-.21-.22-.42-.31-.64-.33-.9-.02-1.76.78-2.22.29-.16.6-.24.91-.24.53,0,1.04.25,1.39.67.17.21.3.4.44.59l.19.26c.06.08.09.09.09.09l.1-.04c.07-.38.1-.71.1-1.02,0-.12-.04-.34-.32-.64-.63-.67-1.23-1.36-1.83-2.04-.14-.16-.29-.34-.39-.62-.26-.62-.07-1.29.53-1.76.1-.08.21-.15.31-.19-.51-.57-.53-1.04-.11-1.83l.42-.81c.93-1.78,1.85-3.55,2.77-5.33.03-.07.11-.23.27-.39.12-.14.42-.48.92-.48.02,0,.05,0,.08,0,.56.03.96.48,1.1.89l.32.72c.41.93.82,1.86,1.22,2.8.4.92.8,1.83,1.21,2.76.26.59.33,1.05.19,1.48.15.02.29.07.41.16.24.16.4.42.43.7l.02.12c.04.22.11.56,0,.94-.12.45-.33.88-.6,1.22-.27.34-.55.6-.82.85l-.24.22-.14.14c-.14.13-.27.27-.4.41-.35.4-.48.9-.38,1.38.1-.13.48-.64.48-.64.39-.48.89-.73,1.44-.73.41,0,.81.14,1.15.42.71.55.88,1.4.43,2.18-.1.2-.23.42-.37.65.07.05.12.05.14.05.1,0,.24-.06.37-.17.34-.28.56-.65.67-1.13.19-.83.43-1.64.66-2.43.21-.7.75-1.14,1.43-1.14.03,0,.12,0,.15,0,.31.01.55.1.74.22.16-.49.5-1.03,1.43-1.16l6.86-.69s.11,0,.14,0c.26,0,.47.07.61.11.26.07.52.26.65.49.13.24.2.53.12.78-.05.22-.11.47-.27.71-1.24,1.98-2.52,3.97-3.79,5.96-.15.23-.44.69-1,.81.06.22.06.45.02.66-.09.61-.58,1.14-1.29,1.32-.17.03-.28.04-.39.04-.17,0-.36-.02-.54-.05l-.99-.21c-.56-.12-1.12-.24-1.68-.35-.06-.01-.12-.02-.18-.02-.18,0-.4.05-.73.36.04.24.07.48.12.72.17.04.31.06.44.07.22.03.44.06.65.11.59.13,1.04.62,1.17,1.28.13.66-.11,1.31-.61,1.67-.36.26-.76.32-1.05.36-.08,0-.16.02-.23.04-.05.01-.1.02-.14.03-.05.66-.2,1.14-.47,1.81-.03.08-.04.13-.04.15,0,0,0,0,0,0,.01,0,.05.01.11.02.09.02.19.03.28.03.04,0,.08,0,.12,0,1.05-.12,2.09-.24,3.13-.37.09-.01.17-.02.24-.02.76,0,1.34.49,1.49,1.27.03.22.04.42,0,.61.07,0,.14-.01.21-.01.96,0,1.35.74,1.5,1.02.66,1.28,1.32,2.54,1.99,3.81l1.12,2.14c.07.11.12.22.14.35.04.13.07.26.09.38.06.28,0,.57-.17.8-.17.23-.43.38-.71.41-.19.04-.33.06-.46.06-.06,0-.21-.01-.28-.03-2.31-.41-4.64-.84-6.97-1.27-.53-.09-.88-.27-1.08-.58-.18.13-.41.21-.66.26-.06.01-.22.02-.28.02-.77,0-1.44-.57-1.61-1.38l-.19-.92c-.13-.64-.26-1.29-.41-1.93-.06-.28-.18-.47-.38-.58.02.08.13.51.13.51.25,1.01-.19,1.5-.6,1.75-.27.15-.55.22-.83.22-.44,0-.86-.17-1.2-.48l-.09-.09c-.16-.15-.33-.33-.49-.54-.08,0-.15.04-.19.06-.14.72.02,1.04.3,1.31.57.57,1.11,1.13,1.64,1.71.26.29.43.61.54.86.34.71.13,1.54-.51,1.97-.11.07-.22.12-.33.17.14.36.1.76-.09,1.24l-.63,1.47c-.72,1.67-1.45,3.34-2.18,5.01-.07.23-.27.42-.38.53-.17.22-.42.36-.7.39-.04,0-.07,0-.11,0Zm-2.09-26.95c-.17,0-.32.08-.41.21l-1.82,2.71c-.12.17-.12.4,0,.56l1.82,2.71c.09.14.24.21.41.21h4.06c.17,0,.32-.08.41-.21l1.82-2.71c.12-.17.12-.4,0-.56l-1.82-2.71c-.09-.13-.24-.21-.41-.21h-4.06Zm1.94,5.68c-1.55,0-2.81-1.27-2.81-2.83s1.26-2.81,2.81-2.81,2.83,1.26,2.83,2.81-1.27,2.83-2.83,2.83Z" fill="#fff" stroke-width="0"/>
  <path d="m21.46,2s0,0,.01,0c.09,0,.19.13.21.21.53,1.2,1.06,2.39,1.57,3.59.4.93.8,1.84,1.21,2.77.3.69.24.84-.33,1.31-.36.3-.71.61-1.01.97-.17.21-.26.53-.31.81-.01.11.1.31.21.4.01,0,.03.01.05.01.09,0,.24-.07.32-.13.47-.39.91-.79,1.41-1.14.16-.11.4-.13.61-.19.03.21.11.44.06.64-.09.31-.23.63-.43.89-.29.36-.63.64-.96.96-.2.2-.41.4-.6.61-.71.81-.86,1.91-.37,2.89.14.27.39.41.65.41.21,0,.43-.1.61-.29.27-.31.51-.66.77-1,.18-.22.4-.33.63-.33.18,0,.36.07.54.2.31.24.39.54.19.89-.14.27-.3.54-.47.8-.19.27-.16.53.03.8.28.4.66.6,1.08.6.33,0,.67-.13.99-.39.53-.44.86-1,1.01-1.69.19-.8.41-1.59.64-2.37.07-.23.21-.42.47-.42.02,0,.04,0,.06,0,.37.01.56.21.5.57-.1.59-.26,1.17-.36,1.76-.03.11,0,.34.04.36.06.01.14.02.21.02.1,0,.19-.02.23-.06.21-.23.44-.49.53-.77.24-.71.41-1.44.59-2.17.1-.44.23-.59.66-.64,2.29-.23,4.56-.46,6.83-.69.01,0,.03,0,.04,0,.14,0,.27.06.42.1-.04.14-.06.31-.14.44-1.26,2-2.53,3.99-3.8,5.97-.17.26-.27.38-.43.38-.1,0-.22-.04-.4-.12-.64-.29-1.31-.43-2.01-.44-.33,0-.51.14-.54.41-.03.27.16.47.44.57.49.16.97.31,1.44.5.21.09.44.23.39.5-.04.3-.27.49-.56.56-.05,0-.09.01-.14.01-.12,0-.25-.02-.37-.04-.89-.19-1.76-.39-2.64-.56-.13-.02-.25-.04-.37-.04-.66,0-1.17.35-1.62.84-.1.1-.17.27-.14.4.07.47.13.94.25,1.4.04.2.35.34.57.4.37.1.82.11,1.19.2.44.1.59.89.21,1.16-.26.19-.63.16-.96.24-.64.14-.87-.04-.87.63-.01.73-.14,1.13-.41,1.8-.3.74.04,1.39.83,1.53.15.03.3.04.45.04.08,0,.17,0,.25-.01,1.04-.11,2.09-.24,3.13-.37.04,0,.08,0,.12,0,.28,0,.45.15.51.46.06.37-.06.6-.41.67-.5.1-1,.17-1.49.27-.1.01-.24,0-.3.07-.1.11-.2.27-.21.43,0,.09.2.2.31.23.31.04.61.04,1.07.07.53-.09,1.2-.19,1.87-.3.14-.03.26-.04.36-.04.28,0,.43.12.62.48,1.03,1.99,2.07,3.97,3.1,5.94.01.03.04.06.04.09.04.14.07.27.1.4-.12.01-.24.05-.36.05-.03,0-.06,0-.09,0-2.33-.41-4.66-.84-6.99-1.27-.49-.09-.5-.1-.49-.6.01-.71-.11-1.43-.37-2.1-.1-.25-.24-.37-.45-.37-.06,0-.13,0-.2.03-.26.07-.37.21-.33.47.07.49.16.97.21,1.46.07.47-.09.73-.47.8-.03,0-.06,0-.1,0-.29,0-.56-.23-.63-.59-.2-.96-.39-1.9-.6-2.86-.17-.77-.66-1.27-1.43-1.44-.08-.02-.17-.02-.26-.02-.06,0-.12,0-.17,0-.47.06-.66.3-.59.76.06.37.16.73.24,1.09.06.24.14.49-.14.66-.1.05-.21.08-.32.08-.18,0-.36-.07-.51-.21-.19-.19-.39-.37-.53-.59-.15-.22-.41-.32-.7-.32-.51,0-1.08.31-1.19.78-.19.87-.11,1.67.57,2.33.54.54,1.07,1.1,1.6,1.67.16.17.27.39.37.6.13.27.06.57-.16.71-.08.05-.16.08-.23.08-.15,0-.28-.09-.41-.19-.43-.39-.87-.76-1.31-1.11-.08-.05-.2-.1-.3-.1-.03,0-.06,0-.08.01-.1.04-.21.24-.19.34.09.31.17.66.37.9.33.4.76.73,1.14,1.09.34.3.37.43.2.86-.93,2.14-1.86,4.3-2.8,6.44-.04.13-.19.21-.27.33-.11-.1-.27-.19-.34-.31-1.09-2.04-2.14-4.09-3.23-6.13-.16-.3-.11-.5.1-.73.51-.56,1.03-1.11,1.5-1.71.2-.26.33-.59.43-.91.04-.11-.06-.29-.1-.43-.14.04-.31.06-.41.14-.41.39-.79.79-1.2,1.17-.13.12-.28.23-.45.23-.07,0-.15-.02-.24-.07-.34-.2-.4-.59-.11-.91.49-.56.99-1.11,1.47-1.66.13-.16.26-.3.4-.44.66-.64.7-1.43.46-2.26-.04-.14-.19-.3-.33-.37-.37-.2-.77-.37-1.17-.54-.09-.04-.17-.06-.24-.06-.15,0-.25.1-.34.3-.1.19-.19.4-.31.56-.17.21-.36.41-.57.57-.15.1-.31.19-.48.19-.11,0-.22-.03-.33-.12-.3-.21-.26-.51-.14-.79.14-.37.33-.74.53-1.1.19-.33.2-.49-.03-.77-.25-.31-.54-.46-.85-.46-.18,0-.37.05-.58.14-1.01.47-1.51,1.31-1.73,2.37-.16.71-.31,1.44-.5,2.14-.06.2-.21.41-.39.53-.11.08-.22.11-.31.11-.2,0-.34-.16-.34-.44,0-.59.04-1.19.09-1.77,0-.1.04-.19.03-.27-.01-.17-.06-.33-.09-.49-.16.04-.33.07-.47.16-.34.23-.53.59-.59.97-.09.49-.11.96-.16,1.44-.04.47-.1.56-.56.63-2.37.41-4.74.83-7.13,1.23-.02,0-.04,0-.07,0-.08,0-.17-.02-.19-.06-.04-.06-.03-.2.01-.27,1.14-2.13,2.27-4.24,3.4-6.36.12-.21.28-.29.48-.29.05,0,.11,0,.17.01.91.13,1.83.24,2.74.36.04,0,.1.01.16.01.07,0,.13,0,.17-.04.13-.1.27-.26.3-.4.03-.07-.19-.26-.31-.3-.49-.11-1-.2-1.5-.31-.39-.09-.47-.21-.46-.6.02-.38.2-.59.54-.59.05,0,.11,0,.16.01.77.11,1.56.21,2.33.39.22.05.43.07.63.07.88,0,1.6-.43,2.24-1.08.11-.11.16-.36.13-.53-.07-.69-.2-1.36-.29-2.04-.03-.21-.11-.34-.33-.36-.31-.04-.63-.09-.94-.14-.4-.06-.63-.23-.67-.53-.06-.34.1-.64.39-.77.41-.17.87-.3,1.31-.4.39-.09.5-.16.5-.54,0-.41-.16-.74-.44-1.03-.51-.53-1.16-.87-1.84-1.14-.06-.02-.12-.03-.19-.03-.08,0-.17.01-.25.03-.9.17-1.8.37-2.7.51-.09.01-.18.02-.28.02-.21,0-.43-.03-.62-.09-.14-.04-.31-.26-.33-.41,0-.14.14-.39.29-.44.54-.23,1.11-.41,1.69-.6.23-.07.49-.11.47-.43-.01-.29-.26-.43-.51-.43-.06,0-.12,0-.18,0-.3,0-.59.03-.87.08-.4.09-.77.24-1.16.36-.12.03-.21.05-.29.05-.18,0-.29-.1-.44-.33-1.31-2.06-2.61-4.12-3.93-6.19-.06-.09-.1-.26-.07-.29.06-.06.18-.1.28-.1.02,0,.03,0,.05,0,2.31.23,4.63.47,6.96.71.47.06.67.3.76.79.1.67.23,1.34.41,2.01.07.26.29.5.47.73.07.1.23.16.34.19.03,0,.06,0,.09,0,.19,0,.26-.13.21-.35-.1-.44-.2-.89-.29-1.33-.01-.13-.01-.26-.01-.4,0-.39.11-.54.39-.6.04,0,.09-.01.13-.01.27,0,.5.16.58.45.17.64.33,1.3.49,1.94.04.21.1.41.11.63.06.56.31.99.76,1.29.37.24.73.5,1.11.7.17.09.35.14.52.14.27,0,.53-.11.74-.32.31-.31.36-.77.13-1.23-.14-.3-.31-.59-.44-.9-.16-.43-.01-.76.36-.97.13-.07.27-.11.41-.11.23,0,.45.1.62.31.21.27.4.54.6.81.23.32.54.5.89.5.08,0,.16,0,.24-.03.46-.1.79-.4.86-.87.07-.37.11-.77.11-1.16-.01-.5-.23-.93-.59-1.31-.63-.67-1.23-1.36-1.83-2.04-.07-.09-.14-.17-.19-.29-.11-.27.01-.47.21-.63.09-.07.16-.1.24-.1.11,0,.2.06.31.16.43.37.86.76,1.29,1.14.11.09.21.2.34.27.07.04.13.06.18.06.1,0,.15-.08.11-.23-.09-.39-.17-.81-.4-1.14-.37-.53-.83-1.01-1.29-1.47-.61-.6-.6-.46-.21-1.21,1.04-2,2.07-3.97,3.1-5.96.03-.06.04-.1.09-.14.07-.07.15-.19.22-.19m-2.05,26.69h4.06c.51,0,.97-.25,1.24-.66l1.82-2.71c.34-.51.34-1.18,0-1.68l-1.82-2.71c-.27-.41-.74-.66-1.24-.66h-4.06c-.51,0-.97.25-1.24.66l-1.82,2.71c-.34.51-.34,1.18,0,1.68l1.82,2.71c.27.41.74.66,1.24.66m1.94-6.37c1.01,0,1.83.81,1.83,1.81s-.81,1.83-1.83,1.83-1.81-.83-1.81-1.83.81-1.81,1.81-1.81M21.46,0h0S21.46,0,21.46,0c-.63,0-1.2.27-1.67.81-.26.27-.38.53-.43.63-.94,1.82-1.9,3.66-2.88,5.53l-.21.4-.09.18c-.4.77-.5,1.43-.3,2.05-.64.72-.83,1.69-.47,2.6.16.41.39.69.51.82.15.17.3.34.45.52-.42.03-.83.15-1.21.36-.27.16-.51.34-.71.56-.05-.2-.1-.4-.16-.6-.34-1.18-1.35-1.94-2.52-1.94h0c-.12,0-.24,0-.36.02-.44-.58-1.09-.94-1.91-1.04l-.7-.07c-2.11-.22-4.21-.44-6.31-.65h0c-.08,0-.17-.01-.24-.01-.64,0-1.26.25-1.7.69-.85.85-.69,2.05-.18,2.81l1.02,1.62c.96,1.52,1.92,3.03,2.88,4.54.22.34.46.59.7.77,0,.03,0,.05,0,.08.09.97.82,1.87,1.75,2.15.38.11.8.18,1.2.18.19,0,.39-.01.57-.04.47-.07.92-.16,1.37-.25-.37.56-.53,1.25-.41,1.97.12.83.74,1.84,2.1,2.13,0,.05.01.1.02.15-.15.08-.24.08-.29.08-.06,0-.13,0-.21-.03-.7-.15-1.38-.25-2.05-.35l-.41-.06c-.14-.02-.3-.04-.46-.04-1.22,0-2.17.77-2.45,1.94-.66.16-1.21.58-1.57,1.21-.01.02-.02.04-.03.06-1.13,2.11-2.25,4.22-3.39,6.34-.34.62-.44,1.53.05,2.29.39.63,1.08,1,1.88,1,.14,0,.28-.01.4-.03,2.38-.4,4.74-.81,7.1-1.22.39-.06.74-.17,1.03-.33.24.08.49.13.76.13.51,0,1.01-.16,1.45-.47.55-.38.99-.98,1.17-1.63.05-.18.09-.35.13-.53.03.02.05.04.08.06.41.31.92.48,1.46.49-.12.13-.23.27-.35.4-.53.61-.77,1.4-.64,2.16.08.5.31.95.66,1.32-.2.64-.14,1.33.21,1.99.55,1.03,1.08,2.05,1.61,3.07.54,1.02,1.08,2.05,1.62,3.07.27.49.63.76.8.89.37.32.83.49,1.31.49.07,0,.14,0,.21-.01.51-.05.98-.3,1.31-.69.16-.15.43-.43.6-.87.72-1.64,1.43-3.29,2.14-4.93l.64-1.48s.01-.03.02-.05c.15-.39.24-.75.24-1.09.91-.75,1.18-2,.66-3.09-.14-.3-.36-.71-.7-1.1-.11-.12-.21-.23-.32-.34.28-.04.56-.13.81-.26l.09.44c.28,1.29,1.34,2.19,2.59,2.19.15,0,.29-.01.44-.04.11-.02.21-.05.31-.08.3.18.67.31,1.1.39,2.33.43,4.65.86,6.98,1.27.11.02.27.04.44.04.26,0,.48-.04.59-.06h-.03c.57-.05,1.09-.35,1.42-.82.34-.46.46-1.05.33-1.61-.03-.14-.06-.29-.11-.44-.05-.21-.13-.41-.25-.61l-.97-1.86c-.7-1.33-1.4-2.67-2.09-4.01-.41-.78-.97-1.27-1.65-1.47-.28-1.2-1.24-1.97-2.45-1.97-.11,0-.23,0-.35.02-.72.09-1.43.18-2.14.26,0-.01,0-.02,0-.03.33-.07.73-.19,1.13-.48.8-.57,1.2-1.62,1-2.66-.06-.31-.17-.6-.33-.86.1.02.2.04.3.06.03,0,.05.01.08.02.2.03.43.07.7.07.17,0,.34-.01.5-.04.04,0,.09-.02.13-.03,1.09-.27,1.87-1.1,2.04-2.16,0-.06.02-.11.02-.17.44-.31.69-.71.81-.9,1.27-1.98,2.54-3.97,3.8-5.97.25-.39.33-.76.38-.94.15-.52.09-1.07-.17-1.55-.26-.47-.7-.82-1.22-.96-.2-.07-.52-.17-.94-.17-.06,0-.16,0-.22.01l-.37.04-6.48.65s-.04,0-.07,0c-.58.08-1.28.32-1.78.95-.07,0-.15-.02-.23-.02-.06,0-.12,0-.18,0-1.12,0-2.06.73-2.39,1.85-.05.16-.1.33-.14.5-.06-.05-.12-.11-.19-.16-.31-.24-.65-.42-1.01-.52.03-.03.05-.06.08-.09.37-.47.64-1.02.8-1.61.17-.59.06-1.11,0-1.39v-.06c-.08-.53-.36-1-.78-1.32-.03-.39-.14-.81-.34-1.26-.42-.93-.81-1.84-1.21-2.76-.4-.92-.8-1.84-1.21-2.76l-.36-.81c-.29-.69-.98-1.38-1.93-1.44-.05,0-.09,0-.14,0h0Z" fill="#1d1d1b" stroke-width="0"/>
</svg>
