<?xml version="1.0" encoding="UTF-8"?>
<svg id="icon" data-name="Capa 1" xmlns="http://www.w3.org/2000/svg" viewBox="0 0 48.21 48.01">
  <path d="m45.35,10.5c-.73-.81-1.57-1.49-2.52-2.07.64-.55,1.09-1.28,1.32-2.16.41-1.66-.21-3.3-1.63-4.27-.47-.33-.99-.67-1.6-.96-1.44-.7-3.05-1.05-4.77-1.05-.91,0-1.88.09-2.95.29-2.51.47-4.64,1.63-6.5,2.63-.61.33-1.2.68-1.79,1.05-.11-.79-.44-1.52-1.03-2.13-.74-.77-1.72-1.2-2.75-1.2-.74,0-1.49.23-2.14.67-.21.14-.43.27-.65.43-.68.44-1.44.93-2.17,1.57-.99.85-1.87,1.79-2.71,2.87-.74-.84-1.82-1.37-3.02-1.37-.84,0-1.64.26-2.34.76-1.66,1.17-2.52,3.39-2.08,5.4.29,1.31,1.12,2.34,2.23,2.86-.4-.14-.82-.2-1.25-.2-1.55,0-2.98.94-3.62,2.39l-.18.43c-.61,1.37-1.23,2.78-1.72,4.29C.49,23.75.02,26.34,0,28.83c-.02,1.67.09,3.42.33,5.23.4,3.13,1.32,5.79,2.83,8.12,2.31,3.54,5.73,5.55,9.91,5.81.33.02.67.03,1,.03,4.29,0,7.95-1.67,10.65-3.13,1.67-.9,2.39-2.78,1.75-4.57-.55-1.49-1.91-2.45-3.53-2.45-.17,0-.35,0-.55.03-.67.09-1.34.15-1.96.23l-.41.05c-.18-.02-.35-.03-.5-.03-.46-.03-.85-.06-1.19-.11-.38-.06-.81-.17-1.29-.32-1.98-.62-3.16-2.19-3.25-4.29-.09-1.91.4-3.75,1.46-5.59,3.53-6.09,8.51-9.73,15.26-11.11.68-.14,1.37-.21,2.04-.21,1.02,0,2.01.17,2.95.5,1.93.67,3.07,2.23,3.15,4.27.03.84-.05,1.66-.24,2.51-.06.27-.12.65-.11,1.11-.18.03-.35.08-.53.14-2.11.68-3.68,2.95-3.57,5.17.11,2.14,1.87,3.81,4,3.81.44,0,.88-.06,1.31-.21,1.96-.67,3.45-2.67,3.53-4.76,0-.15,0-.29-.02-.44.9-.23,1.7-.78,2.29-1.58,1.9-2.6,2.87-5.44,2.9-8.4.05-3.21-.93-5.93-2.86-8.12Zm-35.5-2.46c.18-.14.38-.2.58-.2.47,0,.9.33.96.87.02.14.02.27.02.33,0,.11,0,.21-.02.3-.06.62-.33,1.11-.79,1.5l-.02.02c-.21.18-.44.27-.68.27-.43,0-.81-.3-.91-.84-.18-.79.21-1.79.87-2.26Zm-.7,6.06s-.05.09-.06.14c-.15-.11-.32-.2-.47-.27.17.06.35.11.53.14Zm29.36,16.82c-.11.03-.21.05-.32.05-.5,0-.93-.38-.96-.93-.05-.85.65-1.85,1.46-2.13.12-.03.23-.05.33-.05.53,0,.97.46.96,1.06-.03.84-.68,1.72-1.47,1.99Zm4.33-5.68c-.23.3-.52.46-.79.46s-.52-.15-.64-.43c-.11-.23-.11-.56-.05-.82.24-1.08.36-2.17.32-3.3-.12-3.28-2.07-5.93-5.18-7.02-1.29-.46-2.63-.67-3.95-.67-.88,0-1.76.09-2.64.27-7.66,1.57-13.39,5.84-17.28,12.57-1.29,2.22-1.99,4.64-1.87,7.23.14,3.36,2.17,6.05,5.36,7.07.58.18,1.17.33,1.76.43.67.09,1.35.11,2.19.18.81-.09,1.76-.2,2.71-.32h.17c.32,0,.55.12.65.44.14.35.03.67-.32.87-2.9,1.55-5.9,2.77-9.21,2.77-.27,0-.55-.02-.82-.03-3.25-.2-5.76-1.7-7.54-4.42-1.35-2.08-2.05-4.41-2.37-6.85-.21-1.58-.32-3.21-.3-4.8.02-2.48.58-4.88,1.32-7.2.49-1.5,1.16-2.96,1.79-4.42.17-.38.5-.58.84-.58.29,0,.58.15.74.47.11.2.08.47.11.71.06.64.05,1.31.17,1.93.15.76.64,1.14,1.32,1.14h.05c.68-.02,1.15-.44,1.31-1.22.5-2.37,1.25-4.67,2.29-6.85.02-.05.05-.09.06-.14.4-.81.81-1.58,1.25-2.34,1.03-1.78,2.26-3.4,3.86-4.77.78-.67,1.67-1.19,2.54-1.76.15-.11.3-.15.44-.15.2,0,.4.09.56.26.29.3.26.65.09,1.02-.33.77-.7,1.53-.94,2.33-.24.76.03,1.43.62,1.79.23.15.49.21.74.21.36,0,.73-.14,1.09-.44,1.5-1.23,3.13-2.33,4.85-3.25,1.79-.97,3.59-1.93,5.62-2.31.81-.15,1.6-.24,2.39-.24,1.19,0,2.34.2,3.46.74.41.2.79.46,1.17.71.36.24.52.62.4,1.05-.11.44-.38.71-.85.79-.7.11-1.38.29-1.98.73-.58.43-.91.96-.77,1.7.14.68.59,1.03,1.25,1.23,1.63.49,3.1,1.23,4.24,2.52,1.55,1.73,2.13,3.8,2.1,6.05-.03,2.48-.88,4.68-2.33,6.67Z" fill="#1d1d1b" stroke-width="0"/>
  <g>
    <path d="m45.17,18.57c-.03,2.48-.88,4.68-2.33,6.67-.23.3-.52.46-.79.46s-.52-.15-.64-.43c-.11-.23-.11-.56-.05-.82.24-1.08.36-2.17.32-3.3-.12-3.28-2.07-5.93-5.18-7.02-1.29-.46-2.63-.67-3.95-.67-.88,0-1.76.09-2.64.27-7.66,1.57-13.39,5.84-17.28,12.57-1.29,2.22-1.99,4.64-1.87,7.23.14,3.36,2.17,6.05,5.36,7.07.58.18,1.17.33,1.76.43.67.09,1.35.11,2.19.18.81-.09,1.76-.2,2.71-.32h.17c.32,0,.55.12.65.44.14.35.03.67-.32.87-2.9,1.55-5.9,2.77-9.21,2.77-.27,0-.55-.02-.82-.03-3.25-.2-5.76-1.7-7.54-4.42-1.35-2.08-2.05-4.41-2.37-6.85-.21-1.58-.32-3.21-.3-4.8.02-2.48.58-4.88,1.32-7.2.49-1.5,1.16-2.96,1.79-4.42.17-.38.5-.58.84-.58.29,0,.58.15.74.47.11.2.08.47.11.71.06.64.05,1.31.17,1.93.15.76.64,1.14,1.32,1.14h.05c.68-.02,1.15-.44,1.31-1.22.5-2.37,1.25-4.67,2.29-6.85.02-.05.05-.09.06-.14.4-.81.81-1.58,1.25-2.34,1.03-1.78,2.26-3.4,3.86-4.77.78-.67,1.67-1.19,2.54-1.76.15-.11.3-.15.44-.15.2,0,.4.09.56.26.29.3.26.65.09,1.02-.33.77-.7,1.53-.94,2.33-.24.76.03,1.43.62,1.79.23.15.49.21.74.21.36,0,.73-.14,1.09-.44,1.5-1.23,3.13-2.33,4.85-3.25,1.79-.97,3.59-1.93,5.62-2.31.81-.15,1.6-.24,2.39-.24,1.19,0,2.34.2,3.46.74.41.2.79.46,1.17.71.36.24.52.62.4,1.05-.11.44-.38.71-.85.79-.7.11-1.38.29-1.98.73-.58.43-.91.96-.77,1.7.14.68.59,1.03,1.25,1.23,1.63.49,3.1,1.23,4.24,2.52,1.55,1.73,2.13,3.8,2.1,6.05Z" fill="#fff" stroke-width="0"/>
    <path d="m11.4,9.04c0,.11,0,.21-.02.3-.06.62-.33,1.11-.79,1.5l-.02.02c-.21.18-.44.27-.68.27-.43,0-.81-.3-.91-.84-.18-.79.21-1.79.87-2.26.18-.14.38-.2.58-.2.47,0,.9.33.96.87.02.14.02.27.02.33Z" fill="#fff" stroke-width="0"/>
    <path d="m39.99,28.94c-.03.84-.68,1.72-1.47,1.99-.11.03-.21.05-.32.05-.5,0-.93-.38-.96-.93-.05-.85.65-1.85,1.46-2.13.12-.03.23-.05.33-.05.53,0,.97.46.96,1.06Z" fill="#fff" stroke-width="0"/>
  </g>
</svg>
