<?xml version="1.0" encoding="UTF-8"?>
<svg id="Capa_1" data-name="Capa 1" xmlns="http://www.w3.org/2000/svg" viewBox="0 0 27.53 38.72">
  <path d="m24.99,19.15c-1.42-1.23-2.84-2.44-4.27-3.65-.9-.76-1.05-1.53-.51-2.57l1.27-2.43c1.04-2.01,2.13-4.09,3.23-6.11.43-.79.44-1.64.03-2.33-.39-.66-1.13-1.06-1.97-1.06h-.13c-.64.03-1.29.04-1.93.04-.48,0-.96-.01-1.44-.01-.49-.01-.97-.01-1.48-.01h-2.95c-.66,0-1.32,0-2.01-.01-1.22,0-2.18.57-2.77,1.64C7.15,7.88,4.25,13.12,1.36,18.36c-.72,1.3-.33,2.74.95,3.49,2.06,1.22,4.13,2.42,6.19,3.63.38.22.75.33,1.11.33s1.21-.12,1.7-1.24l1.71-3.9c.45-1.02.24-1.93-.6-2.68l-.88-.77c-.36-.32-.72-.63-1.08-.96-.07-.05-.08-.08-.04-.14.7-1.22,1.4-2.44,2.1-3.65l.94-1.66c.04-.07.05-.08.16-.08h.9l-2.14,4.38c-.48.98-.32,1.86.5,2.61.43.39.86.78,1.36,1.23.17.15.19.22.19.22,0,0,0,.06-.05.24l-3.79,10.8c-.59,1.68-1.17,3.35-1.75,5.04-.21.6-.12,1.25.23,1.74.33.47.85.73,1.43.73.11,0,.21,0,.31-.02.41-.07.82-.29,1.23-.67,2.37-2.15,4.74-4.3,7.11-6.46l5.9-5.36c.98-.9,1.49-1.96,1.48-3.07-.02-1.1-.55-2.14-1.54-2.99Zm-.62,5.32c-4.33,3.94-8.66,7.89-13,11.82-.2.19-.46.38-.72.42-.05.01-.1.01-.15.01-.56,0-.92-.55-.71-1.15.65-1.9,1.32-3.8,1.98-5.7,1.18-3.38,2.37-6.75,3.55-10.13.23-.65.12-1.06-.41-1.53-.45-.41-.91-.82-1.36-1.23-.49-.45-.56-.84-.27-1.44.79-1.63,1.59-3.26,2.39-4.89.3-.62.12-.92-.56-.92h-1.5c-.45,0-.79.19-1.01.59-1.02,1.77-2.04,3.54-3.05,5.31-.29.51-.2.98.24,1.38.65.58,1.31,1.15,1.96,1.73.53.46.63.9.35,1.53-.56,1.3-1.13,2.6-1.71,3.9-.18.42-.45.64-.78.64-.18,0-.38-.07-.6-.2-2.07-1.2-4.13-2.41-6.19-3.62-.81-.48-1.05-1.32-.59-2.15,2.9-5.24,5.8-10.47,8.7-15.7.41-.75,1.04-1.13,1.9-1.13h.02c.68.01,1.35.01,2.02.01h2.94c.97,0,1.93.02,2.9.02.66,0,1.32-.01,1.98-.04h.08c1,0,1.61.9,1.06,1.91-1.54,2.83-3.01,5.7-4.5,8.56-.77,1.46-.51,2.73.74,3.79,1.43,1.21,2.85,2.42,4.27,3.64,1.58,1.37,1.58,3.16.03,4.57Z" fill="#fff" stroke-width="0"/>
  <path d="m27.53,22.13c.02,1.39-.63,2.74-1.81,3.82-1.94,1.76-3.87,3.52-5.8,5.27-2.4,2.19-4.8,4.37-7.2,6.55-.57.52-1.14.82-1.74.92-.16.02-.32.03-.48.03-.89,0-1.73-.43-2.25-1.15-.53-.75-.67-1.74-.36-2.65.61-1.75,1.22-3.51,1.83-5.26l.16-.45.95-2.69c-.37.19-.78.29-1.22.29-.54,0-1.08-.16-1.61-.47-2.07-1.2-4.13-2.41-6.19-3.63-1.75-1.03-2.31-3.06-1.33-4.84C3.38,12.63,6.28,7.4,9.18,2.17,9.95.78,11.25,0,12.87,0c.66.01,1.33.01,2,.01h2.94c.49,0,.98,0,1.47.01.47,0,.95.01,1.43.01.73,0,1.34-.02,1.89-.04h.17c1.19,0,2.25.58,2.83,1.55.59.99.58,2.23-.01,3.32-1.1,2.01-2.18,4.09-3.23,6.1-.42.81-.84,1.62-1.26,2.42-.33.63-.28.88.27,1.34,1.43,1.22,2.86,2.43,4.27,3.66,1.2,1.03,1.87,2.36,1.89,3.74Z" fill="#1d1d1b" stroke-width="0"/>
  <path d="m24.37,24.47c-4.33,3.94-8.66,7.89-13,11.82-.2.19-.46.38-.72.42-.05.01-.1.01-.15.01-.56,0-.92-.55-.71-1.15.65-1.9,1.32-3.8,1.98-5.7,1.18-3.38,2.37-6.75,3.55-10.13.23-.65.12-1.06-.41-1.53-.45-.41-.91-.82-1.36-1.23-.49-.45-.56-.84-.27-1.44.79-1.63,1.59-3.26,2.39-4.89.3-.62.12-.92-.56-.92h-1.5c-.45,0-.79.19-1.01.59-1.02,1.77-2.04,3.54-3.05,5.31-.29.51-.2.98.24,1.38.65.58,1.31,1.15,1.96,1.73.53.46.63.9.35,1.53-.56,1.3-1.13,2.6-1.71,3.9-.18.42-.45.64-.78.64-.18,0-.38-.07-.6-.2-2.07-1.2-4.13-2.41-6.19-3.62-.81-.48-1.05-1.32-.59-2.15,2.9-5.24,5.8-10.47,8.7-15.7.41-.75,1.04-1.13,1.9-1.13h.02c.68.01,1.35.01,2.02.01h2.94c.97,0,1.93.02,2.9.02.66,0,1.32-.01,1.98-.04h.08c1,0,1.61.9,1.06,1.91-1.54,2.83-3.01,5.7-4.5,8.56-.77,1.46-.51,2.73.74,3.79,1.43,1.21,2.85,2.42,4.27,3.64,1.58,1.37,1.58,3.16.03,4.57Z" fill="#fff" stroke-width="0"/>
</svg>