<?xml version="1.0" encoding="UTF-8"?>
<svg id="Capa_1" data-name="Capa 1" xmlns="http://www.w3.org/2000/svg" viewBox="0 0 35.28 39.37">
  <path d="m33.28,20.19l-9.39-9.75c-.54-.57-1.15-.86-1.78-.86s-1.27.3-1.83.9c-2.19,2.36-4.75,5.09-7.49,7.6-.61.57-.66,1.17-.64,1.48.02.31.17.92.88,1.37l.35.21c1.88,1.21,3.79,2.58,5.05,4.54.34.53.85.83,1.41.83.23,0,.45-.06.67-.16.43-.21.99-.7,1.08-1.36.13-.85.19-1.5.16-2.1-.06-1.45-.48-2.86-1.32-4.4.51-.51,1.02-1.02,1.53-1.53l4.75,4.79c-.23.21-.45.42-.68.63-.83.78-1.68,1.55-2.5,2.36-1.62,1.62-3.24,3.3-4.77,4.91l-9.98-10.38,1.23-1.11c1.32-1.22,2.64-2.42,3.95-3.66,1.87-1.75,3.52-3.35,5.09-4.9,1.22-1.22,1.85-2.73,1.85-4.39,0-.96-.24-1.92-.72-2.91-.37-.76-.92-1.15-1.63-1.15h-.2c-.57.07-1.29.38-1.55,1.51-.14.57-.41,1.03-.81,1.41-.21.19-.41.38-.6.58l-3.48,3.35c-3.27,3.14-6.55,6.29-9.82,9.43-.63.59-.93,1.18-.94,1.83,0,.64.28,1.24.86,1.83.94.95,1.88,1.89,2.82,2.84,4.33,4.36,8.82,8.85,12.84,13.63.35.41.83.65,1.34.65.66,0,1.26-.41,1.58-1.04.05-.08.08-.17.13-.32.8-1.97,1.89-3.55,3.3-4.8,2.38-2.11,4.73-4.24,7.09-6.37l2.04-1.84c.63-.56.94-1.15.96-1.78.02-.65-.25-1.25-.83-1.87Zm-.9,2.79c-3.04,2.73-6.06,5.49-9.12,8.2-1.65,1.45-2.79,3.22-3.6,5.23-.03.09-.07.19-.1.27-.12.24-.32.37-.53.37-.16,0-.32-.07-.46-.23-4.9-5.82-10.36-11.11-15.71-16.53-.72-.73-.68-1.31.06-2.02,4.32-4.15,8.63-8.3,12.96-12.46.31-.29.61-.6.93-.89.59-.54.96-1.22,1.15-1.98.07-.31.19-.58.54-.63h.08c.31,0,.46.23.59.49.37.76.6,1.56.6,2.41,0,1.4-.54,2.6-1.52,3.57-1.66,1.66-3.35,3.28-5.05,4.88-1.85,1.75-3.74,3.45-5.62,5.18-.35.32-.36.48-.05.8,3.58,3.72,7.16,7.45,10.74,11.17.24.24.38.37.51.37.14,0,.28-.14.52-.39,1.68-1.76,3.36-3.51,5.08-5.21,1.16-1.16,2.39-2.25,3.58-3.37.37-.34.37-.49.01-.85-1.84-1.87-3.7-3.72-5.54-5.57-.19-.2-.31-.29-.43-.29-.13,0-.25.09-.45.29-.71.7-1.4,1.4-2.11,2.11-.36.36-.38.52-.12.97.74,1.26,1.24,2.61,1.3,4.08.02.63-.05,1.26-.14,1.89-.03.19-.27.39-.45.49-.06.03-.12.05-.16.05-.17,0-.34-.13-.44-.3-1.37-2.11-3.33-3.57-5.41-4.89-.1-.07-.22-.13-.34-.21-.44-.28-.48-.66-.08-1.02,2.64-2.43,5.11-5.04,7.54-7.67.34-.36.66-.53.99-.53s.63.17.95.51c3.13,3.24,6.26,6.49,9.39,9.75.7.72.68,1.3-.07,1.98Z" fill="#fff" stroke-width="0"/>
  <path d="m35.28,22.09c-.03.96-.49,1.84-1.34,2.62l-2.06,1.85c-2.31,2.09-4.71,4.25-7.07,6.36-1.29,1.14-2.27,2.56-3,4.37-.05.14-.1.27-.16.39-.5,1.04-1.51,1.68-2.62,1.68-.85,0-1.66-.38-2.23-1.05-4-4.73-8.46-9.21-12.78-13.56-.94-.94-1.88-1.89-2.82-2.84C.39,21.1-.01,20.21,0,19.26c.01-.96.45-1.85,1.29-2.67,3.35-3.2,6.69-6.41,10.02-9.62l2.93-2.83.34-.32c.21-.2.42-.41.63-.6.24-.22.38-.48.48-.83C16.14.45,17.62.08,18.23.02c.1-.02.22-.02.32-.02.67,0,1.92.23,2.68,1.8.56,1.16.83,2.27.83,3.41,0,1.19-.28,2.32-.8,3.34.31-.08.59-.12.85-.12.66,0,1.66.21,2.62,1.22l9.39,9.75c.8.83,1.19,1.74,1.16,2.7Z" fill="#1d1d1b" stroke-width="0"/>
  <path d="m32.38,22.98c-3.04,2.73-6.06,5.49-9.12,8.2-1.65,1.45-2.79,3.22-3.6,5.23-.03.09-.07.19-.1.27-.12.24-.32.37-.53.37-.16,0-.32-.07-.46-.23-4.9-5.82-10.36-11.11-15.71-16.53-.72-.73-.68-1.31.06-2.02,4.32-4.15,8.63-8.3,12.96-12.46.31-.29.61-.6.93-.89.59-.54.96-1.22,1.15-1.98.07-.31.19-.58.54-.63h.08c.31,0,.46.23.59.49.37.76.6,1.56.6,2.41,0,1.4-.54,2.6-1.52,3.57-1.66,1.66-3.35,3.28-5.05,4.88-1.85,1.75-3.74,3.45-5.62,5.18-.35.32-.36.48-.05.8,3.58,3.72,7.16,7.45,10.74,11.17.24.24.38.37.51.37.14,0,.28-.14.52-.39,1.68-1.76,3.36-3.51,5.08-5.21,1.16-1.16,2.39-2.25,3.58-3.37.37-.34.37-.49.01-.85-1.84-1.87-3.7-3.72-5.54-5.57-.19-.2-.31-.29-.43-.29-.13,0-.25.09-.45.29-.71.7-1.4,1.4-2.11,2.11-.36.36-.38.52-.12.97.74,1.26,1.24,2.61,1.3,4.08.02.63-.05,1.26-.14,1.89-.03.19-.27.39-.45.49-.06.03-.12.05-.16.05-.17,0-.34-.13-.44-.3-1.37-2.11-3.33-3.57-5.41-4.89-.1-.07-.22-.13-.34-.21-.44-.28-.48-.66-.08-1.02,2.64-2.43,5.11-5.04,7.54-7.67.34-.36.66-.53.99-.53s.63.17.95.51c3.13,3.24,6.26,6.49,9.39,9.75.7.72.68,1.3-.07,1.98Z" fill="#fff" stroke-width="0"/>
</svg>