<?xml version="1.0" encoding="UTF-8"?>
<svg id="Capa_1" data-name="Capa 1" xmlns="http://www.w3.org/2000/svg" viewBox="0 0 28.62 37.54">
  <path d="m26.44,31.66c-1.62,2.28-3.82,4.14-6.54,5.56-.18.09-.33.14-.43.18l-.07.02c-.22.08-.44.12-.67.12-.52,0-1.02-.21-1.41-.58-.55-.54-.74-1.36-.49-2.09.03-.12.1-.34.25-.59.58-.98,1.01-2.1,1.34-3.55-.26.12-.54.18-.82.18-.47,0-.94-.17-1.31-.49l-.04-.04-.05-.03c-.68-.6-.88-1.59-.48-2.4l.09-.17c.07-.16.15-.31.23-.47.35-.66.46-1.28.34-1.94-.03-.16-.07-.32-.13-.48-.15.83-.48,1.57-1,2.21-.25.32-.55.6-.94.9-.29.23-.39.39-.43.49-.17.37-.33.74-.5,1.1-.36.79-.71,1.53-1,2.29-.2.49-.31,1.12.37,1.99.1.13.2.27.29.41.21.3.34.7.37,1.06.06.66-.23,1.3-.73,1.72-.37.3-.83.46-1.29.46-.21,0-.41-.03-.61-.09-.1-.03-.29-.08-.49-.18-3.42-1.56-6.14-3.81-8.1-6.69-.77-1.14-1.19-2.49-1.26-4.12-.08-1.62.11-3.16.33-4.73.31-2.15.26-3.88-.16-5.46-.19-.75-.45-1.43-.77-2.07-.1-.21-.16-.39-.2-.51v-.05c-.28-.74-.09-1.57.49-2.12l.05-.06c.38-.36.88-.55,1.39-.55.27,0,.54.05.79.17l.07.02c.16.07.31.13.46.22,1.95,1.08,3.33,2.64,4.12,4.66.5-3.04,1.24-5.54,2.32-7.81,1.03-2.18,2.28-3.87,3.83-5.18,1.72-1.46,3.7-2.42,5.86-2.84.44-.08.92-.13,1.43-.13.08,0,.16.01.23.01,1.19.03,1.78.68,2.02,1.06.25.39.59,1.2.11,2.32-.66,1.51-1.09,2.89-1.32,4.21-.23,1.32-.23,2.61-.01,3.84.11.63.43,1.26,1.01,1.99.28.34.56.67.84,1.01.42.5.86,1.02,1.28,1.57,1.4,1.84,2.37,3.67,2.96,5.6,1.11,3.6.56,6.99-1.62,10.05Z" fill="#1d1d1b" stroke-width="0"/>
  <path d="m24.81,30.5c-1.52,2.14-3.51,3.74-5.83,4.94-.07.04-.14.06-.27.1.04-.11.05-.18.09-.24,1.03-1.74,1.53-3.66,1.87-5.63.15-.88.26-1.77.37-2.65.02-.15.03-.3.01-.45-.02-.21-.09-.31-.22-.31-.06,0-.14.03-.23.08-.13.07-.24.17-.35.26-.75.67-1.51,1.34-2.27,2.01-.12.11-.25.2-.38.3-.03-.03-.06-.05-.08-.07.09-.2.18-.39.29-.59.54-1.01.74-2.09.54-3.23-.17-.97-.62-1.8-1.21-2.57-.78-1-1.75-1.77-2.82-2.44-.07-.04-.14-.08-.21-.11-.04-.02-.08-.03-.11-.03-.08,0-.13.07-.12.18,0,.19.04.37.07.55.13.95.29,1.9.37,2.86.07.85-.07,1.69-.63,2.39-.17.21-.38.4-.6.57-.45.34-.81.74-1.04,1.26-.51,1.15-1.07,2.29-1.54,3.47-.55,1.42-.27,2.75.66,3.95.08.1.16.21.24.32.01.02,0,.05.01.11-.11-.04-.21-.06-.3-.1-2.96-1.35-5.43-3.28-7.27-6-.64-.93-.87-1.97-.93-3.08-.07-1.47.12-2.91.32-4.35.3-2.1.34-4.19-.2-6.26-.23-.85-.52-1.67-.92-2.46-.05-.1-.08-.22-.12-.34.02-.01.04-.03.06-.05.11.05.24.09.35.15,1.98,1.1,3.16,2.79,3.62,4.99.13.58.27,1.15.41,1.72.2.83.66,1.53,1.18,2.19.26.35.57.66.88.98.05.06.15.08.23.12.04-.09.11-.18.11-.27.07-1.86.23-3.72.49-5.56.41-2.84,1.06-5.6,2.3-8.2.81-1.72,1.85-3.28,3.31-4.51,1.44-1.22,3.09-2.04,4.95-2.4.34-.07.7-.1,1.05-.1.06,0,.12.01.18.01.42.01.51.19.34.58-.65,1.5-1.17,3.05-1.45,4.67-.26,1.51-.28,3.02-.01,4.53.19,1.1.74,2.03,1.42,2.89.69.85,1.42,1.67,2.09,2.54,1.15,1.51,2.08,3.15,2.64,4.98.92,2.99.47,5.76-1.34,8.3Z" fill="#fff" stroke-width="0"/>
</svg>