<?xml version="1.0" encoding="UTF-8"?>
<svg id="icon" data-name="Capa 1" xmlns="http://www.w3.org/2000/svg" viewBox="0 0 49.11 45.02">
  <path d="m42.86,27.14c-.04-.14-.09-.27-.17-.39-.06-.1-.11-.18-.17-.27-.15-.25-.32-.53-.58-.8-.87-.87-1.74-1.74-2.61-2.6-.81-.81-1.63-1.63-2.44-2.44-.47-.48-.99-.75-1.53-.8-.07-.01-.14-.01-.2-.01-.37,0-.73.1-1.07.31-.23.12-.47.31-.69.53-.6.6-1.21,1.22-1.8,1.82-1.64,1.65-3.28,3.3-4.91,4.94-.63.62-1.26,1.24-1.88,1.87-.25.25-.43.49-.57.74-.18.33-.28.68-.27,1.03,0,.09,0,.18.01.27h.01c.06.52.32,1,.79,1.45,1.71,1.69,3.41,3.37,5.11,5.09.46.46.95.71,1.47.78.07.01.15.01.22.01.16,0,.31-.01.46-.05.22-.05.43-.14.64-.26.22-.14.43-.3.63-.5,1.12-1.13,2.24-2.25,3.37-3.39.01-.02.02-.04.02-.04.26-.25.5-.5.75-.75,1.51-1.51,3.02-3.03,4.52-4.54.25-.25.41-.52.55-.75.05-.09.1-.17.16-.26.2-.3.26-.65.17-.99Zm-1.76,1.13c-2.88,2.91-5.79,5.8-8.67,8.72-.18.18-.38.32-.57.39-.1.04-.18.05-.28.05-.26,0-.53-.15-.83-.43-1.69-1.7-3.4-3.4-5.11-5.09-.41-.39-.53-.75-.39-1.12.06-.2.21-.41.42-.63,2.88-2.86,5.75-5.74,8.61-8.63.2-.21.39-.34.58-.42.1-.04.21-.06.31-.06.28,0,.55.15.85.46,1.67,1.69,3.37,3.35,5.04,5.04.25.23.39.55.62.89-.05.09-.11.17-.15.25-.15.22-.26.43-.42.59Z" fill="#fff" stroke-width="0"/>
  <path d="m31.78,39.22l-.14-.18-.1-.12-.18-.26c-.12-.15-.25-.3-.38-.43-1.63-1.63-3.26-3.25-4.89-4.88l-.99-.97c-.43-.43-.78-.78-1.11-1.03h-.01c-.39-.32-.78-.5-1.23-.53-.05-.01-.09-.01-.14-.01-.91,0-1.5.59-2.55,1.64-.18.18-.74.74-.84,1.51h0c-.01.1-.01.18-.01.27,0,.91.65,1.54.86,1.75,1.38,1.34,2.75,2.71,4.1,4.06l1.83,1.83c.06.06.12.11.17.16h0c.89.89,1.44,1.4,2.3,1.4.63,0,1.1-.28,1.63-.76.27-.25.55-.54.89-.89.22-.23.41-.49.6-.78l.2-.3c.18-.25.27-.55.23-.85-.02-.23-.11-.46-.26-.64Zm-3.29,2.98c-.39,0-.8-.41-1.6-1.19-1.98-1.98-3.94-3.97-5.95-5.91-.66-.65-.65-1.15,0-1.79.85-.85,1.26-1.28,1.67-1.28.1,0,.2.02.3.07.33.15.71.53,1.33,1.15,1.96,1.95,3.92,3.89,5.86,5.85.18.18.34.41.53.65.06.07.12.15.18.23-.26.34-.44.68-.7.95-.81.85-1.22,1.27-1.63,1.27Z" fill="#fff" stroke-width="0"/>
  <path d="m46.96,41.13c-.48-.14-1.08-.31-1.77-.55-.06-.02-.18-.07-.36-.15-.36-.15-.92-.38-1.71-.69-.05-.02-.11-.04-.16-.06-.91-.34-1.86-.69-2.01-.86-.12-.25-.16-.79.39-2.01.06-.14.14-.27.21-.39,0-.01.01-.02.01-.04.21-.37.44-.66.63-.91.14-.17.41-.52.5-.92h0s.01-.02.01-.02c.09-.36.04-.76-.34-1.13-.05-.05-.1-.09-.15-.12-.21-.16-.48-.26-.75-.26-.46,0-.74.18-1.58.73-.43.27-1.23.81-1.35.89-.05.04-.42.3-1.02.75h-.01c-1.01.79-2.65,2.13-4.35,3.87-.15.15-.3.31-.44.47-.2.2-.38.42-.58.63-.07.07-.26.28-.44.6-.18.33-.31.69-.38,1.07-.06.34.02.69.23.97.01.01.01.02.02.04.23.28.58.44.95.44h2.55c1.87,0,5.15,0,8.85.05l2.72.04c.62,0,1.15-.44,1.22-1.06.1-.62-.3-1.19-.9-1.35Zm-3.03,1.15c-3.73-.05-7.03-.05-8.9-.05h-2.51c.04-.2.11-.43.25-.69.11-.18.22-.32.28-.39,2.97-3.3,6.18-5.5,6.18-5.5.21-.14.58-.39,1.33-.87.44-.28.68-.44.81-.49.04-.02.07-.04.1-.04.01,0,.02,0,.02.01.11.1-.52.68-1.05,1.63,0,0-.01.01-.01.02-.07.14-.15.27-.21.41-.28.6-.91,2.03-.37,3.08.3.55,1.08.86,2.68,1.45,1.28.48,2.01.83,2.24.91.71.25,1.35.43,1.86.57-.64,0-1.58-.02-2.71-.04Z" fill="#fff" stroke-width="0"/>
  <path d="m46.74,34.6c-.31-.75-1.01-1.13-1.59-1.23-.07-.02-.26-.04-.34-.04-.33,0-.64.09-.94.23-.44.21-.83.55-1.17.96h0c-.44.54-.81,1.17-1.1,1.76-.01.04-.02.06-.04.09,0,.01-.01.02-.01.04l-.2.52c-.15.42-.06.89.23,1.23.23.27.58.42.92.42.09,0,.17-.01.26-.02.14-.02.28-.06.43-.1,1.17-.31,2.81-.92,3.4-2.13.11-.23.44-.94.14-1.72Zm-1.24,1.19c-.49,1-2.67,1.49-2.98,1.55.05-.14.11-.28.16-.42.01-.04.02-.06.04-.1.33-.68.69-1.24,1.06-1.64.36-.39.73-.63,1.03-.63.05,0,.09,0,.12.01.16.02.53.16.67.48.11.3-.04.59-.1.74Z" fill="#fff" stroke-width="0"/>
  <path d="m47.28,39.93c-.55-.15-1.13-.32-1.69-.52-.04-.02-.14-.06-.27-.12-.1-.04-.21-.09-.33-.14,1.12-.47,2.18-1.19,2.72-2.29.57-1.18.41-2.13.16-2.72-.48-1.22-1.6-1.82-2.49-1.99-.18-.04-.38-.05-.58-.05-.54,0-1.06.14-1.56.41h-.01c-.46-.47-1.11-.74-1.76-.74-.15,0-.28.01-.41.04.59-.6,1.19-1.19,1.79-1.8.34-.36.57-.73.73-.99.05-.06.07-.14.12-.2.18.02.37.05.57.05.53,0,1.03-.15,1.47-.43.78-.5,1.38-1.11,1.96-1.69.18-.18.37-.37.57-.55.9-.86,1.02-2.28.26-3.28-.1-.14-.18-.26-.26-.37-.22-.3-.43-.6-.75-.92-1.55-1.56-3.12-3.12-4.68-4.68l-1.12-1.11c-1.12-1.12-1.99-1.99-3.44-1.99s-2.33.9-3.36,1.93l-.06.06c-.81.81-1.21,1.71-1.21,2.66,0,.15.01.3.04.44-.41.2-.79.48-1.15.85-.49.5-.99,1-1.49,1.5-.09-.1-.15-.17-.22-.26-.18-.23-.38-.47-.63-.71-5.02-5.02-10.05-10.04-15.08-15.04l-.32-.32c-.38-.38-.76-.78-1.23-1.06-.04-1.18-.66-2.35-1.66-3.12-.5-.38-1.07-.63-1.66-.74-.22-.05-.46-.06-.69-.06-2.43,0-4.03,2.24-4.56,2.97-.59.85-.89,1.58-.94,2.36-.07,1.19.38,2.36,1.28,3.31.22.22.48.41.78.53.63.28,1.27.43,1.91.43h.06c.23.36.53.71.91,1.1l3.31,3.3c3.88,3.85,7.76,7.72,11.65,11.58.17.17.31.32.44.46.3.31.63.65,1.03.91-.49.5-1,1-1.49,1.49-.37.37-.66.76-.85,1.17-.15-.02-.31-.04-.47-.04-1.43,0-2.28.86-3.35,1.93l-.06.06c-.39.39-.7.81-.9,1.26-.1-.11-.2-.23-.28-.36-.75-1.01-1.49-2.01-2.72-2.18-.31-1.74-1.35-3.18-1.48-3.34-.32-.43-.69-.86-1.08-1.27-.87-.86-1.91-1.31-2.97-1.31-.53,0-1.03.11-1.5.33-1.49.71-2.04,2.3-2.07,3.45-.05,3.09,3.05,4.49,5.1,5.42.42.18.83.3,1.22.31.02.17.05.36.09.54-.89-.44-2.35-1.16-4.73-2.29-.62-.3-1.26-.58-1.91-.84-.3-.11-.6-.17-.91-.17-.67,0-1.32.27-1.8.78-.69.74-.86,1.82-.43,2.73.36.75.76,1.47,1.23,2.11l.2.26c.21.31.48.66.78,1.1-.06.02-.14.06-.2.1-.63.3-1.26.6-1.88.94-.22.12-.39.25-.47.31-.18.12-.41.23-.65.3-1.15.31-1.91,1.39-1.82,2.57.1,1.18,1.01,2.13,2.19,2.25.42.05,1.11.11,1.95.17.94.06,1.8.1,2.65.1s1.63-.04,2.34-.07c.71-.02,1.38-.06,2.17-.06.57,0,1.15.02,1.76.05.97.05,1.48.11,1.92.16.5.07.99.12,1.82.12h.37c.69-.01,1.28-.05,1.85-.09.71-.05,1.45-.11,2.48-.11h.18c.64.01,1.29.04,1.92.07h.16c.92,0,1.79-.52,2.2-1.37.73.65,1.49,1.13,2.52,1.13.87,0,1.54-.33,2.15-.84.47.54,1.15.86,1.87.86h2.51c3.08,0,6.06.01,8.87.05,1.13.01,2.07.04,2.71.04h.04c1.23,0,2.28-.9,2.44-2.12.18-1.23-.59-2.39-1.8-2.72Zm-3.51-4.74c.36-.39.73-.63,1.03-.63.05,0,.09,0,.12.01.16.02.53.16.67.48.11.3-.04.59-.1.74-.49,1-2.67,1.49-2.98,1.55.05-.14.11-.28.16-.42.01-.04.02-.06.04-.1.33-.68.69-1.24,1.06-1.64Zm-7.18-17.61c.84-.84,1.26-1.27,1.67-1.27s.84.42,1.7,1.27c1.93,1.93,3.87,3.85,5.79,5.79.26.27.46.59.8,1.05.21.56-1.25,1.66-2.18,1.97-.02.02-.06.02-.11.02-.11,0-.26-.05-.42-.12-.01,0-.01-.01-.01-.01-.28-.14-.59-.34-.79-.53-2.17-2.11-4.27-4.27-6.44-6.38-.22-.21-.37-.41-.44-.6-.15-.38,0-.75.43-1.18ZM8.01,7.14c-.11,0-.22-.01-.32-.04-.23-.02-.43-.1-.59-.17-.15-.16-.64-.71-.6-1.44.01-.2.07-.5.49-1.08.33-.46,1.39-1.95,2.55-1.95.07,0,.16,0,.23.01.32.06.57.23.64.3.27.22.52.54.63.89.05.14.06.27.06.41,0,.36-.18.5-1.1,1.55-1,1.12-1.13,1.34-1.55,1.47-.15.05-.3.06-.44.06Zm2.71,1.81c-.09-.09-.17-.17-.23-.23-.71-.74-.64-.83.21-1.69.73-.73,1.02-1.1,1.33-1.1.17,0,.36.14.63.39.18.17.42.42.71.71,5.02,5,10.06,10.01,15.07,15.02.25.25.47.53.74.85-.26.32-.46.62-.7.86-.83.81-1.15,1.21-1.44,1.21s-.59-.39-1.35-1.16c-5-4.95-9.97-9.91-14.96-14.88Zm14.95,21.22c2.88-2.86,5.75-5.74,8.61-8.63.2-.21.39-.34.58-.42.1-.04.21-.06.31-.06.28,0,.55.15.85.46,1.67,1.69,3.37,3.35,5.04,5.04.25.23.39.55.62.89-.05.09-.11.17-.15.25-.15.22-.26.43-.42.59-2.88,2.91-5.79,5.8-8.67,8.72-.18.18-.38.32-.57.39-.1.04-.18.05-.28.05-.26,0-.53-.15-.83-.43-1.69-1.7-3.4-3.4-5.11-5.09-.41-.39-.53-.75-.39-1.12.06-.2.21-.41.42-.63Zm-17.01-1.98s.04-.96.66-1.26c.14-.07.28-.1.44-.1.39,0,.84.2,1.21.55.39.41.68.78.87,1.03,0,0,.87,1.19,1.06,2.44.01.1.02.21,0,.32-.01.07-.04.16-.1.2-.02.02-.05.04-.07.04-.02.01-.05.01-.07.01-.12,0-.26-.06-.34-.1-1.69-.76-3.68-1.66-3.66-3.14Zm13.03,14.17h-.2c-1.95,0-2.89.17-4.36.2h-.33c-1.34,0-1.47-.17-3.61-.28-.71-.04-1.33-.05-1.9-.05-1.69,0-2.84.14-4.51.14-.71,0-1.51-.02-2.48-.1-.8-.05-1.45-.11-1.85-.16.37-.1.89-.28,1.45-.67.09-.06.14-.11.18-.14,1.08-.58,2.22-1.08,3.31-1.65.87-.44,1.01-1.01.44-1.82-.78-1.13-1.4-1.97-1.8-2.54-.27-.37-.64-.94-1.01-1.71.78.31,1.38.59,1.76.76,4.62,2.2,5.76,2.84,5.76,2.84.39.2.79.34,1.18.34.33,0,.67-.11.99-.38.68-.55.68-1.28.48-2.04-.05-.17-.05-.27-.12-.67-.2-1.08-.26-1.48-.26-1.64h0c0-.06.01-.09.02-.1h.04c.23,0,.9.9,1.15,1.23,2.01,2.67,4.51,4.95,6.75,7.44.43.48.78.86.96,1.06-.48-.02-1.19-.06-2.07-.07Zm6.8-.16c-.39,0-.8-.41-1.6-1.19-1.98-1.98-3.94-3.97-5.95-5.91-.66-.65-.65-1.15,0-1.79.85-.85,1.26-1.28,1.67-1.28.1,0,.2.02.3.07.33.15.71.53,1.33,1.15,1.96,1.95,3.92,3.89,5.86,5.85.18.18.34.41.53.65.06.07.12.15.18.23-.26.34-.44.68-.7.95-.81.85-1.22,1.27-1.63,1.27Zm15.44.07c-3.73-.05-7.03-.05-8.9-.05h-2.51c.04-.2.11-.43.25-.69.11-.18.22-.32.28-.39,2.97-3.3,6.18-5.5,6.18-5.5.21-.14.58-.39,1.33-.87.44-.28.68-.44.81-.49.04-.02.07-.04.1-.04.01,0,.02,0,.02.01.11.1-.52.68-1.05,1.63,0,0-.01.01-.01.02-.07.14-.15.27-.21.41-.28.6-.91,2.03-.37,3.08.3.55,1.08.86,2.68,1.45,1.28.48,2.01.83,2.24.91.71.25,1.35.43,1.86.57-.64,0-1.58-.02-2.71-.04Z" fill="#1d1d1b" stroke-width="0"/>
  <g>
    <path d="m41.67,27.44c-.05.09-.11.17-.15.25-.15.22-.26.43-.42.59-2.88,2.91-5.79,5.8-8.67,8.72-.18.18-.38.32-.57.39-.1.04-.18.05-.28.05-.26,0-.53-.15-.83-.43-1.69-1.7-3.4-3.4-5.11-5.09-.41-.39-.53-.75-.39-1.12.06-.2.21-.41.42-.63,2.88-2.86,5.75-5.74,8.61-8.63.2-.21.39-.34.58-.42.1-.04.21-.06.31-.06.28,0,.55.15.85.46,1.67,1.69,3.37,3.35,5.04,5.04.25.23.39.55.62.89Z" fill="#fff" stroke-width="0"/>
    <path d="m23.76,42.43c-.48-.02-1.19-.06-2.07-.07h-.2c-1.95,0-2.89.17-4.36.2h-.33c-1.34,0-1.47-.17-3.61-.28-.71-.04-1.33-.05-1.9-.05-1.69,0-2.84.14-4.51.14-.71,0-1.51-.02-2.48-.1-.8-.05-1.45-.11-1.85-.16.37-.1.89-.28,1.45-.67.09-.06.14-.11.18-.14,1.08-.58,2.22-1.08,3.31-1.65.87-.44,1.01-1.01.44-1.82-.78-1.13-1.4-1.97-1.8-2.54-.27-.37-.64-.94-1.01-1.71.78.31,1.38.59,1.76.76,4.62,2.2,5.76,2.84,5.76,2.84.39.2.79.34,1.18.34.33,0,.67-.11.99-.38.68-.55.68-1.28.48-2.04-.05-.17-.05-.27-.12-.67-.2-1.08-.26-1.48-.26-1.64h0c0-.06.01-.09.02-.1h.04c.23,0,.9.9,1.15,1.23,2.01,2.67,4.51,4.95,6.75,7.44.43.48.78.86.96,1.06Z" fill="#fff" stroke-width="0"/>
    <path d="m29.18,22.92c-.26.32-.46.62-.7.86-.83.81-1.15,1.21-1.44,1.21s-.59-.39-1.35-1.16c-5-4.95-9.97-9.91-14.96-14.88-.09-.09-.17-.17-.23-.23-.71-.74-.64-.83.21-1.69.73-.73,1.02-1.1,1.33-1.1.17,0,.36.14.63.39.18.17.42.42.71.71,5.02,5,10.06,10.01,15.07,15.02.25.25.47.53.74.85Z" fill="#fff" stroke-width="0"/>
    <path d="m30.82,39.98c-.26.34-.44.68-.7.95-.81.85-1.22,1.27-1.63,1.27s-.8-.41-1.6-1.19c-1.98-1.98-3.94-3.97-5.95-5.91-.66-.65-.65-1.15,0-1.79.85-.85,1.26-1.28,1.67-1.28.1,0,.2.02.3.07.33.15.71.53,1.33,1.15,1.96,1.95,3.92,3.89,5.86,5.85.18.18.34.41.53.65.06.07.12.15.18.23Z" fill="#fff" stroke-width="0"/>
    <path d="m46.55,24.58c-.14.34-1.39,1.29-2.18,1.81-.02.02-.06.02-.11.02-.11,0-.26-.05-.42-.12-.01,0-.01-.01-.01-.01-.28-.14-.59-.34-.79-.53-2.17-2.11-4.27-4.27-6.44-6.38-.22-.21-.37-.41-.44-.6-.15-.38,0-.75.43-1.18.84-.84,1.26-1.27,1.67-1.27s.84.42,1.7,1.27c1.93,1.93,3.87,3.85,5.79,5.79.26.27.94.87.8,1.21Z" fill="#fff" stroke-width="0"/>
    <path d="m46.64,42.31c-.64,0-1.58-.02-2.71-.04-3.73-.05-7.03-.05-8.9-.05h-2.51c.04-.2.11-.43.25-.69.11-.18.22-.32.28-.39,2.97-3.3,6.18-5.5,6.18-5.5.21-.14.58-.39,1.33-.87.44-.28.68-.44.81-.49.04-.02.07-.04.1-.04.01,0,.02,0,.02.01.11.1-.52.68-1.05,1.63,0,0-.01.01-.01.02-.07.14-.15.27-.21.41-.28.6-.91,2.03-.37,3.08.3.55,1.08.86,2.68,1.45,1.28.48,2.01.83,2.24.91.71.25,1.35.43,1.86.57Z" fill="#fff" stroke-width="0"/>
    <path d="m11.1,4.06c0,.36-.18.5-1.1,1.55-1,1.12-1.13,1.34-1.55,1.47-.15.05-.3.06-.44.06-.11,0-.22-.01-.32-.04-.23-.02-.43-.1-.59-.17-.15-.16-.64-.71-.6-1.44.01-.2.07-.5.49-1.08.33-.46,1.39-1.95,2.55-1.95.07,0,.16,0,.23.01.32.06.57.23.64.3.27.22.52.54.63.89.05.14.06.27.06.41Z" fill="#fff" stroke-width="0"/>
    <path d="m12.91,30.86c.01.1.02.21,0,.32-.01.07-.04.16-.1.2-.02.02-.05.04-.07.04-.02.01-.05.01-.07.01-.12,0-.26-.06-.34-.1-1.69-.76-3.68-1.66-3.66-3.14.01-.04.04-.96.66-1.26.14-.07.28-.1.44-.1.39,0,.84.2,1.21.55.39.41.68.78.87,1.03,0,0,.87,1.19,1.06,2.44Z" fill="#fff" stroke-width="0"/>
    <path d="m45.5,35.8c-.49,1-2.67,1.49-2.98,1.55.05-.14.11-.28.16-.42.01-.04.02-.06.04-.1.33-.68.69-1.24,1.06-1.64.36-.39.73-.63,1.03-.63.05,0,.09,0,.12.01.16.02.53.16.67.48.11.3-.04.59-.1.74Z" fill="#fff" stroke-width="0"/>
  </g>
</svg>
