<?xml version="1.0" encoding="UTF-8"?>
<svg id="icon" data-name="Capa 1" xmlns="http://www.w3.org/2000/svg" viewBox="0 0 37.14 38.3">
  <path d="m.67.68C1.1.24,1.72,0,2.43,0c.17,0,.33.02.48.05.73.11,1.17.57,1.36.77l.04.04,9.59,8.95.73.68c.14-.08.29-.18.4-.29t.02,0c1.13-1.01,2.24-1.44,2.83-1.66l.07-.04c.86-.32,1.84-.7,3.57-.71,1.25,0,2.58-.06,3.85-.31.61-.12,1.54-.23,2.48-.04,1.57.33,2.82,1.34,3.72,3.01.24.45.43.9.62,1.33,0,.04.02.07.04.09.31-.24.71-.37,1.13-.37,1.06,0,1.91.84,1.91,1.89v.12c0,.07,0,.11,0,.18-.05.41-.09.92-.23,1.43-.38,1.35-1.05,2.65-2.09,4.13-.64.89-2.58,2.95-3.89,4.25-.3.3-.33.77-.05,1.1.34.4.79.92,1.15,1.28.27.27.88.37,1,0l.28-.84c.19-.59.34-1.2.9-1.46.31-.15.98-.13,1.06-.13,1.37.02,2.07,1.01,2.07,2.25v3.07c.99.24,1.71,1.15,1.71,2.2v7.35s-7.12,0-7.12,0c-1.12,0-2.05-.79-2.24-1.86l-.07-.06h-2.97c-.94,0-1.76-.85-2.14-1.81-.24-.6-.1-1.29.37-1.74l1.5-.97c.71-.46.09-1.21-.1-1.41-.4-.42-.84-.9-1.33-1.55-.26-.34-.75-.4-1.06-.1-1.37,1.32-3.91,3.62-5.08,3.87-1.51.35-3.1.35-4.7,0-3.6-.76-5.84-3.64-5.84-7.53,0-.11,0-.25.03-.36.03-.12.05-.26.07-.42l.02-.1c.07-.38.28-1.49.44-2.23.23-1.02.94-2.54,2.15-4.56.41-.67.75-1.22,1.03-1.64.09-.14.18-.32.25-.5l-1.62-1.88L.74,4.21c-.2-.2-.64-.64-.72-1.38C-.08,1.96.15,1.21.67.68Z" fill="#1d1d1b" stroke-width="0"/>
  <path d="m27.46,9.3c1.01.21,1.8.88,2.43,2.04.19.37.35.76.52,1.16.11.27.22.52.33.78.12.25.29.58.52.88.22.28.48.42.74.43.41,0,.68-.31.77-.42.11-.13.22-.29.32-.44.06-.08.1-.15.16-.23.03-.04.06-.08.08-.1v.09c-.04.35-.08.75-.18,1.1-.31,1.14-.89,2.26-1.8,3.55-.96,1.35-2.04,2.75-3.4,3.89-.36.31-.68.46-1,.46.85-1.01,1.4-2.24,1.74-3.73.11-.51.17-.97.17-1.41,0-.68-.13-1.29-.41-1.86-.09-.19-.2-.42-.38-.61-.14-.15-.33-.21-.46-.25-.13-.05-.31-.06-.43,0-.12.06-.26.15-.29.29-.07.18-.11.31-.11.48v.03c0,.16.05.3.08.41l.04.11c.1.4.14.79.14,1.17,0,1.15-.44,2.18-1.34,3.13-.05.05-.11.1-.19.15.02-.05.05-.1.08-.13.53-.7.75-1.49.88-2.2.03-.13.04-.27.04-.4,0-.87-.49-1.69-1.31-2.02-.5-.2-.81-.08-.97.05-.13.1-.29.28-.33.61l-.1.63c-.04.15-.1.31-.16.46-.09.17-.17.38-.22.38,0,0-.02-.02-.02-.05,0-.1.07-.34.07-.67,0-.13-.02-.29-.05-.45-.1-.55-.33-.75-.39-.8-.14-.11-.31-.14-.45-.17-.23-.05-.46-.04-.73,0-.56.1-.97.31-1.02.34-.21.11-.44.25-.66.41-.78.53-1.6,1.28-2.24,1.85-.98.89-1.39,1.24-1.86,1.91-.03.04-.32.47-.51.99-.07.22-.12.46-.12.69,0,0,0,.03,0,.04,0,.29.08.54.08.54.05.2.11.42.3.65.07.09.28.33.66.45.31.09.56.05.69.02-.5.21-1.05.26-1.51,0-.29-.15-.7-.02-.88.2-.26.31-.39.73-.39,1.14,0,.31.08.61.23.86.4.64,1.15.94,1.88.76.34-.09.65-.23.95-.38.11-.05.16-.07.17-.07-.52.61-1.07.91-1.75.96-.64.06-1.16-.14-1.6-.59-.12-.13-.29-.18-.38-.21-.13-.06-.3-.06-.42,0-.12.07-.24.16-.28.3-.03.09-.07.19-.08.31v.02c0,.37.54,1.57,1.86,2.04.43.15.77.17,1.21.19.26,0,.99.03,1.89-.2,1.22-.31,2.11-.93,2.61-1.35l.49-.37c.18-.14.37-.29.56-.43l-.73.74c-.58.61-1.16,1.22-1.76,1.81-.75.76-1.7,1.33-2.75,1.56-1.25.29-2.56.29-3.89,0-2.71-.57-4.32-2.69-4.32-5.67h0c.03-.17.06-.35.1-.56,0,0,.21-1.14.43-2.15.32-1.47,2.25-4.62,3.2-5.97.27-.4.46-.65.5-.65,0,0,0,0,0,0,0,.04-.1.22-.41.77-.05.09-.1.18-.17.3-.03.04-.06.09-.09.13l-.06.09c-.53.84-1.09,1.72-1.35,2.75,0,.06-.02.11-.02.17,0,.18.07.33.11.45,0,.04.03.07.04.1.04.13.13.24.26.3s.27.06.39,0c.03,0,.07-.02.1-.04.16-.05.37-.11.52-.31.22-.29.42-.59.62-.91l.18-.27c.24-.36.49-.72.73-1.06,1.23-1.74,2.49-3.18,3.84-4.38.93-.82,1.9-1.54,2.92-2.16.12-.08.27-.15.37-.31.07-.11.12-.28.12-.45,0-.07,0-.13-.04-.2-.09-.31-.41-.44-.6-.46-.15-.02-.31,0-.51.06-2.25.65-3.17,1.63-3.17,1.63-.2.16-.43.36-.68.6-.2.19-.41.41-.63.66.11-.22.29-.49.5-.77.22-.29.5-.6.83-.91.85-.76,1.68-1.1,2.24-1.31.83-.32,1.55-.61,2.97-.62,1.35,0,2.78-.06,4.2-.34.44-.1,1.1-.17,1.72-.05Z" fill="#fff" stroke-width="0"/>
  <path d="m19.6,22.46c1.31,1.47,2.31,2.83,3.57,4.29.29.33.57.66.86.99.05.06,1.29,1.44,2.35,2.62.75.84.52,2.16-.47,2.7l-1.69.93c0,.28.22.51.51.51h3.03c.9.02,1.7.74,1.86,1.62.03.18.21.3.39.3h5.25s0-5.48,0-5.48c0-.18-.12-.35-.29-.38-.78-.16-1.42-.88-1.42-1.68v-3.21c0-.29-.23-.51-.51-.51l-.95,2.53c-.27.72-1.18.94-1.74.42-1.36-1.25-3.4-3.15-3.5-3.24-1.47-1.37-2.89-2.84-4.45-4.32-.21-.2-.64-.54-.9-.63-.41-.14-2.14-1.29-2.52.18h0c-.16.4,0,1.65.62,2.34Z" fill="#fff" stroke-width="0"/>
  <path d="m27.73,34.51h.04v-.02s0,.02-.04.02Zm5.83-5.62s-.02.02,0,.02c0,0,0,0,0-.02Zm-5.83,5.62h.04v-.02s0,.02-.04.02Zm5.83-5.62s-.02.02,0,.02c0,0,0,0,0-.02Z" fill="#1d1d1b" stroke-width="0"/>
  <path d="m1.88,2.61c.02.14.17.26.28.38,3.24,3.76,4.63,5.37,7.88,9.13.34.38,2.3,2.27,2.7,2.52.38.23,1.15.11,1.46-.12.57-.43-1.05-2.82-1.56-3.3C8.88,7.7,6.77,5.72,3.01,2.21c-.12-.12-.25-.3-.4-.32-.06,0-.11-.02-.18-.02-.16,0-.35.04-.43.13-.12.12-.14.41-.11.61Z" fill="#fff" stroke-width="0"/>
</svg>
