<?xml version="1.0" encoding="UTF-8"?>
<svg id="icon" data-name="Capa 1" xmlns="http://www.w3.org/2000/svg" viewBox="0 0 72.29 202.47">
  <g id="abdomen">
    <path d="m39.12,60.01c.94.54,1.86,1.11,2.85,1.53,1.64.71,2.25.24,2.22-1.67.07-.74-.18-1.55-.79-2.17-1.38-1.37-3.11-2.08-4.97-2.47-.67-.14-1.04.26-1.09.94-.11,1.61.29,2.98,1.78,3.84Z" fill="#1d1d1b" stroke-width="0"/>
    <path d="m30.2,61.59c1.08-.41,2.05-1.02,3.03-1.63,1.39-.86,1.75-2.17,1.7-3.67-.03-.83-.46-1.18-1.31-1.04-1.27.21-2.34.87-3.45,1.43-1.41.71-2.12,1.85-2.1,3.44-.01,1.66.57,2.07,2.13,1.47Z" fill="#1d1d1b" stroke-width="0"/>
    <path d="m29.91,69.19c1.07-.41,2.11-.91,3.2-1.27,1.43-.48,1.83-.96,1.8-2.61-.05-.69-.09-1.49-.18-2.29-.14-1.16-.63-1.51-1.77-1.3-2.84.52-5.07,3.22-5.06,6.11,0,1.44.63,1.88,2.01,1.36Z" fill="#1d1d1b" stroke-width="0"/>
    <path d="m39.18,61.71c-.85-.24-1.41.13-1.63,1.02-.17.68-.2,1.37-.18,2.07,0,.46-.03.91.01,1.36.08.75.42,1.36,1.18,1.57,1.36.37,2.62.95,3.91,1.49,1.21.52,1.89.04,1.89-1.3,0-3.4-2.1-5.35-5.18-6.21Z" fill="#1d1d1b" stroke-width="0"/>
    <path d="m39.75,69.46c-1.52-.19-2.09.15-2.43,1.47-.45,1.77-.04,2.9,1.3,3.39,1.15.42,2.31.8,3.48,1.16,1.48.45,2.09-.02,2.11-1.59.03-2.26-1.82-4.1-4.46-4.43Z" fill="#1d1d1b" stroke-width="0"/>
    <path d="m29.94,75.55c1.17-.34,2.33-.73,3.48-1.13,1.29-.44,1.71-1.07,1.71-2.41-.24-2.04-.81-3.11-3.04-2.45-.36.11-.75.16-1.11.29-1.93.72-3.32,2.87-2.94,4.55.25,1.1.81,1.47,1.9,1.15Z" fill="#1d1d1b" stroke-width="0"/>
    <path d="m39.05,76.16c-1.13.03-1.85.65-1.91,1.79-.06,1.01-.02,2.02-.02,3.03h-.05c.14,3.52.25,7.04.42,10.55.06,1.24.54,1.44,1.62.8,1.25-.73,2.1-1.79,2.67-3.12,1.11-2.63,1.62-5.41,1.95-8.22.34-2.87-1.71-4.92-4.68-4.83Z" fill="#1d1d1b" stroke-width="0"/>
    <path d="m35.18,78.65c0-.18-.01-.35-.02-.52-.09-1.37-.8-2-2.16-1.97-3.21.08-4.92,2.16-4.43,5.45.3,1.99.68,3.98,1.29,5.91.61,1.95,1.43,3.78,3.35,4.85,1.05.58,1.5.37,1.55-.79.16-3.4.3-6.81.45-10.22h-.03v-2.71Z" fill="#1d1d1b" stroke-width="0"/>
  </g>
</svg>
