<?xml version="1.0" encoding="UTF-8"?>
<svg id="Capa_1" data-name="Capa 1" xmlns="http://www.w3.org/2000/svg" viewBox="0 0 72.29 202.47">
  <g id="Brazo">
    <path d="m63.39,55.39c.79,2.11,1.14,4.29,1.19,6.54.09,3.35-.51,6.59-1.38,9.82,1.24-1.9,2.26-3.87,2.16-6.27-.08-2.16-.29-4.31-.53-6.45-.16-1.5-.56-2.94-1.09-4.35-.07-.21-.1-.59-.41-.5-.37.11-.18.45-.11.71.05.17.11.33.17.5Z" fill="#333" stroke-width="0"/>
    <path d="m61.13,72.64c.76.7.87.71,1.2-.32,1-3.13,1.69-6.33,1.72-9.64,0-2.35-.33-4.66-1.09-6.89-.2-.59-.4-1.24-1.06-1.48-2.58-.96-4.59-2.62-6.07-4.92-.21-.32-.41-.48-.71-.08-.85,1.18-1.82,2.31-1.42,3.96.16.67.2,1.38.28,2.07.42,3.56,1.62,6.9,2.8,10.26.94,2.69,2.23,5.1,4.35,7.04Z" fill="#333" stroke-width="0"/>
    <path d="m59.33,75.59c-.18-.16-.36-.4-.62-.32-.29.08-.21.39-.26.62-.63,3.31.46,6.29,1.71,9.26-.25-2.25-.44-4.53.16-6.71.37-1.34-.1-2.1-.99-2.85Z" fill="#333" stroke-width="0"/>
    <path d="m67.99,71.28c-.15-1.71-.98-3.23-1.99-4.99-.38,3.25-2.07,5.59-3.52,8.03-1.53,2.54-2.08,5.27-1.95,8.2.15,3.31.97,6.46,2.14,9.59.72-4.04,2.43-7.71,4.07-11.4,1.34-3.03,1.53-6.21,1.25-9.43Z" fill="#333" stroke-width="0"/>
  </g>
  <g id="Brazo-2" data-name="Brazo">
    <path d="m9.11,71.52c-1.64-5.53-2.19-11.07-.06-16.62.03-.1.06-.2.08-.3.03-.18.03-.37-.18-.43s-.3.13-.36.29c-.08.19-.12.39-.2.59-.97,2.65-1.09,5.45-1.39,8.22-.32,3.08.1,5.97,2.11,8.62,0-.23.01-.3,0-.37Z" fill="#333" stroke-width="0"/>
    <path d="m17.38,49.64c-.41-.74-.7-.65-1.13.02-1.22,1.94-2.91,3.42-5.03,4.25-1.23.49-1.77,1.28-2.11,2.45-1.59,5.49-.82,10.83.87,16.13.21.67.54.86,1.08.29,1.11-1.16,2.16-2.35,2.97-3.76.96-1.68,1.33-3.59,2.09-5.34,1.54-3.61,2.05-7.43,2.59-11.83.17-.67-.84-1.32-1.33-2.21Z" fill="#333" stroke-width="0"/>
    <path d="m13.31,75.3c-.66.21-1.62,1.54-1.49,2.2.5,2.52.62,5.04.28,7.61.82-1.91,1.6-3.85,1.84-5.93.13-1.14.12-2.3-.13-3.44-.06-.26-.04-.59-.5-.44Z" fill="#333" stroke-width="0"/>
    <path d="m6.91,68.98c-.25-.74-.44-1.5-.66-2.26-.44.13-.49.47-.63.74-1.9,3.49-1.87,7.2-.85,10.87,1.3,4.69,4.1,8.86,4.8,13.79,1.13-2.62,1.75-5.3,2.06-8.04.39-3.39.06-6.67-1.79-9.68-1.07-1.75-2.25-3.45-2.93-5.42Z" fill="#333" stroke-width="0"/>
  </g>
</svg>