<?xml version="1.0" encoding="UTF-8"?>
<svg id="icon" data-name="Capa 1" xmlns="http://www.w3.org/2000/svg" viewBox="0 0 72.29 202.47">
  <path d="m69.3,76.62c-.38-1.01-.62-1.99-.53-3.05.25-2.8-.65-5.3-2.12-7.61-.45-.71-.61-1.44-.65-2.26-.18-3.36-.53-6.68-1.75-9.85-.19-.49-.19-.94-.02-1.42.76-2.26.91-4.54.39-6.9-.41-1.85-.95-3.64-1.48-5.45-.46-1.55-1.52-2.47-2.89-3.26-1.79-1.05-3.64-2-5.29-3.28-1.1-.87-2.26-1.63-3.52-2.25-1.92-.92-3.79-1.95-5.73-2.8-1.94-.85-2.88-2.25-2.81-4.32.03-.99-.06-2.21.66-2.83,1.09-.93,1.76-2.08,2.32-3.29.55-1.22.35-2.53-.13-3.77-.11-.27-.32-.57-.6-.53-1.11.14-.91-.63-.96-1.27-.04-.62-.11-1.25-.17-1.87-.51-5.32-4.12-7.48-9.15-6.91-4.23.48-6.03,2.55-6.6,6.75-.11.83-.16,1.67-.2,2.5-.03.47-.06.82-.69.76-.58-.05-.84.38-1.01.88-.73,2.21.28,5.24,2.23,6.59.29.2.43.41.47.75.07.55.18,1.1.27,1.65.31,1.98-.42,3.57-2.18,4.55-1.32.72-2.67,1.37-4.02,2.02-1.89.9-3.87,1.69-5.44,3.1-1.52,1.36-3.35,2.25-5.07,3.23-1.94,1.1-3.22,2.36-3.82,4.51-1.08,3.86-2.25,7.67-.73,11.67.19.49.01.96-.15,1.43-.88,2.56-1.35,5.18-1.54,7.88-.09,1.35.08,2.76-.78,4.04-1.53,2.24-2.32,4.74-2.13,7.51.04.72.16,1.49-.15,2.17-1.22,2.64-1.2,5.41-.91,8.22.36,3.57.98,7.12.9,10.72-.11,5.03.19,10.04.43,15.06.16,3.3,1.1,6.37,2.34,9.39.14.34.28.89.77.59.72-.46,1.6-.93,1.98-1.62.97-1.73,1.73-3.58.15-5.43-.2-.24-.29-.57-.49-.81-1.44-1.71-1.25-3.48-.21-5.28.23-.4.29-1.13.84-1.05.52.07.46.79.54,1.25.18.96.24,1.95.92,2.74.37.44.78.86,1.4.75.69-.12.77-.73.86-1.29.28-1.73.23-3.47.06-5.21-.14-1.53-.55-2.93-1.54-4.15-1.07-1.31-1.42-2.83-1.29-4.51.06-.84.13-1.67.33-2.48.63-2.51,1.62-4.9,2.54-7.31,1.25-3.3,2.3-6.6,1.49-10.19-.07-.33-.05-.63.14-.9.9-1.24.95-2.71.91-4.12-.11-4.36,2.29-7.75,4.21-11.68.36,2.68,1.41,4.82,2.19,7.05.28.84.45,1.69.46,2.57.02,2.23.02,4.46-.02,6.7-.02,1.5-.18,2.93-1.12,4.25-1.21,1.71-1.19,3.68-.61,5.63.22.74.17,1.41-.04,2.14-.54,1.91-1.03,3.84-1.16,5.84-.18,2.99-.34,5.96-1.17,8.89-1.97,6.92-2.95,13.97-2.38,21.2.36,4.66.75,9.31,1.35,13.95.47,3.57.75,7.13-.91,10.53-.33.68-.52,1.44-.72,2.18-.51,1.89-1.08,3.78-.87,5.77.25,2.39.55,4.78.88,7.16.52,3.83.99,7.68,1.56,11.5.49,3.31-1.41,6.04-1.73,9.12,0,.03-.03.07-.05.09-2.23,3.14-3.88,6.61-5.74,9.96-.44.79-.44,1.43.21,2.17.56.64,1.18,1.24,1.82,1.68.91.63,1.71,1.91,3.18,1.18.2-.1.4.02.56.18,1.24,1.17,3.12.8,4.22-.61.64-.82,1.27-1.65,1.94-2.45.72-.87,1.13-1.85,1.14-2.97.01-.7.27-1.24.74-1.77,1.52-1.68,2.63-3.52,1.42-5.85-.56-1.06-.79-2.04-.07-3.12.25-.38.22-.87.11-1.32-.01-.04-.01-.07-.03-.11-1.01-2.34-.61-4.71-.12-7.08.81-3.86,1.59-7.71,3.39-11.28,1.4-2.78,2.53-5.69,2.24-8.93-.21-2.32-.5-4.64-.97-6.93-.14-.65-.15-1.22.21-1.8,1.92-3.13,2.42-6.64,2.69-10.22.43-5.66.8-11.34,2.12-16.9.57-2.44,1.12-4.89,1.67-7.33,2.25,7.9,3.39,15.97,3.9,24.13.17,2.68.19,5.46,1.52,7.86,1.3,2.34,1.46,4.6.88,7.18-.95,4.26-.66,8.48,1.48,12.4,1.87,3.43,2.68,7.17,3.48,10.92.57,2.67,1.17,5.34.08,8.02-.22.55-.14,1.13.17,1.62.53.82.48,1.57,0,2.43-1.09,2.03-.89,3.96.71,5.69.26.28.47.6.74.88.36.37.55.79.51,1.32-.08,1.22.4,2.26,1.15,3.17.66.81,1.32,1.61,1.96,2.44.89,1.18,2.19,1.66,3.3,1.13.85-.4,1.61-.83,2.59-.53.24.07.53-.13.74-.33.69-.66,1.57-1.09,2.24-1.79,1.43-1.48,2.04-1.74.68-3.66-.16-.23-.29-.48-.4-.73-1.07-2.52-2.42-4.88-3.95-7.13-.75-1.11-1.51-2.18-1.36-3.62.03-.29-.1-.64-.26-.89-1.33-2.08-1.33-4.4-1.05-6.7.57-4.74,1.3-9.46,1.9-14.2.28-2.2.73-4.4.32-6.66-.4-2.17-.94-4.31-1.85-6.31-.96-2.14-1.02-4.36-.81-6.55.44-4.75,1.06-9.49,1.48-14.25.64-7.33.23-14.55-1.63-21.69-.67-2.55-1.63-5.08-1.58-7.77.05-3.07-.46-6.04-1.3-8.97-.22-.8-.29-1.55-.05-2.35.69-2.3.32-4.42-1.08-6.36-.4-.56-.55-1.17-.58-1.86-.15-2.89-.15-5.78-.1-8.68.01-.58.12-1.18.3-1.74.76-2.41,2.01-4.66,2.31-7.54.81,1.59,1.41,2.92,2.13,4.17,1.39,2.38,2.06,4.93,2.08,7.68.01,1.36.08,2.72.89,3.91.26.38.22.8.14,1.22-.55,3.05.04,5.94,1.12,8.8.98,2.58,2.09,5.11,2.78,7.79.67,2.63,1.1,5.29-.76,7.71-2.31,3.01-1.82,6.44-1.37,9.84.11.86.89,1.04,1.6.51.74-.54,1.11-1.32,1.29-2.21.12-.61.2-1.24.32-1.85.04-.21.13-.43.36-.47.24-.03.39.16.48.35.92,1.84,1.99,3.67.36,5.7-.48.59-.79,1.32-1.18,1.98-.42.69-.44,1.41-.32,2.21.27,1.76,1.41,2.87,2.7,3.89.4.32.73.22.9-.25.76-1.98,1.77-3.91,2.03-6.03.67-5.48.97-10.98.85-16.5-.08-3.81.28-7.59.76-11.36.37-2.96.67-5.93-.4-8.8Z" fill="#333" stroke-width="0"/>
</svg>
