<?xml version="1.0" encoding="UTF-8"?>
<svg id="icon" data-name="Capa 1" xmlns="http://www.w3.org/2000/svg" viewBox="0 0 72.29 202.47">
  <rect width="72.29" height="202.47" fill="none" stroke-width="0"/>
  <g>
    <path d="m69.3,76.62c-.38-1.01-.62-1.99-.53-3.05.25-2.8-.65-5.3-2.12-7.61-.45-.71-.61-1.44-.65-2.26-.18-3.36-.53-6.68-1.75-9.85-.19-.49-.19-.94-.02-1.42.76-2.26.91-4.54.39-6.9-.41-1.85-.95-3.64-1.48-5.45-.46-1.55-1.52-2.47-2.89-3.26-1.79-1.05-3.64-2-5.29-3.28-1.1-.87-2.26-1.63-3.52-2.25-1.92-.92-3.79-1.95-5.73-2.8-1.94-.85-2.88-2.25-2.81-4.32.03-.99-.06-2.21.66-2.83,1.09-.93,1.76-2.08,2.32-3.29.55-1.22.35-2.53-.13-3.77-.11-.27-.32-.57-.6-.53-1.11.14-.91-.63-.96-1.27-.04-.62-.11-1.25-.17-1.87-.51-5.32-4.12-7.48-9.15-6.91-4.23.48-6.03,2.55-6.6,6.75-.11.83-.16,1.67-.2,2.5-.03.47-.06.82-.69.76-.58-.05-.84.38-1.01.88-.73,2.21.28,5.24,2.23,6.59.29.2.43.41.47.75.07.55.18,1.1.27,1.65.31,1.98-.42,3.57-2.18,4.55-1.32.72-2.67,1.37-4.02,2.02-1.89.9-3.87,1.69-5.44,3.1-1.52,1.36-3.35,2.25-5.07,3.23-1.94,1.1-3.22,2.36-3.82,4.51-1.08,3.86-2.25,7.67-.73,11.67.19.49.01.96-.15,1.43-.88,2.56-1.35,5.18-1.54,7.88-.09,1.35.08,2.76-.78,4.04-1.53,2.24-2.32,4.74-2.13,7.51.04.72.16,1.49-.15,2.17-1.22,2.64-1.2,5.41-.91,8.22.36,3.57.98,7.12.9,10.72-.11,5.03.19,10.04.43,15.06.16,3.3,1.1,6.37,2.34,9.39.14.34.28.89.77.59.72-.46,1.6-.93,1.98-1.62.97-1.73,1.73-3.58.15-5.43-.2-.24-.29-.57-.49-.81-1.44-1.71-1.25-3.48-.21-5.28.23-.4.29-1.13.84-1.05.52.07.46.79.54,1.25.18.96.24,1.95.92,2.74.37.44.78.86,1.4.75.69-.12.77-.73.86-1.29.28-1.73.23-3.47.06-5.21-.14-1.53-.55-2.93-1.54-4.15-1.07-1.31-1.42-2.83-1.29-4.51.06-.84.13-1.67.33-2.48.63-2.51,1.62-4.9,2.54-7.31,1.25-3.3,2.3-6.6,1.49-10.19-.07-.33-.05-.63.14-.9.9-1.24.95-2.71.91-4.12-.11-4.36,2.29-7.75,4.21-11.68.36,2.68,1.41,4.82,2.19,7.05.28.84.45,1.69.46,2.57.02,2.23.02,4.46-.02,6.7-.02,1.5-.18,2.93-1.12,4.25-1.21,1.71-1.19,3.68-.61,5.63.22.74.17,1.41-.04,2.14-.54,1.91-1.03,3.84-1.16,5.84-.18,2.99-.34,5.96-1.17,8.89-1.97,6.92-2.95,13.97-2.38,21.2.36,4.66.75,9.31,1.35,13.95.47,3.57.75,7.13-.91,10.53-.33.68-.52,1.44-.72,2.18-.51,1.89-1.08,3.78-.87,5.77.25,2.39.55,4.78.88,7.16.52,3.83.99,7.68,1.56,11.5.49,3.31-1.41,6.04-1.73,9.12,0,.03-.03.07-.05.09-2.23,3.14-3.88,6.61-5.74,9.96-.44.79-.44,1.43.21,2.17.56.64,1.18,1.24,1.82,1.68.91.63,1.71,1.91,3.18,1.18.2-.1.4.02.56.18,1.24,1.17,3.12.8,4.22-.61.64-.82,1.27-1.65,1.94-2.45.72-.87,1.13-1.85,1.14-2.97.01-.7.27-1.24.74-1.77,1.52-1.68,2.63-3.52,1.42-5.85-.56-1.06-.79-2.04-.07-3.12.25-.38.22-.87.11-1.32-.01-.04-.01-.07-.03-.11-1.01-2.34-.61-4.71-.12-7.08.81-3.86,1.59-7.71,3.39-11.28,1.4-2.78,2.53-5.69,2.24-8.93-.21-2.32-.5-4.64-.97-6.93-.14-.65-.15-1.22.21-1.8,1.92-3.13,2.42-6.64,2.69-10.22.43-5.66.8-11.34,2.12-16.9.57-2.44,1.12-4.89,1.67-7.33,2.25,7.9,3.39,15.97,3.9,24.13.17,2.68.19,5.46,1.52,7.86,1.3,2.34,1.46,4.6.88,7.18-.95,4.26-.66,8.48,1.48,12.4,1.87,3.43,2.68,7.17,3.48,10.92.57,2.67,1.17,5.34.08,8.02-.22.55-.14,1.13.17,1.62.53.82.48,1.57,0,2.43-1.09,2.03-.89,3.96.71,5.69.26.28.47.6.74.88.36.37.55.79.51,1.32-.08,1.22.4,2.26,1.15,3.17.66.81,1.32,1.61,1.96,2.44.89,1.18,2.19,1.66,3.3,1.13.85-.4,1.61-.83,2.59-.53.24.07.53-.13.74-.33.69-.66,1.57-1.09,2.24-1.79,1.43-1.48,2.04-1.74.68-3.66-.16-.23-.29-.48-.4-.73-1.07-2.52-2.42-4.88-3.95-7.13-.75-1.11-1.51-2.18-1.36-3.62.03-.29-.1-.64-.26-.89-1.33-2.08-1.33-4.4-1.05-6.7.57-4.74,1.3-9.46,1.9-14.2.28-2.2.73-4.4.32-6.66-.4-2.17-.94-4.31-1.85-6.31-.96-2.14-1.02-4.36-.81-6.55.44-4.75,1.06-9.49,1.48-14.25.64-7.33.23-14.55-1.63-21.69-.67-2.55-1.63-5.08-1.58-7.77.05-3.07-.46-6.04-1.3-8.97-.22-.8-.29-1.55-.05-2.35.69-2.3.32-4.42-1.08-6.36-.4-.56-.55-1.17-.58-1.86-.15-2.89-.15-5.78-.1-8.68.01-.58.12-1.18.3-1.74.76-2.41,2.01-4.66,2.31-7.54.81,1.59,1.41,2.92,2.13,4.17,1.39,2.38,2.06,4.93,2.08,7.68.01,1.36.08,2.72.89,3.91.26.38.22.8.14,1.22-.55,3.05.04,5.94,1.12,8.8.98,2.58,2.09,5.11,2.78,7.79.67,2.63,1.1,5.29-.76,7.71-2.31,3.01-1.82,6.44-1.37,9.84.11.86.89,1.04,1.6.51.74-.54,1.11-1.32,1.29-2.21.12-.61.2-1.24.32-1.85.04-.21.13-.43.36-.47.24-.03.39.16.48.35.92,1.84,1.99,3.67.36,5.7-.48.59-.79,1.32-1.18,1.98-.42.69-.44,1.41-.32,2.21.27,1.76,1.41,2.87,2.7,3.89.4.32.73.22.9-.25.76-1.98,1.77-3.91,2.03-6.03.67-5.48.97-10.98.85-16.5-.08-3.81.28-7.59.76-11.36.37-2.96.67-5.93-.4-8.8Zm-4.47-17.59c.24,2.14.45,4.29.53,6.45.1,2.4-.92,4.37-2.16,6.27.87-3.23,1.47-6.47,1.38-9.82-.05-2.25-.4-4.43-1.19-6.54-.06-.17-.12-.33-.17-.5-.07-.26-.26-.6.11-.71.31-.09.34.29.41.5.53,1.41.93,2.85,1.09,4.35Zm-5.58-21.82c.96.48,2.16.79,2.58,1.84,1.73,4.22,3.27,8.49,1.73,13.15-.5,1.49-1.22,1.82-2.6,1.1-2.68-1.38-4.66-3.37-5.52-6.34-.45-1.53-1.26-2.87-2.39-4-.7-.7-1.3-1.46-1.64-2.4-.63-1.67,0-2.63,1.8-2.74.31-.02.62-.01,1.01-.01.76.05,1.59.13,2.43.13.41,0,.81-.16,1.23-.22.5-.06.73-.84,1.37-.51Zm-3.91-1.74c.91-.19,1.65.07,2.34.58.23.17.61.34.5.71-.1.32-.44.44-.74.53-.53.17-1.07.22-1.64.16-.94-.09-1.88-.16-2.82-.13-1.97.05-2.81,1.21-2.31,3.12.03.13.06.26.14.65-2.07-1.16-4.02-1.94-6.14-2.3-2.08-.35-4.13-.4-6.15.52.24-1.66.27-1.67,1.69-1.22,1.54.5,3.11.37,4.64-.01.98-.24,1.95-.55,2.88-.92.92-.37,1.85-.54,2.83-.6,1.64-.11,3.18-.74,4.78-1.09Zm-18.13,3.77c.13.71.02,1.35-.42,1.98-.46.63-.58,1.4-.65,2.18-.13-.94-.35-1.84-.92-2.63-.34-.46-.23-1.01-.15-1.52.41-2.52,0-4.91-1.05-7.23-.82-1.83-1.51-3.72-2.15-5.89,1.45.98,2.59,2.04,4.25,2.06,1.68.01,2.79-1.09,4.28-2.07-.57,2.09-1.26,3.87-2.03,5.6-1.09,2.41-1.61,4.88-1.16,7.52Zm-5.4-5.35c.39,1.01.74,1.83,1.04,2.67.2.57-.32.73-.67.87-1.43.57-2.9.4-4.39.07,1.71-.71,3.04-1.81,4.02-3.61Zm-7.44,2.5c3.3-1.28,3.55-4.92,5.82-7.39.15,1.48.74,2.51,1.11,3.62.09.27.11.55.02.82-.74,2.28-4.52,4.74-6.95,2.95Zm5.74-10.79c-.02-.26-.22-.62.09-.75.35-.15.54.24.72.47.15.18.22.43.3.66.74,2.28,1.58,4.53,2.53,6.74.84,1.95,1.16,3.99.66,6.12-1.57-4.38-3.99-8.47-4.3-13.24Zm8.68,6.43c.81-1.86,1.53-3.74,2.12-5.68.07-.24.15-.47.26-.69.18-.38.44-.92.83-.82.49.13.12.66.1,1.01-.2,3.7-1.83,6.98-3.12,10.36-.36.94-.74,1.87-1.16,2.93-.57-2.62.01-4.89.97-7.11Zm4.03,3.81c-.46-.37-.87-.81-1.25-1.26-.64-.78-.87-1.6-.38-2.6.42-.83.66-1.75,1.01-2.73.57.42.88.99,1.19,1.55.54.97,1.07,1.96,1.58,2.95.61,1.19,1.61,1.96,2.75,2.63-1.35.99-3.28.77-4.9-.54Zm1.63,1.64c-1.56.36-3.1.53-4.61-.14-.41-.18-.57-.47-.39-.92.32-.76.62-1.53,1.01-2.52,1,1.81,2.32,2.87,3.99,3.58Zm.51-8.6c2.73,1.54,5.7,2.61,8.32,4.34.64.42,1.7.92,1.62,1.45-.1.68-1.26.58-1.97.77-1.27.36-2.56.65-3.9.51-1.3-.13-2.28-.76-3.01-1.84-1.23-1.81-1.96-3.92-3.46-5.57-.39-.42-.18-.99.08-1.61.6,1.01,1.47,1.47,2.32,1.95Zm-16.99-9.47c-.85-1.26-1.41-2.55-1.02-4.11.19-.79.46-.96,1.07-.35.18.18.33.56.65.4.34-.17.19-.55.17-.85-.08-2,.04-3.97.58-5.9.47-1.71,1.55-2.84,3.16-3.52,2.73-1.15,5.38-.97,7.95.43,1.94,1.06,2.42,2.98,2.73,4.93.21,1.41.34,2.84.2,4.28-.03.23-.17.52.11.66.3.15.42-.16.59-.32.22-.21.42-.56.75-.48.4.09.38.54.45.86.42,1.84-.51,3.23-1.53,4.59-.48.65-.8-.12-1.36-.28v2.03c-.01.99-.36,1.79-1.13,2.48-1.07.95-2.14,1.9-3.37,2.64-1.17.7-2.38.72-3.57.04-1.4-.8-2.6-1.88-3.78-2.97-.56-.51-.82-1.19-.82-1.97.01-.72,0-1.44,0-2.24-1.14.71-1.12.69-1.83-.35Zm-10.33,14.82c1.31-1.11,2.8-1.93,4.33-2.69,1.87-.93,3.73-1.87,5.6-2.79.82-.41,1.54-.93,2.06-1.77.39.79.32,1.38-.22,1.99-1.3,1.47-2.02,3.32-3.06,4.96-1.04,1.64-2.52,2.2-4.36,2.02-1.43-.13-2.81-.5-4.17-.91-.22-.06-.56-.03-.55-.35,0-.16.22-.33.37-.46Zm-2.66,1.54c.63-.34,1.29-.51,2.01-.28,3.18,1,6.55,1.14,9.7,2.35,1.93.75,3.97.79,6.02.03,1.06-.39.78.81,1.04,1.38-2.09-.91-4.19-.81-6.31-.43-2.06.37-3.99,1.12-5.77,2.17-.1-.14-.14-.18-.14-.2.42-2.8-.26-3.53-3.15-3.5-1.08.01-2.14.37-3.22.09-.44-.11-1.01-.17-1.06-.69-.05-.5.5-.71.88-.92Zm-6.98,12.59c.27-3.06,1.03-5.99,2.16-8.82.53-1.31,1.73-1.85,2.94-2.34.27-.12.46.03.67.17.86.54,1.8.64,2.81.55.86-.09,1.74-.14,2.61-.08,1.63.1,2.26,1.13,1.69,2.68-.31.86-.82,1.61-1.47,2.25-1.35,1.33-2.12,2.96-2.74,4.74-1.03,2.91-3.16,4.88-6,6.05-.8.32-1.47,0-1.76-.83-.52-1.41-.83-2.88-.91-4.37Zm-1,14.91c.3-2.77.42-5.57,1.39-8.22.08-.2.12-.4.2-.59.06-.16.15-.35.36-.29s.21.25.18.43c-.02.1-.05.2-.08.3-2.13,5.55-1.58,11.09.06,16.62.01.07,0,.14,0,.37-2.01-2.65-2.43-5.54-2.11-8.62Zm-3.37,13.87s.15.02.16.05c.82,3.4,2.53,6.47,3.7,9.75,1.13,3.15,1.89,6.38,1.78,9.77-5.03-5.72-7.63-13.61-5.64-19.57Zm7.35,23.14c.66.99,1.06,2,1.17,3.18.18,1.74.26,3.47-.01,5.21-.04.27.01.63-.3.73-.38.12-.52-.25-.73-.47-.6-.68-.55-1.55-.71-2.37-.16-.8-.15-1.88-1.14-2.02-1.02-.14-1.27.89-1.62,1.64-1.39,3-1.44,6.09-.73,9.26.23,1.02.6,2.08.09,3.12-.41,0-.42-.3-.51-.5-1.24-2.77-1.86-5.67-2.02-8.7-.28-5.15-.53-10.3-.44-15.46.03-1.52-.14-3.05-.22-4.58,1.77,4.1,4.75,7.35,7.17,10.96Zm.65-16.2c-.31,2.74-.93,5.42-2.06,8.04-.7-4.93-3.5-9.1-4.8-13.79-1.02-3.67-1.05-7.38.85-10.87.14-.27.19-.61.63-.74.22.76.41,1.52.66,2.26.68,1.97,1.86,3.67,2.93,5.42,1.85,3.01,2.18,6.29,1.79,9.68Zm2.31-4.9c-.24,2.08-1.02,4.02-1.84,5.93.34-2.57.22-5.09-.28-7.61-.13-.66.83-1.99,1.49-2.2.46-.15.44.18.5.44.25,1.14.26,2.3.13,3.44Zm-2.14-3.3c-.11.08-.25.18-.36.16-.41-.07-1.03-1.96-.72-2.24,1.5-1.34,2.78-2.87,3.95-4.6.5,2.94-.57,5.08-2.87,6.68Zm6.91-24.03c-.54,4.4-1.05,8.22-2.59,11.83-.76,1.75-1.13,3.66-2.09,5.34-.81,1.41-1.86,2.6-2.97,3.76-.54.57-.87.38-1.08-.29-1.69-5.3-2.46-10.64-.87-16.13.34-1.17.88-1.96,2.11-2.45,2.12-.83,3.81-2.31,5.03-4.25.43-.67.72-.76,1.13-.02.49.89,1.5,1.54,1.33,2.21Zm-1.23-3.06c-.3-.48-.27-.98-.14-1.51.49-2.03,1.75-3.57,3.33-4.81,2.77-2.17,6.04-3.07,9.01-3.37,4.19,0,6.3,2.42,5.8,6.06-.19,1.38-.33,2.76-.51,4.14-.47,3.77-2.92,5.58-6.35,6.42-2.85.7-5.29-.02-7.38-2.07-1.48-1.45-2.65-3.13-3.76-4.86Zm3.03,9.21c-.44-1.58-.49-3.2-.69-4.8.08-.07.16-.13.24-.2.44.49.87,1,1.33,1.48.27.28.21.57.06.86-.43.83-.63,1.74-.94,2.66Zm1.66-.78c-.23.02-.57.05-.62-.24-.1-.54.22-.99.46-1.45.16-.31.41-.18.62-.03.64.49,1.38.76,2.3,1.01-.98.48-1.87.62-2.76.71Zm4.84,6.06c-.2-.8-.09-1.51.29-2.28.27.61.15,1.35.8,1.72.65.37,1.18-.13,1.83-.23-1.64,1.25-2.41,2.93-2.63,4.91-.07.64.02,1.25.2,1.86.22.75.76,1.02,1.64.93-.71.87-1.37,1.65-1.61,2.7-.58,2.52.62,3.74,3.07,3.08.14-.03.28-.06.41-.09-2.95,1.37-3.79,3.67-2.94,6.71-.56-1.34-1.01-2.75-2.53-3.89,1.57.13,1.47-.78,1.54-1.62.29-3.2-.17-6.37-.36-9.56-.04-.61.14-1.17.24-1.75.15-.83.26-1.68.05-2.49Zm2.9,5.91c-1.38.52-2.01.08-2.01-1.36-.01-2.89,2.22-5.59,5.06-6.11,1.14-.21,1.63.14,1.77,1.3.09.8.13,1.6.18,2.29.03,1.65-.37,2.13-1.8,2.61-1.09.36-2.13.86-3.2,1.27Zm2.18.37c2.23-.66,2.8.41,3.04,2.45,0,1.34-.42,1.97-1.71,2.41-1.15.4-2.31.79-3.48,1.13-1.09.32-1.65-.05-1.9-1.15-.38-1.68,1.01-3.83,2.94-4.55.36-.13.75-.18,1.11-.29Zm-1.89-7.97c-1.56.6-2.14.19-2.13-1.47-.02-1.59.69-2.73,2.1-3.44,1.11-.56,2.18-1.22,3.45-1.43.85-.14,1.28.21,1.31,1.04.05,1.5-.31,2.81-1.7,3.67-.98.61-1.95,1.22-3.03,1.63Zm5.01,19.77c-.15,3.41-.29,6.82-.45,10.22-.05,1.16-.5,1.37-1.55.79-1.92-1.07-2.74-2.9-3.35-4.85-.61-1.93-.99-3.92-1.29-5.91-.49-3.29,1.22-5.37,4.43-5.45,1.36-.03,2.07.6,2.16,1.97,0,.17.02.34.02.52v2.71h.03Zm-12.14-10.1c.07,0,.13.01.2.01.49.83.97,1.68,1.48,2.5.21.31.45.71.76.82,1.26.46,1.08,1.47,1.02,2.43-.06.87-.41,1.04-1.14.56-1.48-.99-2.61-2.17-2.34-4.17.1-.7.02-1.43.02-2.15Zm2.93-5.11c-.65.18-.93-.87-1.29-1.43-.6-.93-1.04-1.95-1.25-3.06-.11-.58-.01-.78.61-.62,1.11.29,2.52,2.05,2.48,3.27-.21.55.14,1.65-.55,1.84Zm.27,3.49c-.09.75-.62.47-.98.15-1.1-.98-1.51-2.3-1.73-3.69-.11-.67-.08-1.37-.12-2.06.87,1.05,1.59,2.1,2.4,3.1.55.69.53,1.65.43,2.5Zm-.35,1.26c.46.26.94,2.38.69,2.84-.35.63-.77.33-1.08-.04-1.55-1.83-2.43-3.93-2.37-6.36.56,1.49,1.32,2.77,2.76,3.56Zm.69-9.85c-.15.58-.39.73-.92.29-1.02-.85-1.87-1.84-2.61-2.93-.32-.46-.2-.64.3-.8,1.68-.54,3.42.79,3.38,2.79-.02.11-.08.38-.15.65Zm-4.16,17.25c.17-.3.42-.33.71-.18,1.79.91,3.48,1.93,4.19,3.98.58,1.67-.41,4.27-1.95,5.11-.34.19-.66.16-1,.03-2.1-.85-3.38-2.72-3.43-5.13-.1-1.41.73-2.6,1.48-3.81Zm2.9,10.92c-.49-.29-.78-1-1.5-.8-.65.18-.87.75-1.13,1.48-.34-1.1-.61-2-1.17-2.77-.2-.28-.29-.6-.05-.86.31-.34.58-.04.79.16,1,.95,2.37,1.48,3.06,2.79Zm-4.22-1.48c2.03,2.66.71,11.53-2.06,13.68,1.5-4.4.34-9.18,2.06-13.68Zm-2.86,16.67c.15-1.07.46-1.98,1.45-2.64,1-.66,1.41-1.79,1.79-2.88.69-1.93.73-3.98,1.25-5.96.58,6.75,3,12.95,5.8,19.02.34.73.35,1.37.09,2.1-.86,2.45-2.1,4.72-3.21,7.04-1.05,2.18-1.94,4.41-2.33,6.81-.05.34,0,.88-.54.87s-.48-.51-.52-.87c-.36-2.94-1.37-5.7-2.37-8.45-1.79-4.89-2.11-9.92-1.41-15.04Zm-1.75,16.28c-.16-3.92.08-7.78.8-11.61-.03,5.2,1.3,10.08,3.18,14.85.8,2.03,1.23,4.14,1.02,6.34-.16,1.67-.64,3.22-2.11,4.25-1.11.76-1.68.57-1.82-.72-.49-4.36-.9-8.72-1.07-13.11Zm-.9,36.35c-.67-4.21.72-7.95,2.2-11.92.9,1.95,1.75,3.6,1.7,5.69-.14,6.52-.05,13.04-.1,19.56,0,1.89-.47,3.72-1.42,5.42-.13-1.63-.28-3.26-.51-4.87-.64-4.63-1.14-9.27-1.87-13.88Zm8.75,13.95c-.4,1.94-.79,3.88-1.09,5.86-1.36-3.23-.65-6.67-.97-10,.44,1.16.97,2.21,1.8,3.09.3.31.35.65.26,1.05Zm.45-1.89c-.14.51-.41.34-.65.05-.63-.73-.98-1.6-1.23-2.51-.32-1.21-.35-2.45-.33-3.69.59,1.13,1.3,2.1,2.36,2.78.27.17.55.36.47.73-.19.89-.38,1.77-.62,2.64Zm4.7-13.77c-.35,2.63-1.62,4.94-2.68,7.32-.28.64-.59,1.27-.84,1.91-.34.87-.6.96-1.3.29-1.54-1.51-2.15-3.37-2-5.95.12-1.04.09-2.54.39-4.02.4-1.99,1.36-3.7,2.59-5.29.81-1.05,1.62-2.09,2.44-3.13.12-.16.2-.41.46-.36.18.04.22.24.25.42.39,2.92,1.09,5.83.69,8.81Zm1.43-16.61c-.21.96-.53,1.88-.94,2.77-1.06,2.32-2.28,4.53-4.07,6.41-2.76,2.9-3.76,6.49-3.97,10.42-.26,4.49-.5,8.98-.37,13.48.04,1.18.11,2.37.34,3.53.22,1.12.65,2.11,1.39,3,.85,1.03,1.23,2.18.45,3.46-.43.73-.35,1.41.05,2.17,1.18,2.27,1.18,3.77-.6,5.28-1.01.85-.98,1.68-1.1,2.67-.09.84-.37,1.62-.89,2.31-.71.95-1.59,1.75-2.2,2.78-.24.42-.67.7-1.13.9-.67.31-1.31.27-1.85-.23-.51-.46-.32-1.03-.08-1.55.47-.98.97-1.96,1.46-2.93-.98.59-1.59,1.45-2.03,2.43-.17.38-.28.79-.5,1.15-.29.48-.75.81-1.31.48-.53-.3-.31-.78-.08-1.19.42-.76.87-1.51,1.27-2.28.17-.32.48-.62.28-1.16-1.02.84-1.6,1.92-2.2,3-.14.26-.18.84-.64.63-.43-.21-.21-.69-.03-1.02.39-.7.83-1.37,1.21-2.08.17-.31.48-.61.26-1.22-1.09.98-1.62,2.27-2.67,3.52-.07-1.79,1.41-2.55,1.84-3.98-1.41.53-1.82,1.87-2.69,2.71-.19-.19-.15-.32-.08-.45,1.85-3.35,3.4-6.87,5.69-9.98.24-.33.5-.73.53-1.12.18-2.54,1.38-4.69,2.47-6.89.85-1.72,1.16-3.59,1.18-5.48.05-4.4.03-8.8.05-13.19.01-2.02-.29-4.15.23-6.04.49-1.81-.49-2.91-1.01-4.26-.64-1.68-1.16-3.34-.95-5.18.19-1.61-.09-3.2-.33-4.78-.12-.74.02-1.12.83-1.35,2.03-.59,2.81-2.25,3.24-4.14.05-.2.03-.42.08-.62.11-.43-.06-1.16.62-1.13.55.03.27.68.34,1.05.43,2.25.93,4.45,2.8,6.04,1.32,1.11,2.79,1.74,4.53,1.39.73-.14.68.2.58.67Zm.37-2.71c-.17,1.59-1.77,2.22-3.44,1.3-2.44-1.36-3.89-3.45-4.15-6.26-.2-2.15.14-4.24.85-6.27,1.27-3.65,3.33-6.95,4.77-10.83,1.37,2.87,1.82,5.64,2.25,8.43.69,4.56.18,9.09-.28,13.63Zm.99-11.66c-.37-5.45-2.11-10.35-4.27-15.14-2.09-4.62-3.73-9.41-4.39-14.46-.21-1.65-.43-3.32-.17-5,.04-.26.02-.6.36-.68.34-.08.5.2.65.43.88,1.3,1.69,2.6,1.97,4.21.89,5.16,2.08,10.23,4.34,15.02,1.23,2.61,1.43,5.51,1.85,8.33.36,2.41.16,4.77-.34,7.29Zm2.05-10.57c-.26,1.29-.6,2.57-.9,3.85-.06,0-.12,0-.17-.01-.19-1.3-.35-2.6-.56-3.89-.42-2.59-1.16-5.1-2.3-7.47-1.74-3.63-2.47-7.53-3.14-11.45-.13-.81-.28-1.61-.23-2.48,1.29,2.5,2.6,4.98,3.86,7.49.5,1,.88,2.05,1.56,2.95.47.62,1,1.21,1.77,1.41.86.22,1.06.73,1.17,1.57.37,2.78-.52,5.38-1.06,8.03Zm.63-10.1c-1.1-.33-1.91-1.04-2.39-2.05-2.06-4.35-4.32-8.6-6.59-12.84-.31-.58,0-.91.29-1.31,1.06-1.45,1.96-2.97,1.77-4.88h.01c.62,2.1.9,4.29,1.69,6.34.63,1.63,1.52,3.04,3.11,3.92,2.03,1.11,2.59.78,2.58-1.52-.02-3.76.11-7.52.36-11.27.07-.97.15-1.95-.09-2.91-.3-1.2-.92-1.72-2.13-1.74-.45-.01-.9.05-1.36.08.69-.44,1.51-.55,2.25-.85.75-.3,1.21-.78,1.17-1.65-.03-.63.03-1.26-.03-1.88-.15-1.77-.76-2.3-2.72-2.45.05-.05.08-.13.13-.14,2.4-.72,2.6-1.02,2.41-3.57-.04-.52-.07-1.04-.13-1.56q-.24-2.04-2.21-2.57c1.43-.81,2.16-2.03,2.45-3.53.15-.85.21-1.75-.51-2.34-.73-.61-1.6-.3-2.38-.01-.69.26-1.34.6-2.02.87-1.6.64-2.91,1.55-3.17,3.66-.55-.9-1-1.58-1.64-2.09-.4-.32-.18-.5.16-.67.64-.31,1.35-.33,2.04-.43,1.11-.17,2.18-.48,3.19-.95,2.38-1.1,3.96-2.81,4.25-5.53.18-1.69.42-3.37.64-5.17.26,1.94.48,3.78.74,5.6.32,2.17,1.55,3.69,3.45,4.72.32.17.62.41.93.62-.53-.06-.97-.34-1.44-.53-.84-.35-1.78-.78-2.56-.1-.79.68-.67,1.68-.47,2.64.33,1.59,1.29,2.66,2.69,3.48-.71-.05-1.39-.18-1.94.36-.52.51-.53,1.2-.61,1.85-.1.93-.18,1.88-.2,2.82-.03,1.05.47,1.79,1.5,2.13.33.1.66.2,1.01.39-.73.08-1.46.14-1.96.73-.48.56-.6,1.25-.64,1.96-.19,2.77-.18,2.77,3.13,4.03-.05.03-.09.08-.13.08-2.52-.05-3.31.65-3.2,3.19.19,4.49.39,8.98.41,13.48.01,1.32.5,1.61,1.74,1.14,2.04-.79,3.21-2.36,3.95-4.35.71-1.9,1-3.9,1.59-5.84.04,1.77.93,3.18,1.92,4.54.36.48.41.84.12,1.4-2.08,3.99-4.27,7.92-6.16,12.01-1.11,2.4-2.9,3.32-5,2.69Zm6.56-27.62c1.03.13,2.05.5,2.79-.44.78-1.02.63-2.16.22-3.29-.29-.79-.81-1.45-1.45-2.09,1.3-.06,1.67-.42,1.78-1.65.23-2.47-.58-4.51-2.68-6.14,2.07.65,2.4.46,2.68-1.35.57,1.01.56,1.01.37,2.07-.06.38-.14.78-.08,1.14.37,1.96.3,3.94.27,5.91-.01.21.07.44,0,.62-.81,2.12-.16,4.29-.24,6.43-.03.76.12,1.49,1.36,1.44-1.12,1.07-1.73,2.15-2.25,3.34.69-2.74-.19-4.74-2.77-5.99Zm-4.41,1.89c.06-1.14.78-1.76,1.91-1.79,2.97-.09,5.02,1.96,4.68,4.83-.33,2.81-.84,5.59-1.95,8.22-.57,1.33-1.42,2.39-2.67,3.12-1.08.64-1.56.44-1.62-.8-.17-3.51-.28-7.03-.42-10.55h.05c0-1.01-.04-2.02.02-3.03Zm2.61-8.49c2.64.33,4.49,2.17,4.46,4.43-.02,1.57-.63,2.04-2.11,1.59-1.17-.36-2.33-.74-3.48-1.16-1.34-.49-1.75-1.62-1.3-3.39.34-1.32.91-1.66,2.43-1.47Zm-1.19-1.73c-.76-.21-1.1-.82-1.18-1.57-.04-.45-.01-.9-.01-1.36-.02-.7.01-1.39.18-2.07.22-.89.78-1.26,1.63-1.02,3.08.86,5.17,2.81,5.18,6.21,0,1.34-.68,1.82-1.89,1.3-1.29-.54-2.55-1.12-3.91-1.49Zm8.17-1.77c-.32.43-.65.42-.78-.16-.12-.58-.18-1.17-.24-1.55.02-1.26,1.63-3.11,2.64-3.27.43-.07.61.06.52.49-.36,1.67-1.12,3.15-2.14,4.49Zm1.5,1.98c-.21.56-.48,1.09-.91,1.52-.31.31-.61.81-1.11.58-.46-.22-.22-.74-.21-1.14.04-1.01.33-1.84,1.1-2.6.65-.64,1.06-1.52,1.7-2.47.06,1.55-.09,2.86-.57,4.11Zm-1.07,2.36c1.07-.62,1.47-1.87,1.96-2.98.13,2.48-.9,4.52-2.36,6.39-.22.28-.52.51-.91.28-.32-.19-.3-.5-.26-.83.13-1.17.39-2.18,1.57-2.86Zm-.71,7.49c-.23.04-.41.01-.56-.17-.31-.38-.25-2.35.16-2.57,1.51-.78,2.08-2.27,2.81-3.64.06-.11.13-.22.33-.56,0,1.46.04,2.67-.01,3.87-.04,1-1.78,2.89-2.73,3.07Zm.26-16.61c-.75.59-.99.52-1.17-.43-.03-.17-.03-.35-.04-.44-.03-1.94,1.72-3.24,3.44-2.66.5.16.51.34.27.73-.67,1.08-1.49,2.02-2.5,2.8Zm-.64-3.49c-.44.45-.8.95-1.21,1.75-.37-2.21-1.92-3.06-3.55-3.83,1.46.39,2.92.73,4.42.92.33.04.76.15.88.48.12.34-.33.48-.54.68Zm-2.67.01c.61.62.86,1.43.79,2.17.03,1.91-.58,2.38-2.22,1.67-.99-.42-1.91-.99-2.85-1.53-1.49-.86-1.89-2.23-1.78-3.84.05-.68.42-1.08,1.09-.94,1.86.39,3.59,1.1,4.97,2.47Zm-4.57,60.15c-.66-3.24-1.59-6.35-2.04-9.56-.09-.68-.04-1.39-.02-2.08.03-1.04.34-1.78,1.5-2.17,1.17-.39,1.84-1.47,2.31-2.59,1.31-3.15,3.19-6.01,4.82-9.04-.25,1.4-.52,2.81-.74,4.22-.58,3.7-1.7,7.23-3.26,10.65-1.36,2.97-1.93,6.17-2.28,9.4-.04.37,0,.76-.29,1.17Zm1.1,6.34c-1.02-5.75-.23-11.3,2.05-16.61,1.87-4.33,2.97-8.85,3.75-13.46.29-1.71,1.03-3.16,1.99-4.55.17-.25.34-.59.71-.5.37.09.36.49.41.78.29,1.57.01,3.14-.19,4.68-.63,4.92-2.19,9.57-4.18,14.09-2.19,4.99-4.22,10.03-4.54,15.57Zm7.6-35.85c.81-.63,1.6-1.27,2.42-1.87.22-.17.44-.59.78-.3.29.26.22.62,0,.94-.55.78-.85,1.66-1.13,2.84-.41-1.08-.8-1.91-2.06-1.61Zm-6.25,30.4c.36-1.6.89-3.12,1.6-4.84.41.99.73,1.79,1.07,2.57,1.28,3.02,3.03,5.82,3.95,9,.54,1.86.84,3.75.63,5.68-.29,2.72-1.69,4.74-4.06,6.11-.53.31-1.1.4-1.7.39-1.28-.02-1.68-.36-1.83-1.64-.69-5.77-.96-11.53.34-17.27Zm5.09,46.11c-.88-2.42-2.16-4.67-3.05-7.09-.92-2.53-.62-5.09-.42-7.65.11-1.4.42-2.79.68-4.41,2.22,3.2,5.16,5.7,5.66,9.59.32,2.5.83,5.04-.23,7.52-.39.92-.98,1.67-1.76,2.28-.38.3-.69.28-.88-.24Zm.99,3.66s0-.07-.02-.1c-.67-1.45-.61-2.68.96-3.55.34-.19.53-.63.77-.98.21-.3.38-.63.67-1.11-.13,2.2-.12,4.23-1.37,5.98-.17.24-.3.68-.62.63-.42-.06-.29-.56-.39-.87Zm.54,2.39c-.07-.37-.02-.67.25-.95.7-.74,1.18-1.61,1.66-2.51-.22,3.16.59,6.39-.83,9.41-.3-2.01-.69-3.98-1.08-5.95Zm7.99,11.24c-.06,1.09.79,1.84,1.33,2.67,1.47,2.29,2.93,4.59,3.94,7.13.28.72,1.03,1.23,1,2.25-.97-.9-1.37-2.17-2.71-2.74.32.94.92,1.53,1.31,2.23.16.27.37.52.49.8.11.24.23.6-.11.73-.3.12-.36-.25-.48-.44-.61-.95-1.14-1.96-2.13-2.92-.03,1.02.5,1.55.82,2.17.27.52.59,1.02.85,1.55.11.25.15.6-.2.72-.3.1-.4-.22-.5-.43-.5-1.08-1.17-2.06-1.93-2.97-.08-.09-.21-.15-.39-.28-.17.58.14.92.36,1.29.4.7.82,1.38,1.18,2.1.23.46.55,1.06-.19,1.31-.59.21-1.09-.14-1.29-.75-.42-1.32-1.14-2.44-2.3-3.57.1,1.07.7,1.67,1.01,2.39.35.82,1.03,1.63.07,2.45-.68.57-1.91.37-2.64-.7-1.12-1.64-3-2.82-3.2-5.03-.05-.63-.13-1.25-.11-1.88.02-.85-.85-.57-1.23-1.01-1.48-1.7-1.45-3.41-.42-5.21.47-.83.48-1.57,0-2.35-.62-1-.46-2.1.2-2.84,1.75-1.98,1.96-4.35,2.05-6.76.19-5.34-.08-10.66-.58-15.98-.32-3.41-1.9-6.23-4.19-8.69-2.17-2.32-3.42-5.15-4.43-8.11-.36-1.08-.25-1.18.88-1.13,2.43.1,4.68-1.38,5.8-3.75.61-1.28.87-2.64,1.08-4.02.05-.32-.01-.79.48-.79.58-.01.47.5.5.86.19,2.44,1.07,4.41,3.66,5.13.49.14.59.45.51.87-.46,2.3-.36,4.63-.39,6.97-.02,1.88-1.06,3.51-1.77,5.21-.25.61-.67,1.06-.16,1.95.48.84.22,2.11.23,3.19.02,5.3.01,10.61.03,15.91.01,2.69.66,5.16,1.95,7.59.78,1.46,1.73,3.03,1.63,4.88Zm.77-25.23c-.77,5.31-1.45,10.63-2.14,15.95-.12.96-.12,1.94-.18,3.12-.8-1.2-1.07-2.41-1.27-3.61-.23-1.38-.28-2.77-.28-4.17.02-6.17.03-12.34-.02-18.52-.01-1.66,1.06-2.81,1.64-4.23,1.6,3.69,2.84,7.38,2.25,11.46Zm-1.86-45.3c.04-.85.09-1.71.13-2.57.76,3.89,1.03,7.79.83,11.75-.22,4.35-.58,8.69-1.1,13.02-.15,1.17-.65,1.41-1.68.79-1.72-1.05-2.1-2.8-2.23-4.61-.16-2.19.32-4.3,1.11-6.34,1.5-3.88,2.71-7.84,2.94-12.04Zm-.99-8.06c1.01,5.14.66,10.2-.98,15.17-1.03,3.14-2.35,6.21-2.63,9.56-.03.26-.11.48-.42.51-.29.03-.49-.13-.52-.4-.67-5.15-3.8-9.33-5.56-14.05-.35-.96-.31-1.78.13-2.7,2.27-4.77,4.16-9.67,5.1-14.9.24-1.34.41-2.69.61-4.03.28,1.57.51,3.16.83,4.72.4,1.96,1.09,3.76,2.87,4.93.42.27.48.75.57,1.19Zm-1.51-7.61c-.07,1.86.65,3.61.92,5.46-2.59-1.23-4.13-10.84-2.16-13.58.36.25.35.58.42.88.51,2.38.93,4.78.82,7.24Zm-1.03-13.41c.34,2.28-1.5,3.48-3.34,4.66-.47.3-.95.2-1.34-.17-2.53-2.42-2.43-5.18-.05-7.22.74-.64,1.56-1.16,2.42-1.62.36-.2.65-.24.88.15.72,1.2,1.52,2.36,1.43,4.2Zm-1.15-25.3c-.91-.03-1.76-.29-2.91-.68,1.02-.33,1.77-.59,2.42-1.06.2-.15.47-.27.63.03.23.45.54.91.47,1.45-.04.29-.37.26-.61.26Zm1.64.77c-.31-.93-.56-1.86-.97-2.73-.16-.33-.1-.59.14-.86.43-.45.82-.93,1.34-1.33.07,1.71-.11,3.32-.51,4.92Zm-1.24-3.91c-2.46,2.22-5.25,2.25-8.21,1.24-2.97-1.01-4.69-3-5.03-6.16-.18-1.73-.42-3.45-.57-4.61-.04-3.23,1.9-5.41,4.68-5.41,4.63.01,8.76,1.47,11.95,5.02.81.89,1.25,2.01,1.61,3.14.17.52.09,1.01-.2,1.5-1.16,1.96-2.53,3.75-4.23,5.28Zm3.46,1.25c-.08-.69-.12-1.4-.28-2.07-.4-1.65.57-2.78,1.42-3.96.3-.4.5-.24.71.08,1.48,2.3,3.49,3.96,6.07,4.92.66.24.86.89,1.06,1.48.76,2.23,1.08,4.54,1.09,6.89-.03,3.31-.72,6.51-1.72,9.64-.33,1.03-.44,1.02-1.2.32-2.12-1.94-3.41-4.35-4.35-7.04-1.18-3.36-2.38-6.7-2.8-10.26Zm6.34,23.1c-.6,2.18-.41,4.46-.16,6.71-1.25-2.97-2.34-5.95-1.71-9.26.05-.23-.03-.54.26-.62.26-.08.44.16.62.32.89.75,1.36,1.51.99,2.85Zm-2.72-9.18c1.2,1.74,2.5,3.13,3.87,4.45.35.34-.16,2.22-.63,2.33-.1.02-.25-.07-.36-.14-2.32-1.51-3.17-3.39-2.88-6.64Zm2.93,13.26c-.13-2.93.42-5.66,1.95-8.2,1.45-2.44,3.14-4.78,3.52-8.03,1.01,1.76,1.84,3.28,1.99,4.99.28,3.22.09,6.4-1.25,9.43-1.64,3.69-3.35,7.36-4.07,11.4-1.17-3.13-1.99-6.28-2.14-9.59Zm7.71,16.94c-.08,4.6-.3,9.2-.88,13.76-.24,1.89-1.14,3.61-1.89,5.61-.73-1.17-.47-2.14-.18-2.92.8-2.15.46-4.35.38-6.51-.05-1.58-.79-3.1-1.74-4.42-.54-.76-1.28-.62-1.7.24-.34.71-.31,1.5-.47,2.25-.18.81-.48,1.9-1.21,1.86-.74-.04-.52-1.21-.56-1.89-.06-1.07.04-2.16.02-3.24-.04-2.25,1.2-3.98,2.46-5.63,2.31-3.06,4.58-6.13,6.04-9.74-.51,3.55-.21,7.09-.27,10.63Zm-5.28-2.51c.04-1.94.14-3.64.48-5.32.69-3.41,2.02-6.59,3.44-9.74.69-1.55,1.16-3.18,1.71-4.79,1.97,7.6-.99,13.83-5.63,19.85Z" stroke-width="0"/>
    <path d="m52.73,142.71c-.48.64-.95,1.29-1.42,1.94-.47.66-1,.79-1.69.33-1.42-.95-2.85-1.88-4.28-2.81-.21-.14-.37-.45-.85-.18,1.75,1.56,3.43,3.09,5.57,4.01.26.11.54.09.82-.02.99-.37,2.58-2.76,2.58-3.92-.45-.02-.52.4-.72.65Z" stroke-width="0"/>
    <path d="m20.72,144.34c-.61-.77-1.06-1.68-1.84-2.37-.33.44-.07.74.07,1.03.39.78.87,1.51,1.45,2.17.92,1.06,1.41,1.14,2.63.45,1.41-.79,2.64-1.82,3.87-2.85.29-.25.62-.52.78-1.13-1.66,1.11-3.14,2.14-4.66,3.11-1.27.8-1.39.73-2.31-.42Z" stroke-width="0"/>
    <path d="m32.57,16.5s.07,0,.1,0c.42,0,.83-.03,1.21-.24.3-.16.5-.36.36-.75-.27-.75-1.6-1.23-2.75-.94-.46.12-1.18.28-1.05.8.26.99,1.25,1.03,2.12,1.13Z" stroke-width="0"/>
    <path d="m39.44,16.5c1.07.01,2.11-.42,2.33-.91.1-.22.08-.43-.09-.57-.71-.59-1.55-.64-2.38-.44-.61.15-1.35.47-1.29,1.17.07.78.91.68,1.43.75Z" stroke-width="0"/>
  </g>
</svg>
