<?xml version="1.0" encoding="UTF-8"?>
<svg id="icon" data-name="Capa 1" xmlns="http://www.w3.org/2000/svg" viewBox="0 0 72.29 202.47">
  <g id="Pantorrilla">
    <path d="m54.41,145.45c-.58,1.42-1.65,2.57-1.64,4.23.05,6.18.04,12.35.02,18.52,0,1.4.05,2.79.28,4.17.2,1.2.47,2.41,1.27,3.61.06-1.18.06-2.16.18-3.12.69-5.32,1.37-10.64,2.14-15.95.59-4.08-.65-7.77-2.25-11.46Z" fill="#333" stroke-width="0"/>
    <path d="m49.81,167.44c-.48.9-.96,1.77-1.66,2.51-.27.28-.32.58-.25.95.39,1.97.78,3.94,1.08,5.95,1.42-3.02.61-6.25.83-9.41Z" fill="#333" stroke-width="0"/>
    <path d="m48.37,168.75c1.25-1.75,1.24-3.78,1.37-5.98-.29.48-.46.81-.67,1.11-.24.35-.43.79-.77.98-1.57.87-1.63,2.1-.96,3.55.01.03.01.07.02.1.1.31-.03.81.39.87.32.05.45-.39.62-.63Z" fill="#333" stroke-width="0"/>
    <path d="m49.01,162.81c1.06-2.48.55-5.02.23-7.52-.5-3.89-3.44-6.39-5.66-9.59-.26,1.62-.57,3.01-.68,4.41-.2,2.56-.5,5.12.42,7.65.89,2.42,2.17,4.67,3.05,7.09.19.52.5.54.88.24.78-.61,1.37-1.36,1.76-2.28Z" fill="#333" stroke-width="0"/>
  </g>
  <g id="Pantorrilla-2" data-name="Pantorrilla">
    <path d="m22.31,166.85c.32,3.33-.39,6.77.97,10,.3-1.98.69-3.92,1.09-5.86.09-.4.04-.74-.26-1.05-.83-.88-1.36-1.93-1.8-3.09Z" fill="#333" stroke-width="0"/>
    <path d="m24.97,165.73c-1.06-.68-1.77-1.65-2.36-2.78-.02,1.24.01,2.48.33,3.69.25.91.6,1.78,1.23,2.51.24.29.51.46.65-.05.24-.87.43-1.75.62-2.64.08-.37-.2-.56-.47-.73Z" fill="#333" stroke-width="0"/>
    <path d="m28.83,146.52c-.03-.18-.07-.38-.25-.42-.26-.05-.34.2-.46.36-.82,1.04-1.63,2.08-2.44,3.13-1.23,1.59-2.19,3.3-2.59,5.29-.3,1.48-.27,2.98-.39,4.02-.15,2.58.46,4.44,2,5.95.7.67.96.58,1.3-.29.25-.64.56-1.27.84-1.91,1.06-2.38,2.33-4.69,2.68-7.32.4-2.98-.3-5.89-.69-8.81Z" fill="#333" stroke-width="0"/>
    <path d="m17.82,145.12c-1.48,3.97-2.87,7.71-2.2,11.92.73,4.61,1.23,9.25,1.87,13.88.23,1.61.38,3.24.51,4.87.95-1.7,1.41-3.53,1.42-5.42.05-6.52-.04-13.04.1-19.56.05-2.09-.8-3.74-1.7-5.69Z" fill="#333" stroke-width="0"/>
  </g>
</svg>
