<?xml version="1.0" encoding="UTF-8"?>
<svg id="Capa_1" data-name="Capa 1" xmlns="http://www.w3.org/2000/svg" viewBox="0 0 72.29 202.47">
  <path id="Pie" d="m60.76,193.68c-.39-.7-.99-1.29-1.31-2.23,1.34.57,1.74,1.84,2.71,2.74.03-1.02-.72-1.53-1-2.25-1.01-2.54-2.47-4.84-3.94-7.13-.54-.83-1.39-1.58-1.33-2.67.1-1.85-.85-3.42-1.63-4.88-.53-.99-.94-1.99-1.25-3.01-.17-.57-.69-.97-1.29-.95,0,0-.01,0-.02,0-.63.02-1.14.5-1.22,1.12-.22,1.57-.7,3.06-1.86,4.39-.66.74-.82,1.84-.2,2.84.49.78.48,1.52,0,2.35-1.03,1.8-1.06,3.51.42,5.21.38.44,1.25.16,1.23,1.01-.02.63.06,1.25.11,1.88.2,2.21,2.08,3.39,3.2,5.03.73,1.07,1.96,1.27,2.64.7.96-.82.28-1.63-.07-2.45-.31-.72-.91-1.32-1.01-2.39,1.16,1.13,1.88,2.25,2.3,3.57.2.61.7.96,1.29.75.74-.25.42-.85.19-1.31-.36-.72-.78-1.4-1.18-2.1-.22-.37-.53-.71-.36-1.29.18.13.31.19.39.28.76.91,1.43,1.89,1.93,2.97.1.21.2.53.5.43.35-.12.31-.47.2-.72-.26-.53-.58-1.03-.85-1.55-.32-.62-.85-1.15-.82-2.17.99.96,1.52,1.97,2.13,2.92.12.19.18.56.48.44.34-.13.22-.49.11-.73-.12-.28-.33-.53-.49-.8Z" fill="#333" stroke-width="0"/>
  <path id="Pie-2" data-name="Pie" d="m23.78,181.79c.78-1.28.4-2.43-.45-3.46-.74-.89-1.17-1.88-1.39-3-.05-.26-.1-.52-.13-.79-.08-.59-.59-1.04-1.19-1.07,0,0-.01,0-.02,0-.59-.04-1.12.34-1.29.9-.15.47-.33.92-.55,1.37-1.09,2.2-2.29,4.35-2.47,6.89-.03.39-.29.79-.53,1.12-2.29,3.11-3.84,6.63-5.69,9.98-.07.13-.11.26.08.45.87-.84,1.28-2.18,2.69-2.71-.43,1.43-1.91,2.19-1.84,3.98,1.05-1.25,1.58-2.54,2.67-3.52.22.61-.09.91-.26,1.22-.38.71-.82,1.38-1.21,2.08-.18.33-.4.81.03,1.02.46.21.5-.37.64-.63.6-1.08,1.18-2.16,2.2-3,.2.54-.11.84-.28,1.16-.4.77-.85,1.52-1.27,2.28-.23.41-.45.89.08,1.19.56.33,1.02,0,1.31-.48.22-.36.33-.77.5-1.15.44-.98,1.05-1.84,2.03-2.43-.49.97-.99,1.95-1.46,2.93-.24.52-.43,1.09.08,1.55.54.5,1.18.54,1.85.23.46-.2.89-.48,1.13-.9.61-1.03,1.49-1.83,2.2-2.78.52-.69.8-1.47.89-2.31.12-.99.09-1.82,1.1-2.67,1.78-1.51,1.78-3.01.6-5.28-.4-.76-.48-1.44-.05-2.17Z" fill="#333" stroke-width="0"/>
</svg>