<?xml version="1.0" encoding="UTF-8"?>
<svg id="Capa_1" data-name="Capa 1" xmlns="http://www.w3.org/2000/svg" viewBox="0 0 72.29 202.47">
  <g id="Ingle">
    <path d="m40.58,101.45c-.47,1.12-1.14,2.2-2.31,2.59-1.16.39-1.47,1.13-1.5,2.17-.02.69-.07,1.4.02,2.08.45,3.21,1.38,6.32,2.04,9.56.29-.41.25-.8.29-1.17.35-3.23.92-6.43,2.28-9.4,1.56-3.42,2.68-6.95,3.26-10.65.22-1.41.49-2.82.74-4.22-1.63,3.03-3.51,5.89-4.82,9.04Z" fill="#333" stroke-width="0"/>
    <path d="m34.25,104.18c-.77-.2-1.3-.79-1.77-1.41-.68-.9-1.06-1.95-1.56-2.95-1.26-2.51-2.57-4.99-3.86-7.49-.05.87.1,1.67.23,2.48.67,3.92,1.4,7.82,3.14,11.45,1.14,2.37,1.88,4.88,2.3,7.47.21,1.29.37,2.59.56,3.89.05.01.11.01.17.01.3-1.28.64-2.56.9-3.85.54-2.65,1.43-5.25,1.06-8.03-.11-.84-.31-1.35-1.17-1.57Z" fill="#333" stroke-width="0"/>
  </g>
</svg>