<?xml version="1.0" encoding="UTF-8"?>
<svg id="Capa_1" data-name="Capa 1" xmlns="http://www.w3.org/2000/svg" viewBox="0 0 72.29 202.47">
  <path id="Mano" d="m12.14,108.67c-.04.27.01.63-.3.73-.38.12-.52-.25-.73-.47-.6-.68-.55-1.55-.71-2.37-.16-.8-.15-1.88-1.14-2.02-1.02-.14-1.27.89-1.62,1.64-1.39,3-1.44,6.09-.73,9.26.23,1.02.6,2.08.09,3.12-.41,0-.42-.3-.51-.5-1.24-2.77-1.86-5.67-2.02-8.7-.28-5.15-.53-10.3-.44-15.46.03-1.52-.14-3.05-.22-4.58,1.77,4.1,4.75,7.35,7.17,10.96.66.99,1.06,2,1.17,3.18.18,1.74.26,3.47-.01,5.21Z" fill="#333" stroke-width="0"/>
  <path id="Mano-2" data-name="Mano" d="m68.24,99.46c-.08,4.6-.3,9.2-.88,13.76-.24,1.89-1.14,3.61-1.89,5.61-.73-1.17-.47-2.14-.18-2.92.8-2.15.46-4.35.38-6.51-.05-1.58-.79-3.1-1.74-4.42-.54-.76-1.28-.62-1.7.24-.34.71-.31,1.5-.47,2.25-.18.81-.48,1.9-1.21,1.86-.74-.04-.52-1.21-.56-1.89-.06-1.07.04-2.16.02-3.24-.04-2.25,1.2-3.98,2.46-5.63,2.31-3.06,4.58-6.13,6.04-9.74-.51,3.55-.21,7.09-.27,10.63Z" fill="#333" stroke-width="0"/>
</svg>