<?xml version="1.0" encoding="UTF-8"?>
<svg id="Capa_1" data-name="Capa 1" xmlns="http://www.w3.org/2000/svg" viewBox="0 0 72.29 202.47">
  <path id="Cabeza" d="m43.83,20.03c-.48.65-.8-.12-1.36-.28v2.03c-.01.99-.36,1.79-1.13,2.48-1.07.95-2.14,1.9-3.37,2.64-1.17.7-2.38.72-3.57.04-1.4-.8-2.6-1.88-3.78-2.97-.56-.51-.82-1.19-.82-1.97.01-.72,0-1.44,0-2.24-1.14.71-1.12.69-1.83-.35-.85-1.26-1.41-2.55-1.02-4.11.19-.79.46-.96,1.07-.35.18.18.33.56.65.4.34-.17.19-.55.17-.85-.08-2,.04-3.97.58-5.9.47-1.71,1.55-2.84,3.16-3.52,2.73-1.15,5.38-.97,7.95.43,1.94,1.06,2.42,2.98,2.73,4.93.21,1.41.34,2.84.2,4.28-.03.23-.17.52.11.66.3.15.42-.16.59-.32.22-.21.42-.56.75-.48.4.09.38.54.45.86.42,1.84-.51,3.23-1.53,4.59Z" fill="#333" stroke-width="0"/>
</svg>