<?xml version="1.0" encoding="UTF-8"?>
<svg id="Capa_1" data-name="Capa 1" xmlns="http://www.w3.org/2000/svg" viewBox="0 0 72.29 202.47">
  <path id="Rodilla" d="m53.85,135.57c-2.59-.72-3.47-2.69-3.66-5.13-.03-.36.08-.87-.5-.86-.49,0-.43.47-.48.79-.21,1.38-.47,2.74-1.08,4.02-1.12,2.37-3.37,3.85-5.8,3.75-1.13-.05-1.24.05-.88,1.13,1.01,2.96,2.26,5.79,4.43,8.11,1.33,1.43,2.41,2.99,3.16,4.71.23.54.79.87,1.38.87h.42c.89,0,1.58-.79,1.44-1.66-.04-.26-.12-.51-.24-.73-.51-.89-.09-1.34.16-1.95.71-1.7,1.75-3.33,1.77-5.21.03-2.34-.07-4.67.39-6.97.08-.42-.02-.73-.51-.87Zm-2.97,10.41c-.28.11-.56.13-.82.02-2.14-.92-3.82-2.45-5.57-4.01.48-.27.64.04.85.18,1.43.93,2.86,1.86,4.28,2.81.69.46,1.22.33,1.69-.33.47-.65.94-1.3,1.42-1.94h.01c.2-.25.27-.67.72-.65,0,1.16-1.59,3.55-2.58,3.92Z" fill="#333" stroke-width="0"/>
  <path id="Rodilla-2" d="m30.38,138.05h-.01c-1.74.35-3.21-.28-4.53-1.39-1.87-1.59-2.37-3.79-2.8-6.04-.07-.37.21-1.02-.34-1.05-.68-.03-.51.7-.62,1.13-.05.2-.03.42-.08.62-.43,1.89-1.21,3.55-3.24,4.14-.81.23-.95.61-.83,1.35.24,1.58.52,3.17.33,4.78-.21,1.84.31,3.5.95,5.18.52,1.35,1.5,2.45,1.01,4.26-.02.06-.04.15-.05.21-.23,1.16.76,1.49,1.31,1.49,1.21,0,1.28-.21,2.08-1.36,0-.01.04-.08.09-.16.58-1.18,1.32-2.29,2.3-3.31,1.79-1.88,3.01-4.09,4.07-6.41.41-.89.73-1.81.94-2.77.1-.47.15-.81-.58-.67Zm-3.48,4.72c-1.23,1.03-2.46,2.06-3.87,2.85-1.22.69-1.71.61-2.63-.45-.58-.66-1.06-1.39-1.45-2.17-.14-.29-.4-.59-.07-1.03.78.69,1.23,1.6,1.84,2.37.91,1.14,1.03,1.21,2.3.41,1.52-.97,3-2,4.66-3.11-.16.61-.49.88-.78,1.13Z" fill="#333" stroke-width="0"/>
</svg>