<?xml version="1.0" encoding="UTF-8"?>
<svg id="Capa_1" data-name="Capa 1" xmlns="http://www.w3.org/2000/svg" viewBox="0 0 72.29 202.47">
  <g id="Cuello">
    <path d="m42,24.84c-.39-.1-.65.44-.83.82-.11.22-.19.45-.26.69-.59,1.94-1.31,3.82-2.12,5.68-.96,2.22-1.54,4.49-.97,7.11.42-1.06.8-1.99,1.16-2.93,1.29-3.38,2.92-6.66,3.12-10.36.02-.35.39-.88-.1-1.01Z" fill="#333" stroke-width="0"/>
    <path d="m38.37,31.72c.77-1.73,1.46-3.51,2.03-5.6-1.49.98-2.6,2.08-4.28,2.07-1.66-.02-2.8-1.08-4.25-2.06.64,2.17,1.33,4.06,2.15,5.89,1.05,2.32,1.46,4.71,1.05,7.23-.08.51-.19,1.06.15,1.52.57.79.79,1.69.92,2.63.07-.78.19-1.55.65-2.18.44-.63.55-1.27.42-1.98-.45-2.64.07-5.11,1.16-7.52Z" fill="#333" stroke-width="0"/>
    <path d="m31.22,25.98c-.08-.23-.15-.48-.3-.66-.18-.23-.37-.62-.72-.47-.31.13-.11.49-.09.75.31,4.77,2.73,8.86,4.3,13.24.5-2.13.18-4.17-.66-6.12-.95-2.21-1.79-4.46-2.53-6.74Z" fill="#333" stroke-width="0"/>
  </g>
</svg>