<?xml version="1.0" encoding="UTF-8"?>
<svg id="icon" data-name="Capa 1" xmlns="http://www.w3.org/2000/svg" viewBox="0 0 72.29 202.47">
  <g id="Hombro">
    <path d="m32.71,37.87c-2.05.76-4.09.72-6.02-.03-3.15-1.21-6.52-1.35-9.7-2.35-.72-.23-1.38-.06-2.01.28-.38.21-.93.42-.88.92.05.52.62.58,1.06.69,1.08.28,2.14-.08,3.22-.09,2.89-.03,3.57.7,3.15,3.5,0,.02.04.06.14.2,1.78-1.05,3.71-1.8,5.77-2.17,2.12-.38,4.22-.48,6.31.43-.26-.57.02-1.77-1.04-1.38Z" fill="#333" stroke-width="0"/>
    <path d="m17.82,35.04c1.36.41,2.74.78,4.17.91,1.84.18,3.32-.38,4.36-2.02,1.04-1.64,1.76-3.49,3.06-4.96.54-.61.61-1.2.22-1.99-.52.84-1.24,1.36-2.06,1.77-1.87.92-3.73,1.86-5.6,2.79-1.53.76-3.02,1.58-4.33,2.69-.15.13-.37.3-.37.46-.01.32.33.29.55.35Z" fill="#333" stroke-width="0"/>
    <path d="m19.19,37.84c-.87-.06-1.75-.01-2.61.08-1.01.09-1.95-.01-2.81-.55-.21-.14-.4-.29-.67-.17-1.21.49-2.41,1.03-2.94,2.34-1.13,2.83-1.89,5.76-2.16,8.82.08,1.49.39,2.96.91,4.37.29.82.96,1.15,1.76.83,2.84-1.17,4.97-3.14,6-6.05.62-1.78,1.39-3.41,2.74-4.74.65-.64,1.16-1.39,1.47-2.25.57-1.55-.06-2.58-1.69-2.68Z" fill="#333" stroke-width="0"/>
  </g>
  <g id="Hombro-2" data-name="Hombro">
    <path d="m46.02,34.11c.73,1.08,1.71,1.71,3.01,1.84,1.34.14,2.63-.15,3.9-.51.71-.19,1.87-.09,1.97-.77.08-.53-.98-1.03-1.62-1.45-2.62-1.73-5.59-2.8-8.32-4.34-.85-.48-1.72-.94-2.32-1.95-.26.62-.47,1.19-.08,1.61,1.5,1.65,2.23,3.76,3.46,5.57Z" fill="#333" stroke-width="0"/>
    <path d="m52.98,37.32c.94-.03,1.88.04,2.82.13.57.06,1.11.01,1.64-.16.3-.09.64-.21.74-.53.11-.37-.27-.54-.5-.71-.69-.51-1.43-.77-2.34-.58-1.6.35-3.14.98-4.78,1.09-.98.06-1.91.23-2.83.6-.93.37-1.9.68-2.88.92-1.53.38-3.1.51-4.64.01-1.42-.45-1.45-.44-1.69,1.22,2.02-.92,4.07-.87,6.15-.52,2.12.36,4.07,1.14,6.14,2.3-.08-.39-.11-.52-.14-.65-.5-1.91.34-3.07,2.31-3.12Z" fill="#333" stroke-width="0"/>
    <path d="m61.83,39.05c-.42-1.05-1.62-1.36-2.58-1.84-.64-.33-.87.45-1.37.51-.42.06-.82.22-1.23.22-.84,0-1.67-.08-2.43-.13-.39,0-.7,0-1.01.01-1.8.11-2.43,1.07-1.8,2.74.34.94.94,1.7,1.64,2.4,1.13,1.13,1.94,2.47,2.39,4,.86,2.97,2.84,4.96,5.52,6.34,1.38.72,2.1.39,2.6-1.1,1.54-4.66,0-8.93-1.73-13.15Z" fill="#333" stroke-width="0"/>
  </g>
</svg>
