<?xml version="1.0" encoding="UTF-8"?>
<svg id="icon" data-name="Capa 1" xmlns="http://www.w3.org/2000/svg" viewBox="0 0 72.29 202.47">
  <g id="Muslo">
    <path d="m54.93,109.04c-.04.86-.09,1.72-.13,2.57-.23,4.2-1.44,8.16-2.94,12.04-.79,2.04-1.27,4.15-1.11,6.34.13,1.81.51,3.56,2.23,4.61,1.03.62,1.53.38,1.68-.79.52-4.33.88-8.67,1.1-13.02.2-3.96-.07-7.86-.83-11.75Z" fill="#333" stroke-width="0"/>
    <path d="m53.81,103.55c-.09-.44-.15-.92-.57-1.19-1.78-1.17-2.47-2.97-2.87-4.93-.32-1.56-.55-3.15-.83-4.72-.2,1.34-.37,2.69-.61,4.03-.94,5.23-2.83,10.13-5.1,14.9-.44.92-.48,1.74-.13,2.7,1.76,4.72,4.89,8.9,5.56,14.05.03.27.23.43.52.4.31-.03.39-.25.42-.51.28-3.35,1.6-6.42,2.63-9.56,1.64-4.97,1.99-10.03.98-15.17Z" fill="#333" stroke-width="0"/>
    <path d="m43.95,116.47c-.34-.78-.66-1.58-1.07-2.57-.71,1.72-1.24,3.24-1.6,4.84-1.3,5.74-1.03,11.5-.34,17.27.15,1.28.55,1.62,1.83,1.64.6.01,1.17-.08,1.7-.39,2.37-1.37,3.77-3.39,4.06-6.11.21-1.93-.09-3.82-.63-5.68-.92-3.18-2.67-5.98-3.95-9Z" fill="#333" stroke-width="0"/>
  </g>
  <g id="Muslo-2" data-name="Muslo">
    <path d="m17.32,109.08c-.72,3.83-.96,7.69-.8,11.61.17,4.39.58,8.75,1.07,13.11.14,1.29.71,1.48,1.82.72,1.47-1.03,1.95-2.58,2.11-4.25.21-2.2-.22-4.31-1.02-6.34-1.88-4.77-3.21-9.65-3.18-14.85Z" fill="#333" stroke-width="0"/>
    <path d="m29.35,113.95c-1.44,3.88-3.5,7.18-4.77,10.83-.71,2.03-1.05,4.12-.85,6.27.26,2.81,1.71,4.9,4.15,6.26,1.67.92,3.27.29,3.44-1.3.46-4.54.97-9.07.28-13.63-.43-2.79-.88-5.56-2.25-8.43Z" fill="#333" stroke-width="0"/>
    <path d="m28.65,114.05c.26-.73.25-1.37-.09-2.1-2.8-6.07-5.22-12.27-5.8-19.02-.52,1.98-.56,4.03-1.25,5.96-.38,1.09-.79,2.22-1.79,2.88-.99.66-1.3,1.57-1.45,2.64-.7,5.12-.38,10.15,1.41,15.04,1,2.75,2.01,5.51,2.37,8.45.04.36-.02.86.52.87s.49-.53.54-.87c.39-2.4,1.28-4.63,2.33-6.81,1.11-2.32,2.35-4.59,3.21-7.04Z" fill="#333" stroke-width="0"/>
  </g>
</svg>
