<?xml version="1.0" encoding="UTF-8"?>
<svg id="icon" data-name="Capa 1" xmlns="http://www.w3.org/2000/svg" viewBox="0 0 72.29 202.47">
  <g id="Torso">
    <path d="m21.39,54.48c-.46-.48-.89-.99-1.33-1.48-.08.07-.16.13-.24.2.2,1.6.25,3.22.69,4.8.31-.92.51-1.83.94-2.66.15-.29.21-.58-.06-.86Z" fill="#333" stroke-width="0"/>
    <path d="m27.35,82.1c-.71-2.05-2.4-3.07-4.19-3.98-.29-.15-.54-.12-.71.18-.75,1.21-1.58,2.4-1.48,3.81.05,2.41,1.33,4.28,3.43,5.13.34.13.66.16,1-.03,1.54-.84,2.53-3.44,1.95-5.11Z" fill="#333" stroke-width="0"/>
    <path d="m49.84,78.33c-.23-.39-.52-.35-.88-.15-.86.46-1.68.98-2.42,1.62-2.38,2.04-2.48,4.8.05,7.22.39.37.87.47,1.34.17,1.84-1.18,3.68-2.38,3.34-4.66.09-1.84-.71-3-1.43-4.2Z" fill="#333" stroke-width="0"/>
    <path d="m45.5,60.31c.01.09.01.27.04.44.18.95.42,1.02,1.17.43,1.01-.78,1.83-1.72,2.5-2.8.24-.39.23-.57-.27-.73-1.72-.58-3.47.72-3.44,2.66Z" fill="#333" stroke-width="0"/>
    <path d="m48.35,60.98c-1.01.16-2.62,2.01-2.64,3.27.06.38.12.97.24,1.55.13.58.46.59.78.16,1.02-1.34,1.78-2.82,2.14-4.49.09-.43-.09-.56-.52-.49Z" fill="#333" stroke-width="0"/>
    <path d="m46,68.9c-.01.4-.25.92.21,1.14.5.23.8-.27,1.11-.58.43-.43.7-.96.91-1.52.48-1.25.63-2.56.57-4.11-.64.95-1.05,1.83-1.7,2.47-.77.76-1.06,1.59-1.1,2.6Z" fill="#333" stroke-width="0"/>
    <path d="m45.85,73.99c.39.23.69,0,.91-.28,1.46-1.87,2.49-3.91,2.36-6.39-.49,1.11-.89,2.36-1.96,2.98-1.18.68-1.44,1.69-1.57,2.86-.04.33-.06.64.26.83Z" fill="#333" stroke-width="0"/>
    <path d="m49.18,74.72c.05-1.2.01-2.41.01-3.87-.2.34-.27.45-.33.56-.73,1.37-1.3,2.86-2.81,3.64-.41.22-.47,2.19-.16,2.57.15.18.33.21.56.17.95-.18,2.69-2.07,2.73-3.07Z" fill="#333" stroke-width="0"/>
    <path d="m46.57,78.71c-1.24.05-1.39-.68-1.36-1.44.08-2.14-.57-4.31.24-6.43.07-.18-.01-.41,0-.62.03-1.97.1-3.95-.27-5.91-.06-.36.02-.76.08-1.14.19-1.06.2-1.06-.37-2.07-.28,1.81-.61,2-2.68,1.35,2.1,1.63,2.91,3.67,2.68,6.14-.11,1.23-.48,1.59-1.78,1.65.64.64,1.16,1.3,1.45,2.09.41,1.13.56,2.27-.22,3.29-.74.94-1.76.57-2.79.44,2.58,1.25,3.46,3.25,2.77,5.99.52-1.19,1.13-2.27,2.25-3.34Z" fill="#333" stroke-width="0"/>
    <path d="m26.72,67.52c.19,3.19.65,6.36.36,9.56-.07.84.03,1.75-1.54,1.62,1.52,1.14,1.97,2.55,2.53,3.89-.85-3.04-.01-5.34,2.94-6.71-.13.03-.27.06-.41.09-2.45.66-3.65-.56-3.07-3.08.24-1.05.9-1.83,1.61-2.7-.88.09-1.42-.18-1.64-.93-.18-.61-.27-1.22-.2-1.86.22-1.98.99-3.66,2.63-4.91-.65.1-1.18.6-1.83.23-.65-.37-.53-1.11-.8-1.72-.38.77-.49,1.48-.29,2.28.21.81.1,1.66-.05,2.49-.1.58-.28,1.14-.24,1.75Z" fill="#333" stroke-width="0"/>
    <path d="m25.39,77.58c.73.48,1.08.31,1.14-.56.06-.96.24-1.97-1.02-2.43-.31-.11-.55-.51-.76-.82-.51-.82-.99-1.67-1.48-2.5-.07,0-.13-.01-.2-.01,0,.72.08,1.45-.02,2.15-.27,2,.86,3.18,2.34,4.17Z" fill="#333" stroke-width="0"/>
    <path d="m25.53,73.7c.31.37.73.67,1.08.04.25-.46-.23-2.58-.69-2.84-1.44-.79-2.2-2.07-2.76-3.56-.06,2.43.82,4.53,2.37,6.36Z" fill="#333" stroke-width="0"/>
    <path d="m23.44,64.04c.04.69.01,1.39.12,2.06.22,1.39.63,2.71,1.73,3.69.36.32.89.6.98-.15.1-.85.12-1.81-.43-2.5-.81-1-1.53-2.05-2.4-3.1Z" fill="#333" stroke-width="0"/>
    <path d="m24.07,61.04c-.62-.16-.72.04-.61.62.21,1.11.65,2.13,1.25,3.06.36.56.64,1.61,1.29,1.43.69-.19.34-1.29.55-1.84.04-1.22-1.37-2.98-2.48-3.27Z" fill="#333" stroke-width="0"/>
    <path d="m23.38,57.61c-.5.16-.62.34-.3.8.74,1.09,1.59,2.08,2.61,2.93.53.44.77.29.92-.29.07-.27.13-.54.15-.65.04-2-1.7-3.33-3.38-2.79Z" fill="#333" stroke-width="0"/>
    <path d="m21.55,56.98c.05.29.39.26.62.24.89-.09,1.78-.23,2.76-.71-.92-.25-1.66-.52-2.3-1.01-.21-.15-.46-.28-.62.03-.24.46-.56.91-.46,1.45Z" fill="#333" stroke-width="0"/>
    <path d="m45.73,56.53c-1.5-.19-2.96-.53-4.42-.92,1.63.77,3.18,1.62,3.55,3.83.41-.8.77-1.3,1.21-1.75.21-.2.66-.34.54-.68-.12-.33-.55-.44-.88-.48Z" fill="#333" stroke-width="0"/>
    <path d="m50.93,54.41c-.24.27-.3.53-.14.86.41.87.66,1.8.97,2.73.4-1.6.58-3.21.51-4.92-.52.4-.91.88-1.34,1.33Z" fill="#333" stroke-width="0"/>
    <path d="m50.73,56.97c.07-.54-.24-1-.47-1.45-.16-.3-.43-.18-.63-.03-.65.47-1.4.73-2.42,1.06,1.15.39,2,.65,2.91.68.24,0,.57.03.61-.26Z" fill="#333" stroke-width="0"/>
    <path d="m44.11,83.04c-.59,1.94-.88,3.94-1.59,5.84-.74,1.99-1.91,3.56-3.95,4.35-1.24.47-1.73.18-1.74-1.14-.02-4.5-.22-8.99-.41-13.48-.11-2.54.68-3.24,3.2-3.19.04,0,.08-.05.13-.08-3.31-1.26-3.32-1.26-3.13-4.03.04-.71.16-1.4.64-1.96.5-.59,1.23-.65,1.96-.73-.35-.19-.68-.29-1.01-.39-1.03-.34-1.53-1.08-1.5-2.13.02-.94.1-1.89.2-2.82.08-.65.09-1.34.61-1.85.55-.54,1.23-.41,1.94-.36-1.4-.82-2.36-1.89-2.69-3.48-.2-.96-.32-1.96.47-2.64.78-.68,1.72-.25,2.56.1.47.19.91.47,1.44.53-.31-.21-.61-.45-.93-.62-1.9-1.03-3.13-2.55-3.45-4.72-.26-1.82-.48-3.66-.74-5.6-.22,1.8-.46,3.48-.64,5.17-.29,2.72-1.87,4.43-4.25,5.53-1.01.47-2.08.78-3.19.95-.69.1-1.4.12-2.04.43-.34.17-.56.35-.16.67.64.51,1.09,1.19,1.64,2.09.26-2.11,1.57-3.02,3.17-3.66.68-.27,1.33-.61,2.02-.87.78-.29,1.65-.6,2.38.01.72.59.66,1.49.51,2.34-.29,1.5-1.02,2.72-2.45,3.53q1.97.53,2.21,2.57c.06.52.09,1.04.13,1.56.19,2.55-.01,2.85-2.41,3.57-.05.01-.08.09-.13.14,1.96.15,2.57.68,2.72,2.45.06.62,0,1.25.03,1.88.04.87-.42,1.35-1.17,1.65-.74.3-1.56.41-2.25.85.46-.03.91-.09,1.36-.08,1.21.02,1.83.54,2.13,1.74.24.96.16,1.94.09,2.91-.25,3.75-.38,7.51-.36,11.27.01,2.3-.55,2.63-2.58,1.52-1.59-.88-2.48-2.29-3.11-3.92-.79-2.05-1.07-4.24-1.69-6.33h-.01c.19,1.9-.71,3.42-1.77,4.87-.29.4-.6.73-.29,1.31,2.27,4.24,4.53,8.49,6.59,12.84.48,1.01,1.29,1.72,2.39,2.05,2.1.63,3.89-.29,5-2.69,1.89-4.09,4.08-8.02,6.16-12.01.29-.56.24-.92-.12-1.4-.99-1.36-1.88-2.77-1.92-4.54Z" fill="#333" stroke-width="0"/>
    <path id="Corazon" d="m35.48,45.16c-.19,1.38-.33,2.76-.51,4.14-.47,3.77-2.92,5.58-6.35,6.42-2.85.7-5.29-.02-7.38-2.07-1.48-1.45-2.65-3.13-3.76-4.86-.3-.48-.27-.98-.14-1.51.49-2.03,1.75-3.57,3.33-4.81,2.77-2.17,6.04-3.07,9.01-3.37,4.19,0,6.3,2.42,5.8,6.06Z" fill="#333" stroke-width="0"/>
  </g>
</svg>
